<?xml version="1.0" encoding="UTF-8"?>
<svg id="Layer_1" data-name="Layer 1" xmlns="http://www.w3.org/2000/svg" viewBox="0 0 249.33 223.38">
  <path d="m62.38,159.2c-2.11,0-3.17-1.06-3.17-3.17l.75-82.8,1.21.76-46.3,59.42-1.36-1.51h59.27c1.06,0,1.85.27,2.37.79.53.53.79,1.32.79,2.37,0,2.11-1.06,3.17-3.17,3.17H10.04c-2.11,0-3.17-1.05-3.17-3.17,0-1,.45-2.11,1.36-3.32l51.43-66.06c.55-.7,1.12-1.21,1.7-1.51.58-.3,1.32-.45,2.22-.45,1.81,0,2.71,1.06,2.71,3.17l-.75,89.14c0,2.11-1.06,3.17-3.17,3.17Z" style="fill: #ffb36c;"/>
  <path d="m120.14,159.65c-10.71,0-18.49-2.42-23.34-7.28s-7.27-12.63-7.27-23.34v-34.24c0-10.71,2.45-18.46,7.35-23.27,4.9-4.8,12.66-7.2,23.27-7.2h9.05c10.71,0,18.49,2.43,23.34,7.28s7.28,12.63,7.28,23.34v34.09c0,10.71-2.43,18.49-7.28,23.34-4.85,4.85-12.63,7.28-23.34,7.28h-9.05Zm0-6.33h9.05c5.93,0,10.67-.79,14.21-2.37s6.11-4.15,7.69-7.69c1.58-3.54,2.37-8.28,2.37-14.21v-34.09c0-5.93-.79-10.67-2.37-14.21-1.59-3.54-4.15-6.11-7.69-7.69-3.54-1.58-8.28-2.37-14.21-2.37h-9.05c-5.93,0-10.67.78-14.22,2.34-3.54,1.56-6.11,4.1-7.69,7.62-1.58,3.52-2.38,8.25-2.38,14.18v34.24c0,5.93.79,10.67,2.38,14.21,1.58,3.54,4.15,6.11,7.69,7.69,3.54,1.58,8.28,2.37,14.22,2.37Zm3.32-35.9c-2.52,0-3.77-1.31-3.77-3.92v-2.56c0-2.51,1.26-3.77,3.77-3.77h2.56c2.51,0,3.77,1.26,3.77,3.77v2.56c0,2.62-1.26,3.92-3.77,3.92h-2.56Z" style="fill: #ffb36c;"/>
  <path d="m228.89,159.2c-2.11,0-3.17-1.06-3.17-3.17l.76-82.8,1.21.76-46.31,59.42-1.36-1.51h59.27c1.06,0,1.85.27,2.37.79.53.53.79,1.32.79,2.37,0,2.11-1.06,3.17-3.17,3.17h-62.74c-2.11,0-3.17-1.05-3.17-3.17,0-1,.45-2.11,1.36-3.32l51.43-66.06c.55-.7,1.12-1.21,1.7-1.51.58-.3,1.32-.45,2.22-.45,1.81,0,2.72,1.06,2.72,3.17l-.76,89.14c0,2.11-1.06,3.17-3.17,3.17Z" style="fill: #ffb36c;"/>
</svg>