<?xml version="1.0" encoding="UTF-8"?>
<svg id="Layer_1" data-name="Layer 1" xmlns="http://www.w3.org/2000/svg" viewBox="0 0 249.33 223.38">
  <path d="m160.98,219.09c-14.93,0-25.39-3.19-31.37-9.56-5.99-6.38-8.98-17.51-8.98-33.4v-46.08l-16.4-6.25c-2.95-1.21-4.42-3.3-4.42-6.25v-8.85c0-2.87,1.39-4.95,4.17-6.25l16.66-6.51v-46.09c0-9.2,1.02-17.2,3.06-24.02,2.04-6.81,5.68-12.1,10.94-15.88,5.25-3.78,12.73-5.66,22.46-5.66,3.55,0,6.01.35,7.35,1.04,1.34.7,2.01,2.08,2.01,4.17s-.54,3.6-1.63,4.3c-1.08.7-2.37,1.17-3.84,1.44-3.3.52-6.68.78-10.15.78s-6.66.76-9.57,2.28c-2.91,1.52-5.25,4.65-7.03,9.37-1.78,4.73-2.67,12.13-2.67,22.2v48.95c0,2.87-1.39,4.95-4.17,6.25l-16.66,6.51v3.12l16.4,6.25c2.95,1.22,4.43,3.3,4.43,6.25v48.95c0,9.98.91,17.12,2.73,21.42,1.82,4.3,4.88,7.01,9.18,8.13s10.13,1.95,17.51,2.47c2,.08,3.41.7,4.23,1.82s1.23,2.34,1.23,3.65c0,1.56-.51,2.86-1.56,3.9-1.04,1.04-2.34,1.56-3.9,1.56Z" style="fill: #ffb36c;"/>
</svg>