<?xml version="1.0" encoding="UTF-8"?>
<svg id="Layer_2" data-name="Layer 2" xmlns="http://www.w3.org/2000/svg" viewBox="0 0 500.01 500">
  <g id="Layer_2-2" data-name="Layer 2">
    <g id="Layer_4" data-name="Layer 4">
      <rect x=".01" width="500" height="403.63" style="fill: #59b3be; isolation: isolate; opacity: .53;"/>
      <path d="m500.01,130.35c-33.42,3.11-59.64,33.15-59.64,69.76,0,2.95.19,5.86.52,8.72-3.45-.49-6.99-.75-10.58-.75-28.21,0-52.49,15.77-63.46,38.43-.58-.02-1.16-.04-1.75-.04-16.91,0-31.94,7.54-41.51,19.24-6.08-2.04-12.63-3.16-19.46-3.16-11.8,0-22.78,3.33-31.93,9.02-9.26-7.78-21.47-12.52-34.87-12.52-11.31,0-21.77,3.38-30.33,9.11-10.06-16.12-28.68-26.96-50-26.96-7.12,0-13.94,1.21-20.24,3.42-8.29-27.49-33.91-58.51-65.8-58.51-7.5,0-14.77.74-21.62,2.18-1.51-25.75-21.48-46.15-45.9-46.15-1.16,0-2.3.06-3.44.15v98.26h.03c0,.31-.03.62-.03.94v135.78h500v-99.63h-.15c.09-1.33.15-2.68.15-4.04,0-1.26-.05-2.52-.12-3.76h.12v-139.52.03Z" style="fill: #59b3be; isolation: isolate; opacity: .83;"/>
    </g>
    <g id="Layer_2-2" data-name="Layer 2-2">
      <path d="m245.1,383.57h-109.38v-89.27c0-12.94,2.38-23.99,7.12-33.15,4.74-9.16,11.27-16.22,19.57-21.19,8.3-4.96,17.85-7.44,28.63-7.44,13.37,0,24.9,4.26,34.61,12.78,6.84,6,11.96,13.42,15.37,22.26m0,0c.88-5.21,2.9-10.72,8.4-19.67s12.4-15.74,20.7-20.38c8.3-4.63,17.74-6.95,28.3-6.95,9.49,0,18.11,1.46,25.88,4.37,7.76,2.91,14.45,7.44,20.05,13.58,5.61,6.15,9.98,13.86,13.1,23.13,3.13,9.27,4.69,20.27,4.69,32.99v88.95h-117.04" style="fill: #ffa990;"/>
      <path d="m357.45,261.63c-3.12-9.27-7.49-16.98-13.1-23.13-5.61-6.15-12.29-10.67-20.05-13.58-7.76-2.91-16.38-4.37-25.88-4.37-10.56,0-20,2.32-28.3,6.95-8.3,4.64-15.2,11.43-20.7,20.38s-7.52,14.46-8.4,19.67l1.83,116.02h119.29v-88.95c0-12.72-1.56-23.72-4.69-32.99h0Z" style="fill: #fb867c;"/>
      <path d="m294.7,264.27c5.42-7.17,9.17-13.98,15.4-2.66.45.88.92,1.74,1.3,2.66l-.08.05c-8.35-12.53-7.9-8-16.61-.06h-.01Z"/>
      <path d="m218.71,282.11c-3.48,5.12-8.72,9.75-14.95,11.12-8.34,2.1-16.74-3.32-21.15-10.08l.14-.14c7.95,8,17.45,11.86,27.74,5.41,2.95-1.79,5.6-4.04,8.08-6.45l.14.14h0Z"/>
      <path d="m183.58,279.31c4.54-6.68,8.2-12.51,13.56-2.38.38.79.79,1.56,1.11,2.39l-.08.05c-7.36-11.05-6.96-7.29-14.59-.06h0Z"/>
      <path d="m202.14,279.31c4.61-6.46,8.23-12.38,13.57-2.36.38.79.79,1.55,1.1,2.37l-.08.05c-7.35-11.03-6.94-6.95-14.59-.06h0Z"/>
      <path d="m313.55,267.45c-4.1,5.68-9.99,10.9-17.06,12.43-9.55,2.33-18.75-3.71-24.02-11.25l.14-.14c9.1,9.13,19.83,13.53,31.61,6.17,3.36-2.04,6.38-4.61,9.2-7.36l.14.14h-.01Z"/>
      <path d="m273.56,264.27c5.35-7.42,9.14-14.12,15.39-2.68.45.89.93,1.76,1.31,2.69l-.08.05c-8.34-12.53-7.93-8.39-16.61-.06h-.01Z"/>
    </g>
    <g id="Layer_3" data-name="Layer 3">
      <path d="m124.06,291.52c.94-4.24,1.45-8.68,1.45-13.26,0-28.87-19.91-52.27-44.47-52.27-11.31,0-21.63,4.97-29.48,13.15-10.09-11.96-24.07-19.37-39.53-19.37-4.13,0-8.14.54-12.02,1.55v127.75c3.87,1,7.89,1.55,12.02,1.55,18.87,0,35.53-11.04,45.59-27.91,6.8,4.96,14.82,7.84,23.42,7.84,2.7,0,5.34-.3,7.91-.84,1.13,18.69,14.36,33.46,30.55,33.46s30.66-16.13,30.66-36.03c0-18.07-11.33-32.99-26.09-35.59v-.03Z" style="fill: #46a4b0;"/>
      <path d="m500.01,237.2c-7.04-4.17-15-6.53-23.44-6.53-14.4,0-27.43,6.85-36.83,17.9-7.31-7.56-16.93-12.15-27.47-12.15-22.88,0-41.43,21.62-41.43,48.29,0,4.23.47,8.34,1.35,12.25-13.75,2.4-24.31,16.19-24.31,32.88,0,18.39,12.79,33.29,28.56,33.29s27.41-13.64,28.46-30.91c2.39.5,4.85.78,7.37.78,8.01,0,15.48-2.66,21.82-7.24,9.38,15.59,24.9,25.79,42.48,25.79,8.44,0,16.4-2.36,23.44-6.53v-107.83h0Z" style="fill: #46a4b0;"/>
      <path d="m500.01,230.67c-33.42,3.4-59.64,36.15-59.64,76.08,0,3.22.19,6.39.52,9.51-3.45-.54-6.99-.82-10.58-.82-28.21,0-52.49,17.2-63.46,41.92-.58-.02-1.16-.05-1.75-.05-16.91,0-31.94,8.23-41.51,20.98-6.08-2.22-12.63-3.44-19.46-3.44-11.8,0-22.78,3.63-31.93,9.84-9.26-8.49-21.47-13.65-34.87-13.65-11.31,0-21.77,3.69-30.33,9.94-10.06-17.59-28.68-29.4-50-29.4-7.12,0-13.94,1.32-20.24,3.73-8.29-29.98-33.91-63.82-65.8-63.82-7.5,0-14.77.81-21.62,2.38-1.51-28.09-21.48-50.33-45.9-50.33-1.16,0-2.3.07-3.44.17v107.17h.03c0,.34-.03.67-.03,1.02v148.1h500v-108.66h-.15c.09-1.45.15-2.92.15-4.41,0-1.38-.05-2.74-.12-4.1h.12v-152.17h.01Z" style="fill: #356277;"/>
      <g style="isolation: isolate;">
        <g style="isolation: isolate;">
          <path d="m85.29,135.69v-70.93h27.97c4.05,0,7.51.74,10.39,2.23,2.87,1.49,5.08,3.53,6.64,6.13,1.55,2.6,2.33,5.59,2.33,8.97,0,4.19-1.33,7.8-4,10.84-2.67,3.04-6.23,5-10.69,5.88l-.41-1.62c4.05.41,7.48,1.47,10.29,3.19,2.8,1.72,4.93,3.89,6.38,6.49,1.45,2.6,2.18,5.56,2.18,8.87,0,2.97-.46,5.67-1.37,8.11s-2.33,4.53-4.26,6.28c-1.93,1.76-4.34,3.13-7.25,4.1-2.91.98-6.35,1.47-10.34,1.47h-27.87Zm5.27-39.52h22.09c2.77,0,5.25-.59,7.45-1.77,2.19-1.18,3.93-2.77,5.22-4.76,1.28-1.99,1.93-4.27,1.93-6.84,0-3.78-1.32-6.87-3.95-9.27-2.63-2.4-6.25-3.6-10.84-3.6h-21.89v26.24Zm0,34.35h22.5c6.28,0,10.82-1.37,13.63-4.1,2.8-2.74,4.21-6.2,4.21-10.39,0-2.97-.71-5.54-2.13-7.7-1.42-2.16-3.43-3.87-6.03-5.12-2.6-1.25-5.79-1.87-9.58-1.87h-22.6v29.18Z"/>
          <path d="m168.08,136.7c-3.99,0-7.4-.78-10.23-2.33-2.84-1.55-5.02-3.88-6.54-6.99-1.52-3.11-2.28-7.03-2.28-11.75v-33.13h5.17v32.02c0,5.95,1.35,10.35,4.05,13.22,2.7,2.87,6.52,4.31,11.45,4.31,2.3,0,4.42-.46,6.38-1.37,1.96-.91,3.7-2.04,5.22-3.39,1.52-1.35,2.7-2.82,3.55-4.41.84-1.59,1.27-3.06,1.27-4.41v-35.97h5.17v53.2h-4.97l-.2-11.96,1.22-.51c-.81,2.43-2.16,4.68-4.05,6.74-1.89,2.06-4.14,3.7-6.74,4.92-2.6,1.22-5.42,1.82-8.46,1.82Z"/>
          <path d="m228.27,136.7c-4.93,0-9.32-1.18-13.17-3.55-3.85-2.36-6.89-5.59-9.12-9.68-2.23-4.09-3.34-8.8-3.34-14.14s1.13-10.07,3.39-14.19c2.26-4.12,5.3-7.38,9.12-9.78,3.82-2.4,8.09-3.6,12.82-3.6,2.7,0,5.29.46,7.75,1.37,2.47.91,4.73,2.15,6.79,3.7,2.06,1.55,3.75,3.36,5.07,5.42,1.32,2.06,2.11,4.21,2.38,6.43l-1.42-.1v-37.9h5.17v74.98h-5.17v-15.71l1.22-.3c-.34,2.37-1.17,4.58-2.48,6.64-1.32,2.06-2.94,3.85-4.86,5.37-1.93,1.52-4.1,2.74-6.54,3.65-2.43.91-4.97,1.37-7.6,1.37Zm.41-4.66c3.85,0,7.28-.96,10.28-2.89,3.01-1.92,5.39-4.61,7.14-8.06,1.76-3.45,2.63-7.4,2.63-11.86s-.88-8.41-2.63-11.86c-1.76-3.45-4.14-6.15-7.14-8.11-3.01-1.96-6.47-2.94-10.39-2.94s-7.65,1-10.79,2.99c-3.14,1.99-5.59,4.73-7.35,8.21-1.76,3.48-2.63,7.41-2.63,11.8s.88,8.21,2.63,11.65c1.76,3.44,4.21,6.15,7.35,8.11,3.14,1.96,6.77,2.94,10.89,2.94Z"/>
          <path d="m290.58,136.7c-4.93,0-9.32-1.18-13.17-3.55-3.85-2.36-6.89-5.59-9.12-9.68-2.23-4.09-3.34-8.8-3.34-14.14s1.13-10.07,3.39-14.19c2.26-4.12,5.3-7.38,9.12-9.78,3.82-2.4,8.09-3.6,12.82-3.6,2.7,0,5.29.46,7.75,1.37,2.46.91,4.73,2.15,6.79,3.7,2.06,1.55,3.75,3.36,5.07,5.42,1.32,2.06,2.11,4.21,2.38,6.43l-1.42-.1v-37.9h5.17v74.98h-5.17v-15.71l1.22-.3c-.34,2.37-1.17,4.58-2.48,6.64-1.32,2.06-2.94,3.85-4.86,5.37-1.92,1.52-4.1,2.74-6.54,3.65-2.43.91-4.97,1.37-7.6,1.37Zm.41-4.66c3.85,0,7.28-.96,10.28-2.89,3.01-1.92,5.39-4.61,7.14-8.06,1.76-3.45,2.63-7.4,2.63-11.86s-.88-8.41-2.63-11.86c-1.76-3.45-4.14-6.15-7.14-8.11-3.01-1.96-6.47-2.94-10.39-2.94s-7.65,1-10.79,2.99c-3.14,1.99-5.59,4.73-7.35,8.21-1.76,3.48-2.63,7.41-2.63,11.8s.88,8.21,2.63,11.65c1.76,3.44,4.21,6.15,7.35,8.11,3.14,1.96,6.77,2.94,10.89,2.94Z"/>
          <path d="m339.22,159l10.03-24.42.3,3.95-25.13-56.04h5.88l19.76,44.48c.47.95.84,1.79,1.11,2.53.27.74.51,1.45.71,2.13l-1.52.51c.41-.95.79-1.91,1.17-2.89.37-.98.73-1.94,1.06-2.89l17.12-43.88h5.98l-21.99,54.01-8.82,22.5h-5.67Z"/>
          <path d="m402.04,136.7c-4.46,0-8.51-.83-12.16-2.48-3.65-1.65-6.52-3.9-8.61-6.74l3.65-3.04c1.96,2.37,4.41,4.26,7.35,5.67s6.33,2.13,10.18,2.13c2.23,0,4.17-.27,5.83-.81,1.65-.54,3.02-1.28,4.1-2.23,1.08-.95,1.88-2.06,2.38-3.34.51-1.28.76-2.6.76-3.95,0-2.7-1.15-4.86-3.45-6.48-1.15-.88-2.63-1.66-4.46-2.33-1.82-.67-3.99-1.32-6.49-1.92-3.38-.81-6.27-1.76-8.66-2.84-2.4-1.08-4.34-2.33-5.83-3.75-1.15-1.15-2.03-2.41-2.63-3.8-.61-1.38-.91-2.92-.91-4.61,0-2.84.76-5.34,2.28-7.5,1.52-2.16,3.65-3.85,6.38-5.07,2.74-1.22,5.89-1.82,9.47-1.82,2.43,0,4.8.34,7.09,1.01,2.3.68,4.46,1.64,6.49,2.89,2.03,1.25,3.78,2.82,5.27,4.71l-3.14,3.45c-1.42-1.55-2.96-2.9-4.61-4.05-1.66-1.15-3.41-2.03-5.27-2.63-1.86-.61-3.73-.91-5.62-.91-2.09,0-3.97.24-5.62.71-1.66.47-3.06,1.13-4.21,1.98-1.15.85-2.01,1.86-2.58,3.04-.58,1.18-.86,2.52-.86,4,.07,1.01.32,2.03.76,3.04.44,1.01,1.1,1.89,1.98,2.63,1.08.95,2.62,1.81,4.61,2.58,1.99.78,4.34,1.47,7.04,2.08,3.17.74,5.88,1.57,8.11,2.48s4.05,2.01,5.47,3.29c1.49,1.22,2.57,2.6,3.24,4.16.67,1.55,1.01,3.38,1.01,5.47,0,3.04-.78,5.67-2.33,7.9-1.56,2.23-3.68,3.97-6.38,5.22-2.7,1.25-5.91,1.88-9.63,1.88Z"/>
        </g>
      </g>
    </g>
    <rect x=".01" y="0" width="500" height="500" style="opacity: .65;"/>
  </g>
</svg>