<?xml version="1.0" encoding="UTF-8"?>
<svg id="Layer_1" data-name="Layer 1" xmlns="http://www.w3.org/2000/svg" viewBox="0 0 249.33 223.38">
  <polygon points="184.64 153.43 184.64 156.29 155.69 168.95 155.69 166.01 184.64 153.43" style="fill: #e1f4dc;"/>
  <polygon points="102.09 152.37 102.09 155.23 155.69 168.95 155.69 166.01 102.09 152.37" style="fill: #e1f4dc;"/>
  <path d="m177.31,195.31c6.01-.92,7.18-2.36,7.34-3.13.69-3.24-10.38-9.16-17.53-12.12-5.67-2.35-9.74-3.28-14.91-4.46l-1.74-.4c-5.54-1.28-25.15-6.07-44.64-13.97-11.46-4.65-16.53-6.83-16.46-9.84.07-3.17,4.84-8.02,45.16-13.45l.2,1.46c-28.62,3.85-43.8,8.01-43.89,12.03-.04,1.93,4.46,3.95,15.54,8.45,19.38,7.86,38.9,12.63,44.42,13.9l1.74.4c5.02,1.15,9.36,2.14,15.14,4.54,12.27,5.1,19.15,10.25,18.4,13.79-.44,2.06-3.24,3.46-8.55,4.28h0l-.22-1.45Z" style="fill: #e1f4dc;"/>
  <path d="m94.07,169.57l-1.4-.44c.41-1.31.42-2.46.02-3.42-.65-1.56-2.23-2.16-4.23-2.92-1.24-.47-2.64-1-3.98-1.86-4.52-2.9-7.02-8.73-6.76-11.47.39-4.14,6.5-10.13,54.77-14.38l.13,1.46c-43.51,3.83-53.07,9.22-53.44,13.06-.19,1.98,1.79,7.33,6.09,10.09,1.2.77,2.47,1.26,3.7,1.72,2.15.81,4.17,1.58,5.07,3.73.53,1.28.54,2.77.02,4.42Z" style="fill: #c7edbe;"/>
  <polygon points="44.2 152.51 12.68 164.75 116.05 200.35 144.3 185.33 44.2 152.51" style="fill: #a7ce9d;"/>
  <polygon points="12.68 168.18 116.05 204.44 116.05 200.35 12.68 164.75 12.68 168.18" style="fill: #e1f4dc;"/>
  <polygon points="144.3 192.51 116.05 204.44 116.05 200.35 144.3 185.33 144.3 192.51" style="fill: #e1f4dc;"/>
  <path d="m161.87,215.46s12.44-2.92,20.34-10.14c1.26-1.15,2.01-2.8,1.86-4.5-.06-.72-.26-1.37-.72-1.69-1.32-.9-36.27,13.73-36.27,13.73,0,0,5.25,4.07,14.79,2.6Z" style="fill: #e1f4dc;"/>
  <path d="m182.84,197.66c2.49,5.53-4.6,3.8-12.39,10.48-7.22,6.19-24.28,8.3-28.93.76-3.18-5.16.36-9.07,9.72-13.28,9.36-4.2,29.11-3.49,31.6,2.04Z" style="fill: #a7ce9d;"/>
  <g>
    <polygon points="217.54 132.04 72.86 108.85 82.85 15.58 234.2 7.61 217.54 132.04" style="fill: #a7ce9d;"/>
    <polygon points="85.76 20.51 228.32 12.67 212.81 126.16 76.39 104.82 85.76 20.51" style="fill: #c7edbe;"/>
    <polygon points="215.91 147.39 71.88 119.96 72.86 108.85 217.54 132.04 215.91 147.39" style="fill: #a7ce9d;"/>
    <polygon points="215.91 147.39 219.34 146.36 236.65 8.75 234.2 7.61 217.54 132.04 215.91 147.39" style="fill: #e1f4dc;"/>
    <polygon points="132.43 131.49 132.43 141.43 102.09 152.37 155.74 166.01 184.64 153.43 162.92 148.75 162.96 137.31 132.43 131.49" style="fill: #92b588;"/>
    <polygon points="165.16 137.62 165.16 155.07 162.68 155.68 162.67 137.14 165.16 137.62" style="fill: #e1f4dc;"/>
  </g>
</svg>