<?xml version="1.0" encoding="UTF-8"?>
<svg id="Layer_1" data-name="Layer 1" xmlns="http://www.w3.org/2000/svg" xmlns:xlink="http://www.w3.org/1999/xlink" viewBox="0 0 249.33 223.38">
  <defs>
    <clipPath id="clippath">
      <rect x="62.54" y="26.15" width="124.25" height="171.09" transform="translate(-24.66 36.07) rotate(-15)" style="fill: none;"/>
    </clipPath>
  </defs>
  <g style="clip-path: url(#clippath);">
    <path d="m184.21,95.69c4.56,17.02,8.91,34.1,13.77,51.03,2.26,7.88.51,14.45-4.34,20.57-6.14,7.73-14.1,13.17-22.85,17.45-20.75,10.13-42.52,15.31-65.72,12.67-3.61-.41-7.22-1.35-10.68-2.5-8.31-2.78-13.61-8.03-15.92-17.02-8.67-33.65-17.68-67.21-26.97-100.7-2.4-8.65-.44-15.63,5.04-22.11,6.94-8.21,15.85-13.73,25.49-18.14,17.74-8.1,36.3-12.39,55.88-11.63,7.51.3,14.84,1.61,21.62,5.08,5.49,2.82,9.17,6.99,10.76,13.17,4.51,17.41,9.26,34.76,13.92,52.13h0Zm-67.83-15.17c13.91-3.73,24.61-8.26,34.65-16.15,4.6-3.61,8.75-8.2,11.92-13.11,3.48-5.39,1.87-11.01-3.75-14.17-4.38-2.46-9.38-4.61-14.31-5.16-28.54-3.21-54.59,3.79-77.68,20.86-3.98,2.94-7.22,7.33-9.77,11.66-3.24,5.5-1.69,11.12,3.94,14.15,4.53,2.43,9.66,4.27,14.73,5.04,13.59,2.09,27.06.69,40.26-3.13h0Zm-37.43,76.33c1.93,7.22,3.97,14.09,5.57,21.06,1.13,4.86,3.82,8.48,8.29,9.98,5.73,1.93,11.71,3.83,17.68,4.21,20.88,1.34,40.52-3.74,59.06-13.2,7.68-3.92,14.7-8.77,19.99-15.75,3.37-4.44,4.7-9.17,2.86-14.78-1.9-5.81-3.22-11.8-4.83-17.7-.23-.85-.64-1.65-.94-2.41-12.95,16.35-30.45,24.51-49.7,29.62-19.21,5.1-38.43,6.73-58-1.03h.01Zm-19.25-71.83c1.72,6.43,3.78,12.25,4.77,18.25,1.48,8.96,7.1,13.24,15.22,15.2,2.84.69,5.74,1.26,8.64,1.51,22.59,1.97,43.72-2.97,63.48-13.88,7.2-3.97,13.99-8.53,18.93-15.32,3.06-4.19,4.21-8.64,2.53-13.8-1.52-4.64-2.58-9.43-3.85-14.15-.58-2.16-1.15-4.3-1.87-6.98-16.45,25.25-74.86,44.01-107.86,29.17h0Zm117.5,7.06c-13.14,16.64-30.65,24.85-49.84,29.97-19.25,5.14-38.59,6.74-58.04-1.14,1.87,6.97,3.93,13.39,5.25,19.96,1.32,6.56,5.31,10.31,11.2,12.36,3.32,1.15,6.8,2.11,10.28,2.5,22.18,2.47,43.05-2.21,62.75-12.28,7.61-3.89,14.93-8.42,20.4-15.25,2.8-3.49,5.4-7.38,4.37-12.01-1.76-7.95-4.13-15.77-6.36-24.11Z" style="fill: #ffb36c;"/>
  </g>
</svg>