<?xml version="1.0" encoding="UTF-8"?>
<svg xmlns="http://www.w3.org/2000/svg" viewBox="0 0 1134.27 886.67">
  <g id="head">
    <g id="hair">
      <path id="hair_back" data-name="hair back" d="m874.71,636.26c-.4-1.27-.81-2.53-1.22-3.79-1.22-3.72-2.47-7.42-3.61-11.17-.43-1.4-.9-2.79-1.4-4.17-1.24-3.45-2.29-6.96-3.6-10.39-1.05-2.73-1.89-5.58-2.86-8.35-1.98-5.66-4.16-11.25-5.94-16.98-.86-2.77-5.57-100.71-6.51-121.06-.1-2.2-.4-4.39-.85-6.55-.45-2.18-.88-4.36-1.28-6.55-.59-3.25-1.16-6.5-1.58-9.77-.37-2.94-.86-5.86-1.16-8.81-.38-3.74-.87-7.48-1.21-11.23-.15-1.65-.04-3.33-.28-4.95-.62-4.21-.49-8.46-.9-12.67-.16-1.68-.17-3.37-.14-5.06-.03-1.46,0-2.93.04-4.39-1.68.37-56.28-63.79-100.18-63.79-55.85,0-101.12,43.36-101.12,96.85,0,2.87.14,5.71.39,8.52-.09.38-.16.76-.26,1.13-.09.35-.17.71-.25,1.06-.63,3.06-1.17,5.72-1.41,6.76-.04.19-.11.78-.2,1.7-.06,2.67,1,5.03.3,7.85-.94,3.8-.15,8.73-1.16,12.52-.86,3.23-9.25,116.4-10.49,120.2-1.45,4.46-3.01,8.9-4.69,13.29-.92,2.39-1.88,4.76-2.87,7.11s-2.03,4.69-3.09,7.01c-.57,1.24-1.18,2.47-1.83,3.68-.64,1.21-1.32,2.41-2,3.59-.69,1.19-1.37,2.38-2.09,3.55-.72,1.17-1.48,2.31-2.32,3.41-.05.06-.09.13-.13.19-.17.25-.33.5-.47.78-.17.35-.29.71-.37,1.1,2.35,2.02,4.66,4.09,6.76,6.37,1.37,1.48,2.93,2.7,4.62,3.78,4.15,2.64,27.08-2.66,29.1-2.47.17-.02,208.22,8.63,210.68,9.35.55-.07,1.1-.11,1.64-.2,2.13-.37,4.26-.76,6.39-1.13,2.96-.52,5.93-1.03,8.89-1.54-.44-1.59-.84-3.19-1.34-4.76Z" style="fill: #f1eab6;"/>
      <path d="m887.91,595.58c-1.56-12-18.82-186.75-18.96-189.03-.41-6.3-.39-12.61-.21-18.91.13-4.74.66-9.47,1.13-14.2.19-1.89.45-3.76.73-5.63,2.1-5.59,3.24-11.56,3.24-17.76,0-.64-.03-1.27-.06-1.91.14-.78.27-1.55.4-2.33.76-4.73,3.96-27.97-1.52-53.93-5.3-25.11-3.26-22.93-17.04-43.6-3.55-4.44-6.61-8.68-11.33-13.78-5.63-6.07-9.78-9.97-22.48-14.73-5.31-1.99-14.88-2.09-20.54-1.8-1.75.09-2.83-.28-4.02-1.4-.39-.37-1.45-.75-2.89-1.12.04-.1.08-.18.08-.18-2.74-1.77-5.81-3.01-8.9-4.18-4.46-1.7-9.05-3.13-13.73-4.3-7.15-1.79-14.29-3.57-21.57-4.88-5.44-.98-10.93-1.71-16.47-2.15-1.45-.11-2.97.11-4.38-.39h-11.27c-.3.3-.71.22-1.08.21-2.35-.08-4.68.25-6.98.52-7.07.85-14.01,2.23-20.83,4.13-6.8,1.89-13.31,4.34-19.55,7.31-5.26,2.51-10.31,5.33-15.11,8.48-4.46,2.92-8.82,5.97-12.81,9.37-18.11,14.2-32.52,59.65-26.24,75.58-.24,1.6-.47,3.19-.73,4.79-.45,2.8-.95,5.59-1.37,8.4-.42,2.8-.78,5.62-1.17,8.43-.47,3.36-.95,6.71-1.41,10.06-.48,3.48-.96,6.96-1.41,10.45-.41,3.15-.78,6.31-1.15,9.46-.3,2.57-.46,5.16-.85,7.71-.61,3.94-.81,7.92-1.19,11.89-.24,2.53-.23,5.1-.58,7.61-.56,4.13-.58,8.29-.89,12.44-.33,4.41-.89,8.76-1.82,13.08-1.01,4.71-11.24,202.87-13.39,206.52,5.73,2.76,11.31,5.78,16.31,9.75.6.47,1.26.87,1.89,1.3.07-.38.2-.75.37-1.1.13-.28.29-.53.47-.78.04-.06.09-.13.13-.19.84-1.09,1.6-2.24,2.32-3.41.72-1.17,1.41-2.36,2.09-3.55.68-1.19,1.36-2.38,2-3.59.64-1.21,1.26-2.44,1.83-3.68,1.06-2.33,2.1-4.66,3.09-7.01,1-2.35,1.96-4.72,2.87-7.11,1.68-4.39,3.24-8.82,4.69-13.29,1.24-3.81,9.63-116.97,10.49-120.2,1.01-3.78.22-8.72,1.16-12.52.69-2.82-.36-5.18-.3-7.85.01-.55.07-1.12.2-1.7.51-2.24.89-4.52,1.41-6.76.08-.35.16-.71.25-1.06.96-3.77,1.47-7.63,2.39-11.41,0,0,0,0,0,0,.02-.09.04-.19.06-.28.47-2.03.73-4.14,1.1-6.21.18-1,.37-2,.56-2.99.58-2.99,1.2-5.97,1.66-8.98.44-2.91.96-5.8,1.44-8.7,1.57.8,3.19,1.53,4.84,2.21-.47-1.9-.91-3.8-1.34-5.7-.53-2.34-.65-4.77-1.51-7.04.02-.57-.07-.94-.38-1-.06-.01-.13-.01-.21,0-.16.03-.36.11-.6.25-.56.32-1.13.58-1.7.78.61-.35,1.16-.77,1.53-1.11.1-.09.2-.18.29-.29,8.19-9.17,17.43-22.46,12.97-38.1-2-7-5.33-13.36-9.38-18.11.8.16,4-.06,8.21-.45.09-.67.35-1.37.82-2.07,4.66-6.89,9.9-13.31,14.5-20.24,4.09-6.15,8.5-12.13,14.33-16.73,2.01-1.58,4.13-2.98,6.33-4.23.21-.21.44-.41.7-.59,7.17-5.06,14.6-9.68,22.62-13.14,2.58-1.53,5.26-2.87,8.03-4.05,5.54-5.34,25.14-11.48,30.37-13.51,3.85-1.49,7.7-2.97,11.42-4.77.95-.46,1.43-.24,1.87.7.53,1.12,1.04,2.26,1.64,3.35,3.8,6.93,7.47,7.08,11.51,13.56,1.22,2.1,2.43,4.2,3.57,6.34.1.18.19.36.29.53.22.41.46.8.69,1.21.18.31.35.62.53.92.3.5.6.99.9,1.48.16.26.32.53.48.79.38.61.77,1.21,1.15,1.82.56.88,1.11,1.75,1.66,2.63,1.39,2.23,2.84,4.43,4.3,6.61,1.46,2.18,2.94,4.36,4.41,6.54,1.17,1.75,2.4,3.45,3.67,5.12,1.26,1.68,2.55,3.33,3.89,4.94.89,1.08,1.8,2.15,2.71,3.2,1.72,1.98,3.52,3.88,5.44,5.64.96.88,1.95,1.73,2.97,2.54,1.02.81,2.07,1.58,3.17,2.31,1.9,1.27,3.89,2.41,5.93,3.45.68.35,1.37.68,2.06,1.01,2.26,1.07,4.55,2.07,6.8,3.17.36.18.74.32,1.11.43.73.22,1.47.29,2.2.23-.17.04-.34.07-.52.11-.91.2-2.12-.77-3.03-.42-8.32,3.16-15.88,13.44-19.37,25.68-4.46,15.64,4.78,28.93,12.97,38.1-.3,1.1-.7,2.06-.81,3.05-.38,3.57-1.56,6.94-2.57,10.34-.24.82-.51,1.64-.78,2.45,4.69-1.36,9.15-3.16,13.3-5.35.02.24.03.49.05.73.41,4.22.28,8.47.9,12.67.24,1.63.14,3.3.28,4.95.33,3.75.83,7.48,1.21,11.23.3,2.95.79,5.87,1.16,8.81.41,3.27.99,6.52,1.58,9.77.4,2.19.82,4.37,1.28,6.55.45,2.16.75,4.35.85,6.55.94,20.35,5.65,118.29,6.51,121.06,1.78,5.73,3.96,11.32,5.94,16.98.97,2.78,1.81,5.62,2.86,8.35,1.32,3.43,2.36,6.94,3.6,10.39.5,1.38.97,2.77,1.4,4.17,1.14,3.74,2.39,7.45,3.61,11.17.41,1.25.82,2.51,1.22,3.77.5,1.55.89,3.14,1.34,4.71,3.25-.2,6.48-.56,9.71-.98.18-.02.38-.04.56-.04,3.38-.09,3.06-.22,6.46-.32.56-6.02-2.66-36.13-4.67-44.02Z" style="fill: #f4f0ca;"/>
      <path id="back_head" data-name="back head" d="m836.78,358.79c0,10.26,0,20.43-2.6,29.78-9.03,32.66-27.94,61.01-47.39,82.68-10.98,12.23-28.55,15.09-44.73,15.09-20.93,0-41.57-7.94-55.95-24.63-16.01-18.58-30.26-48.32-37.23-78.85-1.97-8.63-1.53-14.77-1.53-24.08,0-11.49,1.13-22.63,3.24-33.22,10.86-54.34,47.7-94.33,91.47-94.33,44.43,0,88.56,38.09,98.78,93.67,1.81,9.86-4.06,23.28-4.06,33.89Z" style="fill: #f2d0a4;"/>
    </g>
    <g id="right_ear" data-name="right ear">
      <path d="m860.93,340.13c-.09-.47-.19-.93-.3-1.39-.17-.73-.36-1.45-.59-2.16-.74-2.32-1.77-4.54-3.19-6.64-.33-.49-.7-.95-1.1-1.39-.59-.65-1.26-1.24-1.98-1.76-1.09-.77-2.31-1.38-3.66-1.82-.08-.02-.15-.05-.23-.07-.17-.05-.33-.09-.5-.12-.14-.03-.28-.06-.42-.09-1.38-.23-2.78-.13-4.2.11-.18.04-.37.07-.55.12-.37.11-.74.18-1.11.21-.02,0-.04,0-.05,0-.17.04-.34.07-.52.11-.91.2-2.12-.77-3.03-.42-8.32,3.16-15.88,13.44-19.37,25.68-4.46,15.64,4.78,28.93,12.97,38.1.1.1.19.19.29.29.54.49,1.48,1.19,2.4,1.55.17.06.33.12.5.16.54.13,1.08.21,1.62.25,1.22.06,2.47-.12,3.74-.38.36-.1.71-.22,1.06-.35.19-.09.39-.18.58-.28.68-.32,1.36-.65,2-1.03.13-.08.26-.17.39-.25.21-.14.43-.27.63-.43.02-.01.04-.03.05-.04.66-.52,1.29-1.06,1.9-1.61.2-.18.39-.38.58-.57.4-.39.8-.79,1.18-1.2.21-.23.41-.47.62-.7.29-.34.58-.69.85-1.04,4.15-5.41,7.43-13.12,8.91-21.67,1.28-7.4,1.61-14.88.51-21.16Zm-9.07,10.29c-.06,0-2.72-.47-5.51-.12-.89.11-.64.05-1.79.56-.14.06-1.17.52-1.5.62-.83.24-1.67.21-1.93.21-.11,0-.22-.02-.32-.08-.35-.18-.49-.61-.32-.97.09-.19.19-.36.28-.51.47-.79,1.23-1.37,2.11-1.64l.65-.2c2.94-.74,8.22.67,8.48.7.39.04.67.4.63.8-.04.4-.39.68-.79.64Z" style="fill: #f2d0a4;"/>
      <path d="m840.81,351.61c.1.05.21.08.32.08.26,0,1.1.03,1.93-.21.32-.09,1.36-.56,1.5-.62,1.15-.51.9-.45,1.79-.56,2.79-.34,5.46.12,5.51.12.4.04.74-.24.79-.64.04-.4-.24-.75-.63-.8-.27-.03-5.55-1.44-8.48-.7l-.65.2c-.88.27-1.64.85-2.11,1.64-.09.15-.18.32-.28.51-.18.36-.03.79.32.97Z" style="fill: #e2b486;"/>
    </g>
    <g id="left_ear" data-name="left ear">
      <path d="m645.95,348.74l-1.34-.45c-4.13-1.03-11.85.31-12.22.35-.55.06-.94.56-.88,1.1.06.55.55.94,1.1.88.08,0,5.16-.34,9.08.14,1.25.15,1.44.42,3.06,1.13.19.08.93.92,1.15,1.07,1.01.67,2.23.67,2.6.67.15,0,.3-.03.45-.11.49-.25.69-.85.45-1.34-1.14-2.27-3.35-3.4-3.45-3.45Z" style="fill: #e2b486;"/>
      <path d="m662.13,344.48c-2-7-5.33-13.36-9.38-18.11-3.02-3.56-6.44-6.22-10-7.57-.91-.34-2.12.62-3.03.42-.17-.04-.34-.07-.52-.11-.02,0-.04,0-.05,0-.37-.03-.75-.1-1.11-.21-.18-.05-.37-.08-.55-.12-1.42-.24-2.82-.34-4.2-.11-.14.03-.28.06-.42.09-.17.04-.33.07-.5.12-.08.02-.15.05-.23.07-1.35.43-2.57,1.04-3.66,1.82-.72.52-1.38,1.11-1.98,1.76-.4.44-.77.91-1.1,1.39-1.43,2.1-2.46,4.32-3.19,6.64-.23.71-.42,1.43-.59,2.16-.11.46-.21.92-.3,1.39-.28,1.58-.46,3.24-.57,4.96-.29,4.85.09,10.14.95,15.41.13.66.27,1.33.43,1.98.14.58.29,1.15.44,1.72.26.97.55,1.93.85,2.88.23.74.47,1.48.71,2.22.05.14.1.27.14.41.26.76.54,1.52.84,2.27.12.3.24.59.36.89.36.86.75,1.72,1.16,2.56.24.49.5.98.76,1.47.79,1.45,1.66,2.87,2.62,4.23.9,1.28,1.84,2.51,2.87,3.64.69.75,1.41,1.47,2.19,2.12,1.17.98,2.46,1.82,3.92,2.48.71.32,1.43.57,2.14.77.54.15,1.09.28,1.63.35,1.52.2,3.04.06,4.55-.48.61-.35,1.16-.77,1.53-1.11.1-.09.2-.18.29-.29,8.19-9.17,17.43-22.46,12.97-38.1Zm-13.18,9.05c-.14.07-.3.11-.45.11-.37,0-1.58,0-2.6-.67-.23-.15-.96-.99-1.15-1.07-1.61-.71-1.81-.98-3.06-1.13-3.92-.48-9.01-.15-9.08-.14-.55.05-1.04-.33-1.1-.88-.06-.55.33-1.04.88-1.1.38-.04,8.1-1.38,12.22-.35l1.34.45c.09.05,2.31,1.18,3.45,3.45.25.49.05,1.09-.45,1.34Z" style="fill: #f2d0a4;"/>
    </g>
  </g>
  <g id="shirt">
    <path id="innershirt" d="m842.98,666.97h-203.97c.09-.47-.19-.84-.35-1.23-2.54-6.23-3.93-12.66-3.87-19.42.09-11.37.03-22.73.03-34.1,0-24.78,0-49.56-.01-74.34,3.76-1.42,7.52-2.84,11.29-4.26.17-.02.35,0,.51-.06,4.07-1.38,8.12-2.78,12.19-4.15,11.84-4,23.84-7.47,35.91-10.7,1.03.1,92.41,4.57,91.84-.16.5.12,3.08.4,3.57.54,1.93.56,3.85,1.13,5.78,1.7.52.43,2.51.84,3.12,1.03,4.88,1.51,8.45,2.64,13.33,4.14,3.6,1.11,7.19,1.72,10.78,2.85.28.11,1.8.36,2.09.45,7.34,2.47,13.4,4.43,20.64,7.17,1.12.43,1.58.93,1.58,2.22-.04,35.85-.04,72.75-.03,108.6,0,2.44-.27,4.86-.66,7.27-.7,4.32-2.09,8.43-3.76,12.46Z" style="fill: #fff;"/>
    <path id="neck_shadow" data-name="neck shadow" d="m696.04,422.28s-.42,47.72-.41,47.74c.39,1.17.59,2.98.68,5.14.14,3.2.06,7.16,0,10.99,33.22,21.73,62.1,24.05,88.83,2.32,0-.22.02-.44.03-.66.13-2.92.29-5.68.49-8.19.19-2.37.41-4.52.68-6.36.11-.75.23-1.47.36-2.11.01-.07.02-48.8.04-48.87-29.97,18.77-60.73,18.77-90.71,0Z" style="fill: #f0caa3;"/>
  </g>
  <g id="face">
    <path id="head-2" data-name="head" d="m820.12,350.51c3.49-12.24,11.06-22.52,19.37-25.68.91-.34,2.12.62,3.03.42.17-.04.34-.07.52-.11-.73.06-1.47-.02-2.2-.23-.37-.11-.74-.26-1.11-.43-2.24-1.1-4.54-2.1-6.8-3.17-.69-.33-1.38-.66-2.06-1.01-2.04-1.04-4.03-2.18-5.93-3.45-1.09-.73-2.14-1.5-3.17-2.31-1.02-.81-2.01-1.66-2.97-2.54-1.92-1.76-3.72-3.65-5.44-5.64-.92-1.06-1.82-2.13-2.71-3.2-1.34-1.62-2.63-3.27-3.89-4.94-1.26-1.68-2.5-3.37-3.67-5.12-1.46-2.19-2.94-4.36-4.41-6.54-1.46-2.18-2.91-4.38-4.3-6.61-.55-.88-1.11-1.76-1.66-2.63-.39-.61-.77-1.21-1.15-1.82-.16-.26-.32-.53-.48-.79-.3-.49-.61-.98-.9-1.48-.18-.3-.35-.62-.53-.92-.23-.4-.47-.8-.69-1.21-.1-.18-.19-.36-.29-.53-1.15-2.14-2.36-4.24-3.57-6.34-4.04-6.48-7.7-6.63-11.51-13.56-.6-1.09-1.11-2.22-1.64-3.35-.44-.94-.92-1.17-1.87-.7-3.71,1.8-7.57,3.28-11.42,4.77-5.5,2.13-26.86,8.8-31.11,14.31-.81,1.05-1.59,2.13-2.34,3.22-2.26,3.27-4.28,6.7-6.22,10.19-1.36,2.45-2.68,4.93-3.96,7.42-1.29,2.49-2.55,4.99-3.82,7.49-.84,1.65-1.69,3.3-2.56,4.93-1.3,2.45-2.66,4.86-4.11,7.22s-2.99,4.67-4.66,6.89c-.84,1.12-1.73,2.19-2.66,3.21-1.16,1.23-2.27,2.3-4.48,4.21-.85.68-1.73,1.33-2.65,1.94-.54.36-1.09.7-1.66,1.03-1.32.76-2.67,1.42-4.06,1.97-4.16,1.66-8.59,2.4-13.14,2.49-.52,0-1.04,0-1.57,0-.03,0-.05.02-.03.01-6.39.79-14-.94-16.9-1.5,4.04,4.75,7.38,11.11,9.38,18.11,4.46,15.64-4.78,28.93-12.97,38.1-.1.1-.19.19-.29.29-.37.34-.92.76-1.53,1.11.57-.2,1.13-.46,1.7-.78.24-.14.44-.22.6-.25.08-.01.15-.01.21,0,.31.06.4.43.38,1,.86,2.27.98,4.7,1.51,7.04,1.58,6.99,3.32,13.92,5.75,20.69,1.18,3.3,2.43,6.57,3.78,9.8,1.36,3.28,2.9,6.47,4.55,9.63,1.9,3.64,3.91,7.22,6.03,10.74,2.28,3.78,4.88,7.35,7.57,10.85,3.52,4.59,7.27,8.99,11.46,12.99,1.23,1.17,2.56,2.23,3.85,3.33.36.31.65.64.89,1,0-.02-.01-.05-.02-.07,29.97,18.77,61.16,19.76,91.14.99-.01.06-.02.14-.04.21.45-1.13,1.48-1.89,2.26-2.77,3.86-4.3,7.61-8.66,11.08-13.29,2.29-3.06,4.62-6.08,6.79-9.23,2.38-3.45,4.66-6.97,6.85-10.55,1.68-2.75,3.34-5.5,4.87-8.33,1.72-3.17,3.49-6.31,5-9.58,2.31-5.03,4.6-10.09,6.17-15.41,1-3.4,2.19-6.77,2.57-10.34.1-.99.5-1.94.81-3.05-8.19-9.17-17.43-22.46-12.97-38.1Z" style="fill: #f2d0a4;"/>
    <path id="right_eyebrow" data-name="right eyebrow" d="m769.57,323.73c.28,0,.56-.06.84-.17,14.86-6.45,27.65-1.05,27.78-.99,1.06.46,2.3-.02,2.77-1.09.46-1.06-.02-2.3-1.08-2.77-.59-.26-14.53-6.22-31.14.98-1.07.46-1.56,1.7-1.09,2.77.34.79,1.12,1.27,1.93,1.27Z" style="fill: #b2926f;"/>
    <path id="nose" d="m730.79,394.81c12.69,5.2,23.34.9,23.79.71.81-.34,1.18-1.23.82-2-.35-.77-1.3-1.12-2.11-.78-.1.04-9.87,3.93-21.22-.72-.21-.08-.43-.13-.64-.13-.62,0-1.21.34-1.48.91-.35.77.02,1.66.83,2Z" style="fill: #e2b486;"/>
    <path id="mouth" d="m710.42,430.1c.37.3,9.33,7.31,24.64,8.74,2.22.21,4.39.3,6.49.3,12.21,0,21.7-3.02,22.17-3.17.79-.25,1.22-1.1.96-1.89s-1.1-1.22-1.89-.97c-.13.04-12.92,4.09-27.45,2.74-14.37-1.34-22.97-8.03-23.05-8.1-.65-.51-1.59-.41-2.11.24-.52.65-.41,1.59.24,2.11Z" style="fill: #b2926f;"/>
    <g id="eyeGroup">
      <ellipse id="left_eye" data-name="left eye" cx="695.23" cy="358.79" rx="11.22" ry="14.73" style="fill: #2b343b;"/>
      <ellipse id="right_eye" data-name="right eye" cx="786.4" cy="358.79" rx="11.22" ry="14.73" style="fill: #2b343b;"/>
    </g>
    <g id="eyeGroupClosed">
      <g id="left_eye_closed" data-name="left eye closed">
        <path d="m695.23,365.12c-6.29,0-11.22-1.76-11.22-6.32,0-.83.59-1.5,1.32-1.5s1.32.67,1.32,1.5c0,2.79,3.93,3.32,8.57,3.32s8.57-.53,8.57-3.32c0-.83.59-1.5,1.32-1.5s1.32.67,1.32,1.5c0,4.57-4.93,6.32-11.22,6.32Z" style="fill: #2b343b;"/>
      </g>
      <g id="right_eye_closed" data-name="right eye closed">
        <path d="m786.4,365.44c-6.29,0-11.22-2.08-11.22-6.64,0-.83.59-1.5,1.32-1.5s1.32.67,1.32,1.5c0,2.79,3.93,3.64,8.57,3.64s8.57-.86,8.57-3.64c0-.83.59-1.5,1.32-1.5s1.32.67,1.32,1.5c0,4.57-4.93,6.64-11.22,6.64Z" style="fill: #2b343b;"/>
      </g>
    </g>
    <path id="left_eyebrow" data-name="left eyebrow" d="m710.35,323.73c-.28,0-.56-.06-.84-.17-14.86-6.45-27.65-1.05-27.78-.99-1.06.46-2.3-.02-2.77-1.09-.46-1.06.02-2.3,1.08-2.77.59-.26,14.53-6.22,31.14.98,1.07.46,1.56,1.7,1.09,2.77-.34.79-1.12,1.27-1.93,1.27Z" style="fill: #b2926f;"/>
    <path id="bangs" d="m872.65,291.89c-5.3-25.11-3.26-22.93-17.04-43.6-3.55-4.44-6.61-8.68-11.33-13.78-5.63-6.07-9.78-9.97-22.48-14.73-5.31-1.99-14.88-2.09-20.54-1.8-1.75.09-2.83-.28-4.02-1.4-.39-.37-1.45-.75-2.89-1.12.04-.1.08-.18.08-.18-2.74-1.77-5.81-3.01-8.9-4.18-4.46-1.7-9.05-3.13-13.73-4.3-7.15-1.79-14.29-3.57-21.57-4.88-5.44-.98-10.93-1.71-16.47-2.15-1.45-.11-2.97.11-4.38-.39h-11.27c-.3.3-.71.22-1.08.21-2.35-.08-4.68.25-6.98.52-7.07.85-14.01,2.23-20.83,4.13-6.8,1.89-13.31,4.34-19.55,7.31-5.26,2.51-10.31,5.33-15.11,8.48-4.46,2.92-8.82,5.97-12.81,9.37l9.08,94.9c2.9.56,12.24,4.36,18.62,3.58-.02,0,0,0,.03-.01.52,0,1.04.01,1.57,0,4.56-.09,8.99-.83,13.14-2.49,1.39-.55,2.74-1.21,4.06-1.97.56-.33,1.12-.67,1.66-1.03.92-.6,1.79-1.26,2.65-1.94,2.21-1.9,3.32-2.98,4.48-4.21.93-1.02,1.82-2.09,2.66-3.21,1.68-2.23,3.22-4.53,4.66-6.89s2.8-4.78,4.11-7.22c.87-1.63,1.72-3.28,2.56-4.93,1.27-2.5,2.53-5,3.82-7.49,1.29-2.49,2.6-4.97,3.96-7.42,1.94-3.48,3.96-6.91,6.22-10.19.75-1.09,1.53-2.16,2.34-3.22,4.25-5.52,25.61-12.18,31.11-14.31,3.85-1.49,7.7-2.97,11.42-4.77.95-.46,1.43-.24,1.87.7.53,1.12,1.04,2.26,1.64,3.35,3.8,6.93,7.47,7.08,11.51,13.56,1.22,2.1,2.43,4.2,3.57,6.34.1.18.19.36.29.53.22.41.46.8.69,1.21.18.31.35.62.53.92.3.5.6.99.9,1.48.16.26.32.53.48.79.38.61.77,1.21,1.15,1.82.56.88,1.11,1.75,1.66,2.63,1.39,2.23,2.84,4.43,4.3,6.61,1.46,2.18,2.94,4.36,4.41,6.54,1.17,1.75,2.4,3.45,3.67,5.12,1.26,1.68,2.55,3.33,3.89,4.94.89,1.08,1.8,2.15,2.71,3.2,1.72,1.98,3.52,3.88,5.44,5.64.96.88,1.95,1.73,2.97,2.54,1.02.81,2.07,1.58,3.17,2.31,1.9,1.27,3.89,2.41,5.93,3.45.68.35,1.37.68,2.06,1.01,2.26,1.07,4.55,2.07,6.8,3.17.36.18.74.32,1.11.43" style="fill: #f4f0ca;"/>
  </g>
  <g id="body">
    <path id="neck" d="m787.66,533.45c.22-4.33-.46-9-.67-7.43-.36-1.98-.82-3.95-1.05-5.94-.63-5.52-1.08-11.06-1.1-16.63-.01-4.54.07-9.07.27-13.6.03-.68.05-1.36.08-2.03-.01.22-.02.44-.03.66-26.73,21.73-55.62,19.41-88.83-2.32.05-3.83.13-7.79,0-10.99-.02,3.76-.01,7.53,0,11.29,0,.43,0,.86,0,1.3,0,10.35,0,20.71,0,31.06,0,.23,0,.45,0,.68-.02.32-.07.64-.26.94.1,0,.18.03.26.05.69.2.49.88.49,1.41.01,7.25,0,14.5.01,21.76,0,2.6.41,5.17.91,7.71,1.33,6.66,3.53,13.04,6.35,19.22,4.51,9.88,10.15,18.97,18.21,26.41,3.12,2.87,6.53,5.28,10.46,6.96,7.44,3.17,14.57,2.44,21.54-1.46,4.32-2.43,7.94-5.68,11.26-9.3,2.3-2.51,4.39-5.19,6.3-8.01,4.43-6.55,7.98-13.56,10.78-20.97.44-1.16.85-2.33,1.24-3.51,1.52-4.56,2.68-9.2,3.3-13.98.57-4.39.28-8.84.51-13.26Z" style="fill: #f2d0a4;"/>
    <g id="clothes">
      <g>
        <path d="m926.66,812.51c-3.71.01-7.42.02-11.13.03,9.37-5.51,15.27-12.72,16.98-24.31,1.95-13.28-9.64-30.63-23.06-31.19-2.65-.11-45.93-.15-48.41-1.12.05-.29-152.91-159.92-155.75-162.84,13.63-2.44,120.49-35.02,135.03-59.89,8.51,3.7,58.15,8.4,72.98,29.29,26.49,37.31,27.12,100.41,28.72,113.12,3.16,25.03,4.2,50.09,4.25,75.26.02,12.55-4.29,24.06-8,35.72-2.88,9.06-5.97,18.07-11.6,25.92Z" style="fill: #2e4bf5;"/>
        <path d="m660.35,528.22c1.33-.31,2.67-.62,4-.93,23.67,30.08,54.16,49.46,91.34,58.45,6.56,1.59,13.16,2.7,19.89,3.03-1.24,1.61-3.01,1.06-4.59,1.06-57.22.03-186.85,175.93-188.19,177.44-3.13.04-17.88-10.21-21.01-10.14-17.24.39-30.15,17.61-25.4,35.23,2.52,9.33,8.45,15.82,16.91,20.19-4.58.01-9.16.02-13.73.03-7.34-11.42-12.16-23.85-15.12-37.07-.75-3.35-1.51-6.8-2.94-9.89-2.28-4.92-1.76-10-1.82-15.1-.21-18.48.14-36.97,2.1-55.34,2.81-26.28,6.18-52.5,13.3-78.05,2.26-8.11,4.16-16.3,6.76-24.34,1.34-4.14.63-8.98,2.59-13.41,2.85-6.44,7.39-11.32,12.71-15.53,10.28-8.14,22.16-13.35,34.38-17.81,20.98-7.66,42.77-12.19,64.6-16.53,1.44-.29,2.82-.84,4.23-1.27Z" style="fill: #2e4bf5;"/>
        <path d="m571.19,756.99c5.34.72,3.32,2.92,3.34,4.63.08,7.38-2.36,15.2-2.26,22.57.12,8.62,5.08,14.85,10.54,20.79-4.23,1-8.48,1.98-7.43,7.92-7.36-.13-14.71-.25-22.07-.38-8.46-4.37-14.39-10.86-16.91-20.19-4.75-17.62,8.16-34.83,25.4-35.23,3.13-.07,6.26-.08,9.4-.12Z" style="fill: #2e4bf5;"/>
        <path d="m898.18,812.88c.9-5.69-3.22-6.88-7.27-8.15,9.52-7.08,10.89-17.11,10.38-27.98-.32-6.88-.11-13.78-.14-20.67.22.02.43-.03.61-.16,2.48.97,5.04,1.01,7.69,1.12,13.42.56,25.02,17.91,23.06,31.19-1.71,11.59-7.61,18.8-16.98,24.31-5.78.11-11.57.22-17.35.33Z" style="fill: #2e4bf5;"/>
      </g>
    </g>
  </g>
  <g id="table">
    <g id="computer">
      <path d="m901.87,614.94c.01,45.04.02,90.07.03,135.1,0,.88,0,1.77,0,2.66,0,.77,0,1.55,0,2.32-.18.24-.28.51-.32.81.03,6.89-.18,13.79.14,20.67.51,10.87-.86,20.9-10.38,27.98-1.13.62-3.48-.76-3.3,2.01-7.72,2.26-15.64,1.96-23.56,1.96-86.64-.02-173.28-.03-259.92.02-6.12,0-12.18-.03-18.07-1.95-.73-1.23-2-1.48-3.25-1.79-5.46-5.95-10.42-12.18-10.54-20.8-.1-7.38.01-14.76-.06-22.14-.02-1.72.68-3.66-1.02-5.07,1.34-1.51,1.08-3.35,1.08-5.14-.02-44.85-.03-89.71-.08-134.56-.02-16.31,10.9-27.43,27.14-27.44,57.22-.01,114.44,0,171.66-.03,1.05,0,1.58.02,3.2-.07,2.86.04,63.81-.45,92.13-.15,5.03.05,9.51-.16,15.11.17,1.15.07,3.41.25,5.32.8,1.08.31,2.57.85,5.62,3.75,2.76,2.61,3.9,4.72,3.96,4.79,3.13,3.92,4.16,8.84,4.95,13.93.04.6.12,1.57.16,2.17Z" style="fill: #474b4d;"/>
      <path d="m901.44,615.45c.01,45.04.02,90.07.03,135.1,0,.88,0,1.77,0,2.66,0,.77,0,1.55,0,2.32-.18.24-.28.51-.32.81.03,6.89-.18,13.79.14,20.67.51,10.87-.86,20.9-10.38,27.98-1.13.62-3.48-.76-3.3,2.01-7.72,2.26-15.64,1.96-23.56,1.96-86.64-.02-173.28-.03-259.92.02-6.12,0-12.18-.03-18.07-1.95-2.49-.16-7.32-5.55-8.1-7.01-17.99-21.84-.9-87.84,158.8-98.09,107.15-2.41,91.6-123.99,155-106.3,6.42,4.7,8.57,11.12,9.62,18.35.02.49.04.99.06,1.48Z" style="fill: #595959;"/>
      <path d="m887.61,806.74c-5.16,3.69-10.9,5.69-17.26,5.69-45.34.02-90.68.02-136.02.02-43.64,0-87.29-.01-130.93,0-6.42,0-12.28-1.6-17.34-5.68,5.87-2.05,12.08-1.02,18.2-1.02,86.64-.05,173.15,2.93,259.79,2.95,7.92,0,15.84.3,23.56-1.96Z" style="fill: #303435;"/>
      <path d="m575.37,812.91c-1.04-5.94,3.21-6.92,7.43-7.92,1.25.31,2.52.56,3.25,1.79,5.07,4.08,10.92,5.68,17.34,5.68,43.64-.02,87.29,0,130.93,0,45.34,0,90.68,0,136.02-.02,6.35,0,12.1-2,17.26-5.69-.18-2.77,2.17-1.39,3.3-2.01,4.05,1.26,8.18,2.46,7.27,8.15.07,5.98-4.44,6.36-8.53,6.46-9.89.25-19.79.12-29.68.12-90.53,0-181.06,0-271.59-.03-3.26,0-6.54.39-9.7-1.17-2.38-1.18-3.67-2.66-3.32-5.35Z" style="fill: #474b4d;"/>
    </g>
    <path id="table-2" data-name="table" d="m212.05,812.56c7.76-.01,15.51-.02,23.27-.03,12.47.13,603.97.13,613.76.02,6.29-.01,12.57-.02,18.86-.03,44.46.05,88.91.11,133.37.16,10.72.01,11.07.37,8.69,6.36-2.08,5.24-6.75,9.37-14.25,12.32-3.63,1.42-5.39,2.84-4.32,5.65,1.61,4.25-3.3,6.18-9.31,7.12-2.63.41-5.56.17-8.35.17-249.98-.02-499.95-.06-749.93-.08-21.81,0-43.62.09-65.43.11-15.53.01-31.07.04-46.6-.09-9.5-.08-13.65-2.87-12.54-8.43.48-2.41-.61-3.49-4.2-5.03-8.32-3.57-13.35-8.59-14.45-14.97-.48-2.79,1.19-3.12,4.77-3.12,8.11,0,16.22,0,24.33-.01,34.11-.03,68.22-.07,102.33-.1Z" style="fill: #a2785b;"/>
    <g id="coffee">
      <path d="m374.33,798.11c-.19-10.62-.05-21.24-.07-31.86,0-1.64.01-3.27-.13-4.92-.19-2.18-.04-4.39-.19-6.59-.12-1.66,0-3.35-.25-5-.17-1.12-.12-2.3-.83-3.32-1.04-1.49-2.61-2.16-4.19-2.77-2.86-1.09-5.86-1.62-8.88-2.09-2.47-.39-4.97-.53-7.44-.87-2.16-.3-4.37-.34-6.55-.34-3.24,0-6.46-.39-9.73-.13-3.13.25-6.29.28-9.43.45-1.47.08-2.94.17-4.38.41-2.25.37-4.52.58-6.75,1.06-2.69.57-5.36,1.17-7.84,2.42-1.5.75-2.85,1.77-3.23,3.42-.36,1.53-.53,3.16-.41,4.76.05.69-.3,1.32-.21,2.01.05.42-.31.28-.53.3-.79.06-1.59.06-2.39.16-3.29.38-6.35,1.32-9.22,3.01-3.5,2.06-6.18,4.88-8.04,8.46-2.29,4.39-2.99,9.03-2.07,13.93.95,5.01,3.43,9.16,7.26,12.41,4.12,3.49,8.99,5.21,14.42,5.21.6,0,.78.14.77.76-.04,2.9-.02,5.79-.02,8.69,0,2.65.03,5.29,0,7.94-.03,1.98.92,3.27,2.62,4.14,2.75,1.4,5.78,1.7,8.75,2.19,2.97.5,5.97.87,8.97,1.19,2.96.32,5.93.5,8.9.65,2.68.14,5.38.12,8.08-.09,2.59-.21,5.2-.03,7.8-.21,2.4-.16,4.8-.19,7.2-.38,2.98-.23,5.94-.57,8.87-1.14,2.36-.47,4.72-.99,6.87-2.17,1.58-.87,2.45-2.11,2.41-3.98-.13-5.9-.04-11.8-.14-17.71Zm-70.34-7.83c.01,1.14-.54,1.63-1.71,1.4-1.29-.26-2.6-.49-3.84-.98-4.32-1.69-7.54-4.56-9.41-8.84-1.1-2.51-1.34-5.12-.95-7.85.53-3.75,2.3-6.8,5.06-9.26,2.31-2.07,5.01-3.49,8.15-3.89.12-.01.22-.1.34-.12,1.79-.45,2.18-.14,2.18,1.68,0,3.58,0,7.16,0,10.74,0,3.83-.09,7.66.04,11.48.06,1.88.12,3.77.14,5.65Zm.64,24.74c-.05.29-.07.56-.07.81,0-.26.02-.53.07-.81,0-.23,0-.45,0-.68.15.23.16.45,0,.68Zm3.63.93c-.02.19-.15.37-.37.34-.27-.04-.42-.25-.51-.49-.37-1.05-.62-2.14-.77-3.25-.5-3.68-.79-7.38-.98-11.09-.06-1.08-.07-2.17-.15-3.25-.25-3.7-.17-7.4-.19-11.1,0-2.65.13-5.3-.02-7.94-.32-5.41-.21-10.83-.09-16.24.06-2.49-.27-5.04.48-7.5.12-.38.16-.91.66-.88.45.03.45.52.47.89.16,2.68.49,5.35.23,8.06-.21,2.22.02,4.48-.06,6.72-.27,6.97-.2,13.94-.15,20.91.03,4.06.32,8.11.71,12.15.24,2.46.31,4.95.61,7.4.14,1.11,0,2.23.31,3.32.18.65-.12,1.29-.19,1.93Zm39.84-62.95c-.09,0-.19,0-.28,0-4.23.06-8.46.39-12.68.16-3.74-.21-7.48-.27-11.22-.67-3.7-.4-7.37-.81-10.98-1.73-1.15-.29-2.25-.7-3.32-1.2-.45-.21-.89-.46-.95-1.05-.06-.06-.12-.13-.19-.19-.7-1.43-.24-2.43,1.55-3.1,2.33-.87,4.74-1.38,7.21-1.78,3.03-.48,6.08-.73,9.12-1.07,1.01-.11,2.03-.13,3.05-.17,4.81-.22,9.63-.35,14.44-.2,2.68.09,5.38.13,8.05.39,4.53.44,9.1.78,13.52,2.01,1.23.34,2.47.68,3.57,1.37,1.28.8,1.31,2.04.09,2.96-.36.28-.77.49-1.16.74-.07.56-.54.62-.95.75-2.99.97-6.07,1.44-9.17,1.87-3.22.44-6.47.56-9.7.9Zm25.22,60.94c0,.83-.09,1.66-.19,2.48-.1.83-.65,1.39-1.31,1.82-1.87,1.24-4.01,1.78-6.16,2.24-2.54.55-5.13.73-7.7,1.09-.89.13-1.8.07-2.69.12-1.84.1-3.68.41-5.54.13,1.49-.58,3.07-.59,4.61-.76,4.12-.45,8.26-.89,12.18-2.31,1.74-.63,3.54-1.41,4.21-3.48.13-.4.18-.78.18-1.18,0-2.89.01-5.79,0-8.68-.02-2.73.12-5.45.39-8.17.05-.48.08-1.21.54-1.28.61-.1.6.66.75,1.1.38,1.09.46,2.25.54,3.38.32,4.5.22,9.01.21,13.51Z" style="fill: #2e4bf5;"/>
      <path d="m305.3,787.11c0-2.65.13-5.3-.03-7.94-.32-5.41-.21-10.83-.09-16.24.06-2.49-.27-5.04.48-7.5.12-.38.16-.91.66-.88.45.03.45.52.47.89.16,2.68.49,5.35.23,8.06-.21,2.22.02,4.48-.06,6.72-.27,6.97-.2,13.94-.15,20.91.03,4.06.32,8.11.71,12.15.24,2.46.31,4.95.61,7.4.14,1.11,0,2.23.31,3.32.18.65-.12,1.29-.19,1.93-.02.19-.15.37-.37.34-.27-.04-.42-.25-.51-.49-.37-1.05-.62-2.14-.77-3.25-.5-3.68-.79-7.38-.98-11.09-.06-1.08-.07-2.17-.15-3.25-.25-3.7-.17-7.4-.18-11.1Z" style="fill: #cacded;"/>
      <path d="m349.73,821.82c1.49-.58,3.07-.59,4.61-.76,4.12-.45,8.26-.89,12.18-2.31,1.74-.63,3.54-1.41,4.21-3.48.13-.4.18-.78.18-1.18,0-2.89.01-5.79,0-8.68-.02-2.73.12-5.45.39-8.17.05-.48.08-1.21.54-1.28.61-.1.6.66.75,1.1.38,1.09.46,2.25.54,3.38.32,4.5.22,9.01.21,13.51,0,.83-.09,1.66-.19,2.48-.1.83-.65,1.39-1.31,1.82-1.87,1.24-4.01,1.78-6.16,2.24-2.54.55-5.13.73-7.7,1.09-.89.13-1.8.07-2.69.12-1.84.1-3.68.41-5.54.13Z" style="fill: #cacded;"/>
      <path d="m368.99,745.77c-1.1-.69-2.34-1.03-3.57-1.37-4.42-1.23-8.98-1.57-13.52-2.01-2.67-.26-5.37-.3-8.05-.39-4.81-.15-9.63-.02-14.44.2-1.01.05-2.04.06-3.05.17-3.04.34-6.09.59-9.12,1.07-2.46.39-4.88.9-7.21,1.78-1.79.67-2.25,1.67-1.55,3.1.06.06.12.13.19.19.06.58.5.84.95,1.05,1.07.5,2.18.91,3.32,1.2,3.61.92,7.29,1.33,10.98,1.73,3.73.4,7.48.47,11.22.67,4.22.23,8.45-.1,12.68-.16.09,0,.19,0,.28,0,3.23-.33,6.47-.46,9.7-.9,3.1-.43,6.18-.9,9.17-1.87.41-.13.88-.2.95-.75.39-.24.8-.46,1.16-.74,1.22-.93,1.19-2.16-.09-2.96Z" style="fill: #cacded;"/>
      <g id="smoke1">
        <path id="coffesmoke" d="m337.24,753.24c4.12-6.47.87-8.23-5.33-12.26-.82-.53-1.72-.95-2.66-1.2-2.48-.66-8.4-1.41-8.79-5.94-.23-2.7-.86-6.21.11-9.66.68-2.43,1.47-5.33,3.58-12.77,0,0-4.53,4.63-7.26,12.12-4.35,11.91,3.16,17.29,3.16,17.29,7.17,3.92,12,5.18,10.42,12.05" style="fill: #a0a0a0; opacity: .25;"/>
        <path id="coffesmoke-2" data-name="coffesmoke" d="m351.75,700.29s-7.1,2.17-9.83,9.66c-4.35,11.91,3.16,17.29,3.16,17.29,7.17,3.92,13.74,8.62,11.1,15.15-2.09,5.19-3.84,4.26-10.92,10.67,4.18-.12,6.37-.38,8.88-.58,3.86-2.08,7.19-9.49,7.19-9.49,0,0,1.82-11.56-4.39-15.59-.82-.53-1.72-.95-2.66-1.2-2.48-.66-8.3-2.66-8.69-7.2-.23-2.7-1.02-7.26-.06-10.71.68-2.43,1.11-2.11,6.21-8Z" style="fill: #a0a0a0; opacity: .25;"/>
      </g>
      <g id="smoke2">
        <path id="coffesmoke-3" data-name="coffesmoke" d="m340.42,753.27c-3.96-5.96-.7-7.66,5.55-11.55.83-.51,1.72-.92,2.67-1.17,2.48-.66,8.38-1.48,8.86-5.72.29-2.53.98-5.81.08-9.01-.63-2.25-1.35-4.94-3.3-11.85,0,0,4.41,4.23,6.98,11.16,4.08,11.03-3.49,16.2-3.49,16.2-7.21,3.8-12.03,5.08-10.6,11.46" style="fill: #525256; opacity: .25;"/>
        <path id="coffesmoke-4" data-name="coffesmoke" d="m323.33,691.71s7.3,2.84,10.42,11.62c4.96,13.96-2.4,19.83-2.4,19.83-7.09,4.19-13.53,9.32-10.55,16.99,2.36,6.09,4.09,5.1,11.57,12.83-4.25-.33-6.47-.73-9.03-1.08-4.01-2.58-7.73-11.3-7.73-11.3,0,0-2.38-13.43,3.72-17.81.81-.58,1.7-1.02,2.64-1.26,2.49-.64,8.29-2.69,8.48-7.91.11-3.11.7-8.34-.44-12.37-.8-2.84-1.22-2.49-6.67-9.53Z" style="fill: #525256; opacity: .25;"/>
      </g>
    </g>
  </g>
</svg>