<?xml version="1.0" encoding="UTF-8"?>
<svg id="Layer_2" data-name="Layer 2" xmlns="http://www.w3.org/2000/svg" xmlns:xlink="http://www.w3.org/1999/xlink" viewBox="0 0 223.11 223.11">
  <defs>
    <clipPath id="clippath">
      <rect x="36.06" y="14.9" width="151" height="193.59" style="fill: none;"/>
    </clipPath>
  </defs>
  <g id="Layer_1-2" data-name="Layer 1">
    <rect x="0" y="0" width="223.11" height="223.11" rx="111.56" ry="111.56" style="fill: #e7e9f8;"/>
    <g style="clip-path: url(#clippath);">
      <g>
        <path d="m76.05,95.46c-2.68-.92-5.32-2.09-8.09-2.71-12.69-2.82-24.33,5.6-24.72,18.41-.42,13.61-.36,27.25,0,40.87.29,10.46,7.88,17.8,18.1,18.46,11.12.73,19.95-5.55,21.93-15.82.58-3.01.69-6.15.69-9.24.05-29.53.02-59.04.02-88.57v-7.86c2.36-.17,4.29-.32,7.28-.54v7.6c0,32.2-.16,64.41.14,96.61.05,6.12-2.21,13.56,6.07,17.33,1.05.48.72,3.96,1.07,6.31-7.3.89-10.42-3.36-12.59-7.13-6.51,2.85-12.54,6.98-19.08,8.05-16.11,2.62-30.1-9.93-30.55-26.54-.35-12.79-.35-25.6,0-38.39.47-17.88,16.45-30.13,33.59-26.41,5.51,1.2,7.99,3.74,6.15,9.57h-.01Z" style="fill: #2e4bf5;"/>
        <path d="m187.03,176.11h-6.84v-8.17c0-18.78.14-37.55-.09-56.33-.1-8.39-3.31-15.45-11.76-18.63-8.39-3.14-16.32-2.02-23.1,4.17-5.06,4.61-5.6,10.83-5.63,17.07-.1,18.57-.04,37.14-.04,55.71v6.46h-7.23V48.77c2.16-.1,4.29-.2,7.01-.33v45.41c2.84-2.04,5.03-3.43,7.01-5.05,13.61-11.1,36.44-1.87,39.73,16.81.67,3.84.88,7.79.91,11.69.09,19.36.04,38.74.04,58.79v.02Z" style="fill: #2e4bf5;"/>
        <path d="m123.77,207.92c-8.54,1.83-12.48-.82-14.28-7.69-.98-3.75-1.43-7.74-1.44-11.61-.11-56.95-.1-113.9-.11-170.83,0-.8.16-1.61.3-2.88h7.07v6.76c0,54.47,0,108.94.01,163.42,0,3.5-.14,7.08.53,10.47.43,2.25,2.05,4.33,3.36,6.34,1.38,2.1,3.03,4.02,4.55,6.03Z" style="fill: #2e4bf5;"/>
      </g>
    </g>
  </g>
</svg>