<?xml version="1.0" encoding="UTF-8"?>
<svg id="Layer_1" data-name="Layer 1" xmlns="http://www.w3.org/2000/svg" viewBox="0 0 249.33 223.38">
  <path d="m92.89,169.38c-2.3,1.66-4.62,3.28-6.88,4.99-1.75,1.33-3.27,1.2-4.26-.75-2.38-4.7-5.73-7.08-11.21-5.47-1.08.32-2.46.12-3.57-.26-2.69-.9-3.99.53-5.36,2.49-4.45,6.36-3.62,6.15-9.83,1.61-4.86-3.56-9.7-7.15-14.63-10.6-1.99-1.39-2.19-2.88-.6-4.45,3.7-3.63,4.87-7.49,1.78-12.1-.41-.61-.6-1.46-.62-2.21-.1-3.91-2.41-5.4-5.92-6.32-5.23-1.37-5.19-1.59-3.58-6.61,2-6.22,4.02-12.43,6.05-18.63.92-2.79,1.61-3.31,4.34-2.07,4.35,1.97,8.18,2.43,11.45-1.87.64-.84,1.72-1.53,2.74-1.89,3.38-1.17,3.85-3.58,3.71-6.8-.25-5.8-.81-6.03,5.79-5.93.85.01,1.71,0,2.74,0,2.17-20.85,11.99-36.9,30.38-46.91,18.45-10.05,37.25-9.21,56.12.42,0-2.92.08-5.56-.02-8.19-.09-2.25.96-3.11,3.08-3.1,8.52.02,17.05.01,25.57,0,2.03,0,2.99.86,2.92,2.98-.09,2.49-.14,5,.05,7.49.06.81.74,1.77,1.43,2.29,3.27,2.49,6.59,4.92,9.99,7.23.77.52,2.01.83,2.89.62,2.42-.57,4.77-1.43,7.12-2.24,1.73-.6,2.81-.11,3.38,1.65,2.7,8.34,5.42,16.67,8.13,25,.56,1.72,0,2.82-1.75,3.37-2.54.8-5.09,1.58-7.57,2.54-.63.24-1.26,1.02-1.49,1.69-1.36,3.96-2.67,7.95-3.83,11.98-.26.89-.18,2.15.29,2.91,1.29,2.12,2.84,4.1,4.35,6.09,1.19,1.58.91,2.78-.66,3.91-6.97,5.03-13.92,10.09-20.86,15.17-1.67,1.22-2.94,1.02-4.12-.68-1.5-2.17-3.1-4.27-5.1-7-6.12,11.68-12.46,22.62-17.64,34.09-3.29,7.29-5.48,15.24-6.99,23.12-1.12,5.82-.35,12.01-.4,18.03-.05,5.88-1.98,10.95-6.39,14.95-3.51,3.19-7.64,4.94-12.39,4.99-5.6.06-11.19.04-16.79.01-10.4-.04-18.86-8.41-19.03-18.84-.07-4.22.22-8.46-.08-12.65-.33-4.65-1.15-9.26-1.76-13.89-.32-.04-.64-.08-.95-.12Zm54.43-120.74c-.72-.37-1.46-.8-2.24-1.15-21.78-9.81-46.65-4.45-62.6,13.47-15.8,17.76-17.85,45.18-4.7,64.7,7.45,11.05,13.49,22.77,17.43,35.51,1.52,4.91,2.76,9.9,4.17,15,15.3,0,30.54.02,45.77-.07.58,0,1.48-1,1.68-1.69,1.2-4.12,2.13-8.33,3.36-12.44,4.13-13.72,10.92-26.13,18.74-38.04.75-1.14,1.27-2.44,2.06-3.99-2.58,0-4.62.35-6.49-.07-3.76-.86-6.4.03-8.07,3.64-.53,1.15-1.53,2.07-2.24,3.14-1.22,1.85-2.56,1.92-4.31.62-5.73-4.25-11.53-8.41-17.29-12.62-6.26-4.57-6.34-3.41-1.47-9.78,2.06-2.69,3.26-5.01.94-8.08-.64-.85-.87-2.05-1.18-3.12-.76-2.6-.7-5.98-2.37-7.63-1.8-1.79-5.15-2.1-7.89-2.82-2.28-.61-2.59-1.96-1.96-3.89,2.66-8.17,5.34-16.34,7.98-24.52.56-1.73,1.55-2.35,3.32-1.73,2.43.84,4.88,1.65,7.36,2.37.67.19,1.68.28,2.13-.08,2.67-2.14,5.22-4.42,7.87-6.72Zm8.3-9.65c0,2.89.17,5.64-.09,8.35-.1,1.04-.94,2.47-1.84,2.9-4.55,2.22-8.63,5.01-11.97,8.81-1.16,1.32-2.29,1.48-3.87.9-2.48-.91-5.04-1.62-7.76-2.48-2.42,7.47-4.77,14.7-7.18,22.12,2.79.92,5.29,1.8,7.83,2.54,1.61.47,2.46,1.34,2.57,3.06.33,4.89,1.87,9.45,4.37,13.62,1.03,1.73.77,2.97-.36,4.42-1.58,2.02-3.04,4.13-4.69,6.4,6.32,4.59,12.46,9.06,18.86,13.7,1.58-2.17,3.11-4.11,4.45-6.18,1.13-1.75,2.47-2.1,4.55-1.97,4.58.29,9.21.3,13.79.03,1.98-.12,3.22.19,4.3,1.87,1.37,2.13,2.95,4.12,4.51,6.26,6.41-4.68,12.51-9.13,18.83-13.74-1.71-2.35-3.43-4.48-4.86-6.8-.53-.87-.89-2.44-.46-3.21,2.54-4.58,4.27-9.38,4.74-14.6.15-1.62.97-2.41,2.46-2.86,2.54-.76,5.03-1.64,7.87-2.57-2.41-7.42-4.75-14.65-7.17-22.1-2.82.87-5.46,1.59-8.02,2.53-1.55.57-2.58.25-3.62-.95-3.27-3.75-7.19-6.66-11.79-8.58-1.57-.66-2.22-1.68-2.16-3.38.09-2.65.02-5.3.02-8.11h-23.32Zm-95.1,57.72c0,2.47.17,4.79-.08,7.07-.11.98-.88,2.11-1.69,2.75-3.5,2.73-7.07,5.38-10.73,7.88-.89.61-2.32.91-3.37.71-2.23-.43-4.38-1.29-6.72-2.02-2.08,6.4-4.09,12.59-6.16,18.96,2.29.76,4.55,1.33,6.63,2.3.99.46,1.99,1.54,2.37,2.57,1.47,4.08,2.78,8.24,3.97,12.41.3,1.07.28,2.53-.23,3.46-1.11,2-2.64,3.77-4.13,5.82,5.47,3.97,10.78,7.82,16.19,11.74,1.5-2.04,2.86-3.71,4.02-5.51.93-1.44,2.08-1.94,3.71-1.53,4.17,1.06,8.34,1.02,12.51,0,1.51-.37,2.63.01,3.54,1.36,1.29,1.92,2.72,3.74,4.15,5.67,2.22-1.61,4.34-3.07,6.36-4.65.49-.38,1.06-1.32.9-1.77-1.63-4.92-3.41-9.79-5.21-14.87-9.53,8.44-19.41,7.99-26.66,3.96-7.7-4.27-12.31-12.88-11.06-21.65,1.51-10.6,8-16.73,18.12-19.02-.74-5.2-1.47-10.35-2.23-15.63h-4.18Zm7.49,19.74c-.46.08-1.41.13-2.3.39-7.06,2.04-12.31,8.24-12.87,15.16-.63,7.82,3.16,14.6,10.02,17.93,6.67,3.23,14.31,2,19.85-3.08,1.35-1.24,1.64-2.21.64-3.9-5.14-8.7-10.15-17.49-15.36-26.5Zm77.94,77.92h-45.99c-.8,8.65,5.78,16.21,14.21,16.37,5.93.11,11.87.12,17.81,0,8.12-.15,15.01-8.2,13.97-16.37Zm.11-13.92h-46.09v9.48h46.09v-9.48Z" style="fill: #fae189;"/>
  <path d="m29.96,60.22c7.35,1.22,14.05,2.33,20.75,3.45,2.8.46,5.59.94,8.39,1.39,1.46.24,2.68,1.01,2.17,2.5-.25.75-1.85,1.63-2.7,1.5-9.52-1.45-19.01-3.03-28.48-4.75-.8-.15-1.75-1.51-1.89-2.42-.08-.52,1.32-1.28,1.75-1.67Z" style="fill: #fae189;"/>
  <path d="m42.75,30.34c.85.45,1.48.72,2.04,1.1,7.6,5.18,15.19,10.37,22.77,15.57,1.26.86,2.56,1.85,1.33,3.53-1.12,1.54-2.42.7-3.6-.1-7.66-5.24-15.34-10.45-22.94-15.78-.74-.52-1.21-1.77-1.3-2.72-.04-.48,1.08-1.05,1.69-1.59Z" style="fill: #fae189;"/>
  <path d="m163.73,162.52c.82-.28,1.69-.9,2.44-.76.93.17,2.19.74,2.55,1.49,1.71,3.65,3.17,7.42,4.72,11.15,2.08,5,4.16,9.99,6.24,14.99.56,1.35.96,2.77-.76,3.53-1.78.79-2.45-.57-3.01-1.9-3.57-8.56-7.13-17.12-10.68-25.69-.23-.55-.34-1.14-.51-1.71-.33-.36-.66-.73-.98-1.09Z" style="fill: #fae189;"/>
  <path d="m206.58,171.94c-.68.71-1.16,1.65-1.68,1.66-.9.03-2.04-.27-2.7-.85-3.63-3.16-7.14-6.46-10.69-9.71-3.3-3.02-6.58-6.06-9.89-9.06-1.14-1.03-1.9-2.2-.72-3.53,1.27-1.44,2.48-.48,3.54.49,6.78,6.22,13.57,12.43,20.32,18.67.65.6,1.12,1.41,1.82,2.32Z" style="fill: #fae189;"/>
  <path d="m192,129.88c1.11.35,1.69.51,2.25.71,8.45,2.89,16.9,5.79,25.36,8.67,1.47.5,2.99,1.03,2.33,2.97-.67,1.97-2.23,1.39-3.67.9-8.61-2.96-17.25-5.86-25.83-8.92-.89-.32-1.74-1.49-2.03-2.44-.14-.46,1.08-1.32,1.58-1.88Z" style="fill: #fae189;"/>
  <path d="m86.56,35.2c-.43.6-.7,1.39-1.22,1.6-.61.26-1.53.22-2.14-.06-.55-.26-.92-.98-1.29-1.56-4.67-7.43-9.32-14.87-13.97-22.3-.23-.36-.42-.75-.65-1.12-.8-1.26-.97-2.69.54-3.23.77-.27,2.38.38,2.9,1.12,2.17,3.09,4.06,6.38,6.06,9.59,2.86,4.6,5.73,9.2,8.59,13.8.4.64.73,1.33,1.17,2.15Z" style="fill: #fae189;"/>
  <path d="m191.83,81.58c0,13.59-11.12,24.65-24.67,24.53-13.51-.12-24.42-11.08-24.45-24.53-.03-13.56,11.08-24.71,24.59-24.7,13.56.02,24.53,11.07,24.53,24.7Zm-4.09.14c.05-11.38-9-20.62-20.31-20.73-11.22-.12-20.57,9.17-20.61,20.46-.03,11.31,9.15,20.55,20.46,20.59,11.14.04,20.41-9.16,20.46-20.31Z" style="fill: #fae189;"/>
</svg>