<?xml version="1.0" encoding="UTF-8"?>
<svg id="Layer_1" data-name="Layer 1" xmlns="http://www.w3.org/2000/svg" viewBox="0 0 249.33 223.38">
  <path d="m124.81,11.69c55.09.14,100.03,45.2,99.86,100.15-.17,55.14-45.3,100.15-100.13,99.85-55.28-.3-100.09-45.23-99.86-100.13.22-55.18,45.17-100,100.14-99.87Zm7.58,153.62c0-1.25,0-2.19,0-3.12,0-12.82.03-25.64,0-38.47,0-3.47.8-6.64,2.96-9.39,2.93-3.72,6.76-5.02,11.42-4.34,4.55.66,7.02,3.63,8.07,7.66.8,3.03,1.01,6.28,1.04,9.43.11,11.79.05,23.58.05,35.37,0,.92,0,1.84,0,2.83h22.54c0-3.24.03-6.32,0-9.4-.16-13.67.3-27.39-.68-41.01-1.37-18.98-20.77-29.26-37.65-20.39-3.77,1.98-6.92,5.13-10.33,7.72-.33-2.69-.7-5.8-1.08-8.91h-19.04v72.03h22.71Zm-59.48-72.12v71.58h21.6v-71.58h-21.6Zm10.86-9.65c7.64-.05,13.06-5.3,13.03-12.63-.03-7.6-5.41-12.94-13.04-12.93-7.88,0-12.95,5.2-12.88,13.19.07,7.38,5.33,12.42,12.89,12.38Z" style="fill: #cb1414;"/>
</svg>