<?xml version="1.0" encoding="UTF-8"?>
<svg id="Layer_1" data-name="Layer 1" xmlns="http://www.w3.org/2000/svg" viewBox="0 0 1638.4 1080">
  <rect y=".44" width="1638.4" height="1080" style="fill: #ede9f5;"/>
  <g>
    <rect x="1313.67" y="595.01" width="152.45" height="81.41" style="fill: #cdbeed;"/>
    <rect x="1313.67" y="482.14" width="152.45" height="81.41" style="fill: #cdbeed;"/>
    <rect x="1497.98" y="595.01" width="152.45" height="81.41" style="fill: #cdbeed;"/>
    <rect x="945.05" y="595.01" width="152.45" height="81.41" style="fill: #cdbeed;"/>
    <rect x="1313.67" y="707.89" width="152.45" height="81.41" style="fill: #cdbeed;"/>
    <rect x="1126.05" y="707.89" width="152.45" height="81.41" style="fill: #cdbeed;"/>
    <rect x="1126.05" y="595.01" width="152.45" height="81.41" style="fill: #cdbeed;"/>
    <g style="opacity: .7;">
      <rect x="1200.8" y="676.42" width="2.97" height="31.47" style="fill: #cdbeed;"/>
    </g>
    <g style="opacity: .7;">
      <rect x="1388.42" y="676.42" width="2.97" height="31.47" style="fill: #cdbeed;"/>
    </g>
    <polygon points="1577.52 577.52 1576.03 577.52 1391.16 577.52 1391.16 563.55 1388.19 563.55 1388.19 577.52 1022.76 577.52 1021.28 577.52 1019.8 577.52 1019.8 595.01 1022.76 595.01 1022.76 580.49 1200.8 580.49 1200.8 595.01 1203.76 595.01 1203.76 580.49 1388.42 580.49 1388.42 595.01 1391.38 595.01 1391.38 580.49 1576.03 580.49 1576.03 595.01 1579 595.01 1579 577.52 1577.52 577.52" style="fill: #cdbeed; opacity: .7;"/>
  </g>
  <g>
    <path d="m1280.11,187.78c-.14-1.58-.28-3.05-.42-4.63l-1.88-.42c.1,1.6.19,3.15.29,4.81-3.2-.15-6.35-.3-9.58-.45-1.18-2.15-1.71-4.57-2.35-7.06-.55-.12-1.1-.21-1.63-.37-1.99-.58-2.88-2.04-2.43-4.06,1.2-5.47,2.47-10.94,3.63-16.42.46-2.21,2.47-3.23,4.29-2.69.4.12.81.19,1.31.3,1.58-1.97,3.16-3.92,5.23-5.43,2.93,1.22,5.83,2.43,8.8,3.67-.8,1.45-1.54,2.78-2.3,4.16.53.49,1.16.39,1.79.62.79-1.38,1.54-2.7,2.37-4.15,3.77,1.05,7.48,2.09,11.35,3.17-.28,1.27-.55,2.47-.83,3.75l1.9.42c.28-1.24.55-2.45.83-3.74,3.92.65,7.67,1.27,11.55,1.91.15,1.57.3,3.08.45,4.68l1.88.42c-.09-1.61-.17-3.16-.26-4.89,3.17.15,6.3.29,9.5.44,1.15,2.19,1.77,4.58,2.4,7.13.5.11,1.04.21,1.57.35,1.97.55,2.96,2.04,2.53,4.03-1.19,5.52-2.42,11.04-3.68,16.55-.47,2.05-2.03,2.99-4.1,2.62-.5-.09-.99-.22-1.49-.33-.73.85-1.39,1.63-2.16,2.54-1.82-2.11-3.56-4.14-5.51-6.4.59.06.88.07,1.16.13,2.69.59,5.38,1.2,8.07,1.79,1.51.33,1.63.25,1.98-1.31,1.16-5.2,2.32-10.4,3.47-15.6.33-1.5.24-1.64-1.3-1.99-9.21-2.06-18.42-4.1-27.63-6.16-9.58-2.13-19.15-4.27-28.73-6.4-1.92-.43-2.12-.31-2.55,1.65-1.1,5.06-2.19,10.13-3.28,15.2-.09.44-.11.9-.18,1.49.66.2,1.21.41,1.78.54,10.58,2.36,21.16,4.72,31.73,7.07.54.12,1.08.24,1.72.38-.18,2.12-.34,4.1-.51,6.05-.92.17-2.8-.23-5.21-1.09.26-1.17.53-2.37.82-3.67-.69-.15-1.21-.27-1.92-.43-.27,1.2-.53,2.4-.82,3.68-3.94-.65-7.69-1.27-11.64-1.92Z" style="fill: #e2d9f9;"/>
    <path d="m1310.32,211.66c-.87-1.8-1.27-3.52-1.83-5.19-.54-1.63-1.06-3.26-1.65-5.07-2.2,1.59-4.01,3.39-6.1,5.02-.11-.32-.22-.5-.21-.65.73-8.1,1.48-16.2,2.38-24.36,2.08,1.87,3.75,4.03,5.54,6.07,1.85,2.1,3.66,4.24,5.48,6.36,1.79,2.08,3.57,4.16,5.48,6.38-1.48.45-2.74,0-3.99-.05-1.28-.05-2.54-.3-4.04-.23,1.11,3.47,2.15,6.73,3.22,10.07-1.32.86-2.77,1.02-4.29,1.65Z" style="fill: #e2d9f9;"/>
    <path d="m1302.95,169.62l2.66.59c-1.98,3.91-4.12,7.59-6.15,11.42-.86-.19-1.66-.37-2.57-.57-.11-2.8-.22-5.58-.34-8.69-1.42,2.72-2.7,5.18-4.02,7.71-.82-.18-1.57-.35-2.34-.52-.36-.99-1-11.67-.74-12.93l2.44.54c.11,2.87.22,5.78.34,9,1.49-2.83,2.82-5.37,4.19-7.97.64.14,1.21.27,1.97.44.14,2.84.29,5.76.46,9.03,1.46-2.86,2.76-5.43,4.09-8.04Z" style="fill: #e2d9f9;"/>
    <path d="m1307.29,170.58c1.02.23,1.74.39,2.63.59.12,2.89.23,5.8.37,9.02,1.5-2.85,2.85-5.41,4.21-7.97.43.06.76.08,1.07.15.27.06.52.16.89.27.14,2.94.29,5.85.45,9.1,1.46-2.87,2.76-5.43,4.1-8.06.87.19,1.67.37,2.65.59-1.96,3.88-4.1,7.56-6.13,11.39l-2.56-.57c-.12-2.77-.23-5.55-.36-8.66-1.43,2.73-2.72,5.21-4.03,7.72-.87-.19-1.63-.36-2.53-.56-.25-4.27-.49-8.53-.75-13Z" style="fill: #e2d9f9;"/>
    <path d="m1278.84,177.07c-.11-2.86-.22-5.6-.34-8.69-1.44,2.74-2.74,5.21-4.06,7.71l-2.52-.56c-.25-4.26-.5-8.51-.76-12.94l2.67.59c.1,2.86.2,5.73.3,8.6.06.02.13.04.19.05,1.35-2.54,2.69-5.09,4.06-7.68.66.15,1.23.27,1.93.43.15,2.91.31,5.83.48,9.05,1.44-2.83,2.74-5.38,4.08-8.01l2.7.6c-2.1,3.88-4.14,7.63-6.19,11.4-.89-.2-1.65-.37-2.54-.57Z" style="fill: #e2d9f9;"/>
    <path d="m1280.51,189.83c3.65.6,7.09,1.17,10.48,1.72.15,1.11-1.48,8.85-2.21,10.66-1.01-.22-1.82-.81-2.62-1.42-1.7-1.32-2.83-3.08-3.77-4.97-.89-1.8-1.43-3.72-1.89-5.99Z" style="fill: #e2d9f9;"/>
    <path d="m1288.76,153.79c.07-.15.11-.34.22-.47,1.86-2.28,3.87-4.4,6.52-5.8,1.82-.96,3.67-1.4,5.77-1.23,0,1.2-.44,2.33-.66,3.48-.22,1.14-.5,2.27-.75,3.41-.26,1.17-.52,2.33-.77,3.45-1.53.04-9.07-2.06-10.33-2.83Z" style="fill: #e2d9f9;"/>
    <path d="m1311.52,158.9c-1.62.08-9.32-1.23-10.48-1.79.76-3.42,1.52-6.85,2.31-10.36,1.41.4,2.46,1.21,3.43,2.14,1.93,1.86,3.1,4.17,3.93,6.68.36,1.08.84,2.15.82,3.34Z" style="fill: #e2d9f9;"/>
    <path d="m1269.51,189.18c3.18-.11,6.03.18,8.95.46,1.1,4.89,2.76,9.43,6.52,12.92-6.7-2.54-11.73-6.97-15.47-13.38Z" style="fill: #e2d9f9;"/>
    <path d="m1297.91,144.44c-2.34.74-4.51,1.84-6.31,3.5-1.77,1.63-3.41,3.42-5.26,5.3-2.5-1-5.16-2.07-7.88-3.16,2.85-3.51,14.35-6.85,19.45-5.64Z" style="fill: #e2d9f9;"/>
    <path d="m1307.37,146.34c6.54,2.65,11.55,7.06,15.24,13.42-3.08.07-5.91-.15-8.87-.46-.21-.81-.43-1.61-.63-2.42-.76-3.02-1.96-5.84-3.96-8.26-.59-.71-1.26-1.36-1.89-2.03.04-.08.08-.16.11-.24Z" style="fill: #e2d9f9;"/>
    <path d="m1293.14,192.22c1.99.16,3.65.86,5.48,1.36-.1,1.34-.18,2.58-.28,3.82-.06.79-.15,1.58-.22,2.36-.05.53-.19.99-.7,1.28-1.97,1.12-4.03,1.91-6.54,1.7.65-3.56,1.52-7,2.27-10.53Z" style="fill: #e2d9f9;"/>
    <path d="m1294.32,204.53c1.06-.42,2.12-.84,3.22-1.28.37.46.17.92-.03,1.54-1.05,0-2.11-.02-3.17-.03,0-.08-.01-.15-.02-.23Z" style="fill: #e2d9f9;"/>
  </g>
  <g>
    <polygon points="270.96 411.16 270.96 414.15 301.28 427.41 301.28 424.33 270.96 411.16" style="fill: #ede8f9;"/>
    <polygon points="357.41 410.05 357.41 413.04 301.28 427.41 301.28 424.33 357.41 410.05" style="fill: #ede8f9;"/>
    <polygon points="236.51 388.76 388.02 364.48 377.56 266.81 219.07 258.46 236.51 388.76" style="fill: #cdbeed;"/>
    <polygon points="374.51 271.97 225.22 263.76 241.47 382.6 384.32 360.26 374.51 271.97" style="fill: #ede8f9;"/>
    <polygon points="238.22 404.83 389.04 376.11 388.02 364.48 236.51 388.76 238.22 404.83" style="fill: #cdbeed;"/>
    <polygon points="238.22 404.83 234.63 403.75 216.5 259.65 219.07 258.46 236.51 388.76 238.22 404.83" style="fill: #ede8f9;"/>
    <polygon points="325.64 388.18 325.64 398.59 357.41 410.05 301.23 424.33 270.96 411.16 293.71 406.26 293.67 394.27 325.64 388.18" style="fill: #a397c4;"/>
    <polygon points="291.36 394.6 291.36 412.87 293.96 413.51 293.97 394.1 291.36 394.6" style="fill: #cdbeed;"/>
    <polygon points="372.18 285.57 232.52 282.85 236.51 312.03 374.24 304.5 372.18 285.57" style="fill: #e2d9f9;"/>
    <polygon points="372.09 282.4 231.18 277.96 230.95 276.41 371.93 280.86 372.09 282.4" style="fill: #cdbeed;"/>
    <path d="m247.09,274.21c-1.93,0-3.78-1.33-4.12-2.95s.95-2.95,2.89-2.95,3.78,1.33,4.12,2.95c.34,1.63-.95,2.95-2.89,2.95Zm-.96-4.61c-1.08,0-1.81.74-1.62,1.66s1.23,1.66,2.31,1.66,1.81-.74,1.62-1.66c-.19-.91-1.23-1.66-2.31-1.66Z" style="fill: #cdbeed;"/>
    <polygon points="238.22 274.21 236.77 272.09 235.48 274.21 233.89 274.21 235.79 271.2 232.63 268.3 234.23 268.3 236.36 270.32 237.57 268.3 239.17 268.3 237.33 271.2 239.81 274.21 238.22 274.21" style="fill: #cdbeed;"/>
    <polygon points="314.83 310.24 236.51 315.03 244.76 378.76 322.58 365.87 314.83 310.24" style="fill: #e2d9f9;"/>
    <polygon points="374.62 306.74 318.18 309.75 325.91 365.14 380.73 356.94 374.62 306.74" style="fill: #e2d9f9;"/>
  </g>
  <g>
    <path d="m200.37,639.14c-.02-.86-.43-1.23-1.29-1.19-1.16.05-2.33.11-3.49.04-.42-.03-.93-.33-1.21-.67-1.21-1.49-2.37-3.02-3.49-4.58-.23-.32-.41-.85-.33-1.22.25-1.13.61-2.25.99-3.35.32-.93,0-1.45-.9-1.72-3.81-1.14-7.62-2.29-11.43-3.45-.95-.29-1.53-.05-1.8.97-.31,1.19-.7,2.36-1.09,3.66-7.13-6.85-15.42-9.76-25.02-7.76-9.57,1.99-16.13,7.83-19.91,16.86h0c-2.68,6.08-1.27,25.86,2.48,38.29-.35,2.15-.61,4.32-1.09,6.45-.43,1.92-1.13,3.77-1.67,5.67-1.33,4.68,1.32,9.56,5.96,10.99,2.5.77,4.99,1.53,7.5,2.26,2.13.62,4.21.39,6.21-.56,2.51-1.19,4.06-3.2,4.88-5.82.84-2.68,1.33-5.55,2.61-8,1.74-3.32,3.79-6.57,6.24-9.39,3.86-4.43,8.18-8.46,12.49-12.85.52,1.49.95,2.64,1.33,3.82.3.92.84,1.18,1.75.86,3.79-1.33,7.58-2.65,11.37-3.96.85-.29,1.14-.79.82-1.66-.4-1.09-.83-2.18-1.12-3.31-.1-.4.03-.98.26-1.34,1.06-1.64,2.19-3.25,3.33-4.83.19-.27.58-.53.89-.55,1.24-.09,2.48-.1,3.72-.11.85-.01,1.25-.42,1.24-1.27-.09-4.09-.18-8.18-.26-12.27Zm-55,59.46c-2.67-.75-5.32-1.56-7.96-2.41-3.75-1.21-5.67-5.47-4.14-9.23,6.82,2.06,13.65,4.12,20.55,6.21-.64,3.79-4.8,6.46-8.45,5.43Zm9.1-7.4c-6.87-2.08-13.68-4.13-20.59-6.22.42-1.37.84-2.77,1.28-4.24,6.82,2.06,13.64,4.12,20.59,6.22-.43,1.43-.85,2.8-1.28,4.24Zm40.36-40.36c-.73,0-1.2.24-1.49.94-.91,2.27-2.34,4.18-4.09,5.88-.3.29-.35,1.04-.23,1.5.33,1.23.81,2.42,1.25,3.7-3.44,1.21-6.77,2.37-10.27,3.6-.41-1.17-.85-2.27-1.17-3.41-.25-.9-.76-1.2-1.67-1.42-2.09-.5-4.15-1.12-6.16-1.87-.91-.34-1.56-.37-2.3.26-.88.74-1.83,1.4-2.82,2.16-2.23-2.94-4.37-5.77-6.58-8.67,1.04-.79,1.98-1.54,2.96-2.23.7-.49.99-1.01.76-1.92-.55-2.2-.63-4.45-.12-6.68.18-.79-.08-1.29-.74-1.72-1.03-.68-2.03-1.41-3.15-2.19,2.08-2.99,4.1-5.9,6.19-8.91,1.1.75,2.15,1.41,3.13,2.16.63.47,1.16.55,1.85.12,2-1.25,4.21-1.94,6.54-2.32.46-.07,1.03-.6,1.22-1.05.48-1.18.78-2.43,1.17-3.72,3.51,1.06,6.91,2.09,10.42,3.15-.38,1.26-.71,2.45-1.11,3.62-.26.75-.1,1.3.51,1.8,1.8,1.48,3.15,3.31,4.11,5.43.31.68.72.96,1.49.91,1.27-.07,2.55-.04,3.93-.05.07,3.65.14,7.2.22,10.84-1.39.03-2.63.09-3.86.09Z" style="fill: #e2d9f9;"/>
    <path d="m133.1,625.07c.43-.6-.01-1.11-.63-1.41-1.19-.58-2.38-1.17-3.56-1.75-2.84-1.4-5.68-2.8-8.81-4.34-.25.11-.97.26-1.01.51-.06.43.18,1.17.52,1.34,4,2.05,8.03,4.04,12.09,5.97.36.17,1.19,0,1.41-.31Z" style="fill: #e2d9f9;"/>
    <path d="m137.22,617.96c.42.52.89,1.07,1.59.53.77-.59.33-1.2-.12-1.76-2.69-3.35-5.38-6.69-8.07-10.03-.2-.25-.45-.45-.76-.76-.34.16-.92.27-.97.48-.09.44-.05,1.06.21,1.39,2.68,3.41,5.4,6.77,8.12,10.15Z" style="fill: #e2d9f9;"/>
    <path d="m168.79,687.95c-.19-1.88-.33-3.76-.6-5.62-.06-.39-.54-.81-.94-1.01-.31-.16-.79,0-1.19.01.1.21.19.41.29.62,0,.28-.03.56,0,.83.43,4.31.87,8.62,1.3,12.92.07.67.19,1.37,1.09,1.25.87-.11.88-.79.82-1.47-.25-2.51-.51-5.03-.77-7.54Z" style="fill: #e2d9f9;"/>
    <path d="m176.88,678.96c-.34-.58-.75-1.17-1.52-.7-.71.44-.52,1.06-.15,1.68,1.07,1.79,2.13,3.59,3.19,5.38,1.15,1.93,2.27,3.88,3.47,5.78.22.35.69.63,1.09.74.23.06.57-.29.97-.52-.19-.5-.29-.92-.5-1.28-2.18-3.7-4.37-7.39-6.56-11.09Z" style="fill: #e2d9f9;"/>
    <path d="m194.17,678.48c-3.39-2.43-6.77-4.86-10.16-7.3-.23-.16-.46-.31-.91-.62-.3.18-.96.4-.96.63,0,.46.22,1.1.58,1.36,3.42,2.53,6.89,4.99,10.34,7.47.58.41,1.19.89,1.76.09.56-.78-.05-1.22-.64-1.64Z" style="fill: #e2d9f9;"/>
    <path d="m143.47,601.54c1.07,3.95,2.15,7.9,3.23,11.85.08.31.15.68.36.87.23.21.64.35.95.32.26-.03.49-.34.76-.55-.09-.43-.14-.78-.23-1.12-.65-2.44-1.32-4.89-1.97-7.33-.46-1.71-.86-3.43-1.41-5.1-.13-.4-.77-.91-1.15-.89-.75.04-.87.7-.68,1.37.05.19.09.39.14.59Z" style="fill: #e2d9f9;"/>
    <path d="m181.92,634.61c-6.03-1.83-12.5,1.65-14.32,7.72-1.81,6.02,1.59,12.39,7.61,14.26,6.04,1.88,12.5-1.56,14.33-7.63,1.84-6.09-1.57-12.51-7.63-14.35Z" style="fill: #e2d9f9;"/>
  </g>
</svg>