<?xml version="1.0" encoding="UTF-8"?>
<svg id="Layer_1" data-name="Layer 1" xmlns="http://www.w3.org/2000/svg" viewBox="0 0 1242 2208">
  <rect x="0" y="0" width="1242" height="2208" style="fill: #ede9f5;"/>
  <g>
    <path d="m944.69,910.57c-.41-4.55-.8-8.81-1.22-13.35l-5.42-1.21c.28,4.62.55,9.08.84,13.87-9.24-.44-18.32-.87-27.63-1.31-3.42-6.21-4.94-13.19-6.79-20.37-1.59-.35-3.17-.62-4.7-1.06-5.75-1.68-8.31-5.88-7.02-11.72,3.47-15.8,7.14-31.56,10.46-47.39,1.34-6.39,7.12-9.32,12.37-7.75,1.15.34,2.35.54,3.79.86,4.56-5.67,9.11-11.32,15.09-15.66,8.46,3.53,16.84,7.03,25.38,10.59-2.3,4.17-4.43,8.03-6.62,12,1.52,1.41,3.34,1.12,5.17,1.79,2.27-3.99,4.45-7.8,6.83-11.97,10.89,3.04,21.58,6.03,32.76,9.16l-2.41,10.82,5.49,1.22,2.41-10.8c11.3,1.87,22.14,3.67,33.33,5.52.44,4.52.86,8.9,1.31,13.52l5.43,1.21c-.25-4.64-.49-9.12-.75-14.1,9.15.43,18.19.85,27.4,1.28,3.33,6.32,5.11,13.21,6.93,20.59,1.45.32,3.01.6,4.54,1.02,5.69,1.58,8.54,5.89,7.3,11.64-3.44,15.94-6.99,31.87-10.63,47.77-1.35,5.91-5.85,8.64-11.84,7.57-1.44-.26-2.87-.63-4.3-.95-2.1,2.46-4,4.69-6.24,7.32-5.25-6.09-10.28-11.94-15.9-18.47,1.7.19,2.55.2,3.36.38,7.77,1.7,15.53,3.45,23.3,5.15,4.35.95,4.7.72,5.71-3.78,3.35-15,6.69-30,10.01-45.01.96-4.33.68-4.74-3.75-5.73-26.58-5.93-53.16-11.84-79.74-17.76-27.63-6.16-55.26-12.32-82.9-18.47-5.53-1.23-6.12-.89-7.36,4.78-3.19,14.62-6.33,29.24-9.46,43.87-.27,1.28-.33,2.6-.53,4.29,1.9.58,3.49,1.18,5.15,1.55,30.52,6.82,61.05,13.61,91.58,20.41,1.55.35,3.11.69,4.96,1.1-.51,6.11-.99,11.83-1.46,17.47-2.65.48-8.07-.66-15.05-3.14.75-3.38,1.52-6.85,2.36-10.58l-5.54-1.23c-.77,3.46-1.54,6.92-2.36,10.62-11.36-1.87-22.2-3.66-33.6-5.54Z" style="fill: #fae189;"/>
    <path d="m1031.86,979.49c-2.51-5.19-3.67-10.17-5.27-14.98-1.56-4.7-3.07-9.42-4.77-14.63-6.36,4.59-11.56,9.79-17.59,14.49-.31-.94-.65-1.43-.61-1.89,2.12-23.38,4.27-46.76,6.88-70.3,6.01,5.4,10.81,11.64,16,17.53,5.34,6.07,10.56,12.24,15.82,18.36,5.16,6,10.31,12,15.82,18.41-4.26,1.3-7.91,0-11.52-.14-3.68-.14-7.34-.88-11.67-.67,3.2,10,6.21,19.43,9.29,29.07-3.82,2.5-8,2.93-12.37,4.76Z" style="fill: #fae189;"/>
    <path d="m1010.58,858.18c2.54.56,4.84,1.08,7.69,1.71-5.71,11.27-11.89,21.9-17.73,32.95l-7.4-1.65c-.32-8.07-.64-16.11-.99-25.07-4.09,7.84-7.79,14.93-11.6,22.24l-6.76-1.5c-1.04-2.87-2.88-33.67-2.14-37.31,2.18.48,4.35.97,7.04,1.57.31,8.29.63,16.69.99,25.96,4.29-8.16,8.14-15.49,12.1-23.01l5.69,1.27c.41,8.21.84,16.62,1.32,26.06,4.2-8.26,7.97-15.67,11.81-23.22Z" style="fill: #fae189;"/>
    <path d="m1023.12,860.94c2.95.66,5.01,1.12,7.59,1.69.34,8.34.68,16.73,1.05,26.03,4.34-8.22,8.23-15.6,12.14-23.01,1.25.17,2.18.24,3.09.43.77.16,1.51.45,2.57.78.42,8.48.83,16.9,1.29,26.26,4.21-8.27,7.97-15.67,11.84-23.27l7.65,1.7c-5.64,11.19-11.82,21.81-17.68,32.87l-7.39-1.65c-.33-7.99-.67-16.02-1.04-25-4.12,7.88-7.86,15.04-11.64,22.28-2.5-.56-4.7-1.05-7.31-1.63-.71-12.33-1.41-24.63-2.15-37.51Z" style="fill: #fae189;"/>
    <path d="m941,879.66c-.32-8.25-.64-16.17-.99-25.08-4.16,7.91-7.91,15.04-11.71,22.26l-7.27-1.62c-.72-12.29-1.44-24.57-2.19-37.34l7.7,1.71c.29,8.24.59,16.53.88,24.81.18.05.36.1.55.16,3.88-7.34,7.77-14.69,11.72-22.16l5.57,1.24c.44,8.4.89,16.81,1.38,26.12,4.15-8.16,7.9-15.53,11.77-23.12l7.8,1.74c-6.07,11.18-11.95,22.01-17.87,32.9-2.58-.57-4.76-1.06-7.34-1.63Z" style="fill: #fae189;"/>
    <path d="m945.83,916.5c10.54,1.74,20.45,3.37,30.24,4.98.42,3.21-4.27,25.53-6.36,30.76-2.9-.63-5.27-2.33-7.55-4.1-4.9-3.8-8.17-8.89-10.87-14.35-2.58-5.2-4.12-10.75-5.45-17.28Z" style="fill: #fae189;"/>
    <path d="m969.63,812.48c.2-.44.32-.98.63-1.37,5.38-6.58,11.18-12.69,18.83-16.74,5.24-2.78,10.59-4.03,16.66-3.55,0,3.46-1.26,6.72-1.91,10.06-.64,3.3-1.44,6.56-2.17,9.84-.75,3.36-1.51,6.73-2.23,9.95-4.4.12-26.16-5.94-29.81-8.18Z" style="fill: #fae189;"/>
    <path d="m1035.33,827.23c-4.67.24-26.9-3.56-30.25-5.18,2.2-9.86,4.4-19.76,6.66-29.91,4.08,1.15,7.11,3.49,9.89,6.18,5.56,5.37,8.95,12.05,11.34,19.27,1.03,3.13,2.41,6.22,2.36,9.64Z" style="fill: #fae189;"/>
    <path d="m914.08,914.63c9.18-.31,17.39.51,25.82,1.32,3.17,14.12,7.95,27.23,18.82,37.3-19.33-7.32-33.84-20.11-44.64-38.62Z" style="fill: #fae189;"/>
    <path d="m996.05,785.51c-6.77,2.15-13.02,5.31-18.22,10.1-5.12,4.72-9.84,9.88-15.19,15.31-7.21-2.89-14.9-5.97-22.74-9.11,8.23-10.13,41.41-19.77,56.14-16.29Z" style="fill: #fae189;"/>
    <path d="m1023.34,790.99c18.89,7.64,33.34,20.39,43.99,38.72-8.88.21-17.06-.45-25.59-1.33-.62-2.35-1.25-4.65-1.83-6.97-2.19-8.73-5.65-16.86-11.43-23.85-1.7-2.06-3.64-3.92-5.47-5.87.11-.24.22-.47.33-.71Z" style="fill: #fae189;"/>
    <path d="m982.27,923.4c5.75.45,10.55,2.5,15.81,3.92-.28,3.86-.53,7.45-.81,11.03-.18,2.28-.43,4.55-.64,6.82-.15,1.52-.55,2.85-2.03,3.7-5.69,3.25-11.63,5.52-18.86,4.91,1.87-10.28,4.39-20.21,6.54-30.39Z" style="fill: #fae189;"/>
    <path d="m985.67,958.93c3.05-1.21,6.1-2.43,9.3-3.7,1.07,1.34.49,2.67-.07,4.45-3.03-.03-6.1-.06-9.16-.08-.02-.22-.04-.45-.06-.67Z" style="fill: #fae189;"/>
  </g>
  <g>
    <polygon points="245.18 430.44 245.18 434.91 290.54 454.75 290.54 450.14 245.18 430.44" style="fill: #ede8f9;"/>
    <polygon points="374.53 428.77 374.53 433.25 290.54 454.75 290.54 450.14 374.53 428.77" style="fill: #ede8f9;"/>
    <polygon points="193.62 396.91 420.34 360.58 404.69 214.42 167.52 201.92 193.62 396.91" style="fill: #cdbeed;"/>
    <polygon points="400.12 222.14 176.73 209.86 201.04 387.7 414.8 354.26 400.12 222.14" style="fill: #ede8f9;"/>
    <polygon points="196.18 420.97 421.87 377.98 420.34 360.58 193.62 396.91 196.18 420.97" style="fill: #cdbeed;"/>
    <polygon points="196.18 420.97 190.8 419.35 163.68 203.72 167.52 201.92 193.62 396.91 196.18 420.97" style="fill: #ede8f9;"/>
    <polygon points="326.99 396.05 326.99 411.63 374.53 428.77 290.47 450.14 245.18 430.44 279.21 423.1 279.15 405.16 326.99 396.05" style="fill: #a397c4;"/>
    <polygon points="275.7 405.65 275.7 433 279.6 433.96 279.6 404.91 275.7 405.65" style="fill: #cdbeed;"/>
    <polygon points="396.64 242.5 187.65 238.43 193.62 282.09 399.72 270.83 396.64 242.5" style="fill: #e2d9f9;"/>
    <polygon points="396.51 237.76 185.65 231.11 185.31 228.79 396.27 235.45 396.51 237.76" style="fill: #cdbeed;"/>
    <path d="m209.46,225.49c-2.89,0-5.66-1.98-6.17-4.42s1.43-4.42,4.32-4.42,5.66,1.98,6.17,4.42-1.43,4.42-4.32,4.42Zm-1.44-6.9c-1.62,0-2.71,1.11-2.42,2.48s1.84,2.48,3.46,2.48,2.71-1.11,2.42-2.48-1.84-2.48-3.46-2.48Z" style="fill: #cdbeed;"/>
    <polygon points="196.18 225.49 194.01 222.33 192.09 225.49 189.7 225.49 192.55 221 187.82 216.65 190.21 216.65 193.39 219.67 195.2 216.65 197.6 216.65 194.86 221 198.56 225.49 196.18 225.49" style="fill: #cdbeed;"/>
    <polygon points="310.83 279.42 193.62 286.59 205.97 381.94 322.43 362.67 310.83 279.42" style="fill: #e2d9f9;"/>
    <polygon points="400.29 274.19 315.84 278.68 327.4 361.56 409.43 349.3 400.29 274.19" style="fill: #e2d9f9;"/>
  </g>
  <g>
    <rect x="714.1" y="1628.87" width="182.88" height="97.66" style="fill: #e2d9f9; opacity: .7;"/>
    <rect x="714.1" y="1493.46" width="182.88" height="97.66" style="fill: #e2d9f9; opacity: .7;"/>
    <rect x="935.2" y="1628.87" width="182.88" height="97.66" style="fill: #e2d9f9; opacity: .7;"/>
    <rect x="271.9" y="1628.87" width="182.88" height="97.66" style="fill: #e2d9f9; opacity: .7;"/>
    <rect x="714.1" y="1764.27" width="182.88" height="97.66" style="fill: #e2d9f9; opacity: .7;"/>
    <rect x="489.03" y="1764.27" width="182.88" height="97.66" style="fill: #e2d9f9; opacity: .7;"/>
    <rect x="489.03" y="1628.87" width="182.88" height="97.66" style="fill: #e2d9f9; opacity: .7;"/>
    <g style="opacity: .7;">
      <rect x="578.69" y="1726.53" width="3.56" height="37.75" style="fill: #cdbeed;"/>
    </g>
    <g style="opacity: .7;">
      <rect x="803.76" y="1726.53" width="3.56" height="37.75" style="fill: #cdbeed;"/>
    </g>
    <polygon points="1030.61 1607.89 1028.83 1607.89 807.05 1607.89 807.05 1591.12 803.49 1591.12 803.49 1607.89 365.12 1607.89 363.35 1607.89 361.57 1607.89 361.57 1628.87 365.12 1628.87 365.12 1611.44 578.69 1611.44 578.69 1628.87 582.25 1628.87 582.25 1611.44 803.76 1611.44 803.76 1628.87 807.32 1628.87 807.32 1611.44 1028.83 1611.44 1028.83 1628.87 1032.39 1628.87 1032.39 1607.89 1030.61 1607.89" style="fill: #cdbeed; opacity: .7;"/>
  </g>
  <g>
    <path d="m322.36,1248.43c-.04-1.84-.93-2.63-2.76-2.55-2.49.1-4.99.24-7.47.09-.9-.06-2-.71-2.58-1.43-2.59-3.19-5.07-6.48-7.48-9.81-.5-.7-.88-1.82-.7-2.61.54-2.43,1.31-4.82,2.12-7.18.68-2,.02-3.11-1.93-3.69-8.17-2.45-16.33-4.91-24.48-7.39-2.04-.62-3.28-.11-3.85,2.08-.66,2.55-1.5,5.05-2.34,7.85-15.28-14.68-33.03-20.91-53.6-16.63-20.5,4.26-34.55,16.78-42.65,36.12h0c-5.75,13.04-2.72,55.4,5.32,82.03-.76,4.61-1.31,9.26-2.34,13.81-.93,4.11-2.43,8.08-3.58,12.14-2.85,10.03,2.83,20.49,12.77,23.54,5.35,1.64,10.7,3.29,16.08,4.84,4.57,1.32,9.02.84,13.31-1.19,5.38-2.56,8.69-6.85,10.44-12.46,1.79-5.75,2.85-11.9,5.6-17.15,3.72-7.1,8.12-14.08,13.37-20.11,8.28-9.48,17.51-18.12,26.75-27.53,1.12,3.19,2.04,5.66,2.86,8.18.64,1.97,1.8,2.53,3.75,1.85,8.11-2.86,16.23-5.69,24.36-8.49,1.83-.63,2.44-1.7,1.76-3.55-.86-2.34-1.78-4.68-2.4-7.08-.22-.86.07-2.1.57-2.87,2.28-3.52,4.68-6.95,7.13-10.36.41-.57,1.24-1.14,1.91-1.18,2.65-.19,5.32-.21,7.98-.24,1.83-.02,2.69-.91,2.65-2.72-.19-8.76-.38-17.52-.55-26.28Zm-117.83,127.39c-5.71-1.61-11.4-3.34-17.05-5.16-8.03-2.58-12.14-11.73-8.87-19.78,14.61,4.41,29.23,8.83,44.02,13.3-1.37,8.12-10.29,13.84-18.11,11.63Zm19.49-15.85c-14.71-4.45-29.31-8.86-44.12-13.33.89-2.94,1.79-5.93,2.74-9.08,14.61,4.41,29.21,8.83,44.12,13.33-.93,3.07-1.81,6-2.74,9.08Zm86.47-86.47c-1.56,0-2.58.51-3.19,2.02-1.96,4.86-5.01,8.95-8.76,12.61-.63.62-.75,2.22-.49,3.21.7,2.63,1.73,5.18,2.68,7.92-7.38,2.58-14.5,5.08-22,7.7-.87-2.5-1.82-4.86-2.51-7.3-.54-1.92-1.64-2.57-3.57-3.03-4.47-1.06-8.89-2.41-13.2-4.02-1.95-.73-3.33-.78-4.92.57-1.88,1.6-3.91,3.01-6.05,4.63-4.78-6.3-9.37-12.35-14.09-18.57,2.24-1.7,4.24-3.3,6.34-4.77,1.5-1.06,2.11-2.17,1.62-4.12-1.19-4.72-1.35-9.53-.25-14.3.39-1.69-.18-2.76-1.58-3.68-2.22-1.45-4.35-3.02-6.76-4.7,4.45-6.4,8.79-12.65,13.27-19.09,2.36,1.61,4.6,3.03,6.72,4.62,1.35,1.01,2.48,1.19,3.97.26,4.29-2.67,9.01-4.16,14.01-4.97.99-.16,2.21-1.28,2.61-2.25,1.03-2.52,1.66-5.21,2.5-7.97,7.52,2.27,14.8,4.47,22.32,6.74-.81,2.69-1.52,5.25-2.37,7.76-.55,1.61-.22,2.78,1.09,3.86,3.85,3.17,6.75,7.09,8.8,11.63.66,1.45,1.55,2.06,3.19,1.96,2.72-.16,5.46-.08,8.41-.1.16,7.83.31,15.43.47,23.23-2.98.07-5.63.19-8.27.18Z" style="fill: #fae189;"/>
    <path d="m178.27,1218.29c.92-1.28-.02-2.38-1.36-3.02-2.55-1.24-5.09-2.5-7.63-3.76-6.09-3-12.18-6-18.86-9.3-.53.24-2.09.56-2.16,1.09-.13.92.39,2.5,1.11,2.87,8.57,4.39,17.2,8.65,25.89,12.78.77.37,2.55-.01,3.01-.66Z" style="fill: #fae189;"/>
    <path d="m187.08,1203.06c.89,1.11,1.9,2.29,3.41,1.13,1.66-1.26.7-2.58-.26-3.77-5.76-7.17-11.52-14.33-17.3-21.49-.42-.53-.96-.96-1.64-1.64-.73.34-1.98.57-2.08,1.04-.2.94-.1,2.27.45,2.98,5.73,7.3,11.58,14.51,17.4,21.74Z" style="fill: #fae189;"/>
    <path d="m254.73,1353c-.41-4.02-.71-8.05-1.29-12.04-.12-.83-1.16-1.74-2.01-2.17-.67-.34-1.69,0-2.55.03.21.44.42.88.63,1.33,0,.6-.06,1.2,0,1.79.92,9.23,1.86,18.46,2.8,27.69.15,1.43.4,2.93,2.33,2.69,1.86-.23,1.9-1.7,1.75-3.16-.55-5.38-1.1-10.77-1.64-16.15Z" style="fill: #fae189;"/>
    <path d="m272.05,1333.74c-.74-1.24-1.62-2.5-3.25-1.5-1.51.93-1.12,2.27-.33,3.59,2.3,3.83,4.56,7.69,6.84,11.53,2.46,4.14,4.87,8.31,7.42,12.39.47.75,1.47,1.36,2.34,1.6.49.13,1.23-.62,2.09-1.11-.41-1.07-.62-1.98-1.07-2.74-4.66-7.93-9.36-15.84-14.05-23.75Z" style="fill: #fae189;"/>
    <path d="m309.09,1332.72c-7.27-5.2-14.51-10.42-21.77-15.63-.49-.35-.99-.67-1.95-1.33-.63.39-2.05.86-2.05,1.34,0,.99.47,2.36,1.23,2.92,7.32,5.41,14.75,10.68,22.14,16.01,1.23.89,2.56,1.9,3.77.2,1.19-1.66-.11-2.61-1.37-3.51Z" style="fill: #fae189;"/>
    <path d="m200.48,1167.88c2.3,8.47,4.6,16.93,6.92,25.39.18.66.33,1.46.78,1.86.5.45,1.37.74,2.03.68.55-.06,1.05-.73,1.63-1.18-.19-.91-.3-1.67-.5-2.4-1.4-5.24-2.82-10.47-4.23-15.7-.98-3.65-1.85-7.35-3.03-10.93-.28-.86-1.64-1.95-2.45-1.91-1.6.08-1.85,1.49-1.45,2.94.12.41.18.84.3,1.26Z" style="fill: #fae189;"/>
    <path d="m282.85,1238.74c-12.93-3.92-26.78,3.54-30.68,16.53-3.87,12.89,3.41,26.54,16.31,30.56,12.93,4.03,26.77-3.33,30.71-16.35,3.95-13.05-3.36-26.8-16.34-30.74Z" style="fill: #fae189;"/>
  </g>
</svg>