<?xml version="1.0" encoding="UTF-8"?>
<svg id="Layer_1" data-name="Layer 1" xmlns="http://www.w3.org/2000/svg" viewBox="0 0 249.33 223.38">
  <path d="m114.74,215.78c-2.55,0-4.78-.82-6.69-2.44-1.91-1.63-2.65-3.79-2.23-6.48l9.35-49.92c.71-6.09,4.25-9.13,10.62-9.13h7.22c7.08,0,10.62,3.54,10.62,10.62v4.68c0,2.84-.1,4.81-.32,5.95s-.53,2.12-.96,2.97l-19.12,37.81c-1.99,3.96-4.82,5.94-8.5,5.94Zm11.05-179.28c-7.08,0-10.62-3.68-10.62-11.05v-7.22c0-7.08,3.54-10.62,10.62-10.62h7.22c7.08,0,10.62,3.54,10.62,10.62v7.22c0,7.37-3.54,11.05-10.62,11.05h-7.22Z" style="fill: #ceefc6;"/>
</svg>