<?xml version="1.0" encoding="UTF-8"?>
<svg id="Layer_1" data-name="Layer 1" xmlns="http://www.w3.org/2000/svg" viewBox="0 0 249.33 223.38">
  <path d="m70.2,140.79c-1.44,2.42-3.33,2.94-5.68,1.57L6.53,109.63c-1.96-1.04-2.94-2.81-2.94-5.29,0-2.22.98-3.85,2.94-4.9l57.99-32.33c2.35-1.37,4.24-.85,5.68,1.57,1.37,2.35.85,4.25-1.57,5.68l-56.23,31.15v-2.15l56.23,31.74c2.41,1.44,2.94,3.33,1.57,5.68Z" style="fill: #ceefc6;"/>
  <path d="m104.68,194.08c-1.63,0-2.79-.52-3.48-1.57-.69-1.05-.83-2.29-.44-3.72l40.16-156.34c.39-2.09,1.7-3.13,3.92-3.13,1.76,0,2.97.46,3.62,1.37s.82,2.22.49,3.92l-40.36,156.34c-.39,2.09-1.7,3.13-3.92,3.13Z" style="fill: #ceefc6;"/>
  <path d="m179.13,140.79c-1.37-2.35-.85-4.24,1.57-5.68l56.23-31.74v2.15l-56.23-31.15c-2.42-1.44-2.94-3.33-1.57-5.68,1.44-2.41,3.33-2.94,5.68-1.57l57.99,32.33c1.96,1.04,2.94,2.68,2.94,4.9,0,2.48-.98,4.25-2.94,5.29l-57.99,32.72c-2.35,1.37-4.25.85-5.68-1.57Z" style="fill: #ceefc6;"/>
</svg>