<?xml version="1.0" encoding="UTF-8"?>
<svg id="Layer_2" data-name="Layer 2" xmlns="http://www.w3.org/2000/svg" viewBox="0 0 512.4 512.4">
  <g id="Layer_1-2" data-name="Layer 1">
    <rect y="0" width="512.4" height="512.4" style="fill: #224920;"/>
    <g>
      <path d="m202.94,512.4h-50.86c0-.62-.25-1.01-.94-.97-2.16-1.11-4.29-2.27-6.5-3.29-1.14-.53-2.07-1.25-2.55-2.33-1.08-2.42-1.59-5.05-2.33-7.58-.72-2.48-1.43-5-2.22-7.44-1.08-3.31-2.05-6.67-3.06-9.99-1.25-4.1-2.4-8.24-3.6-12.36-.61-2.09-1.32-4.15-1.77-6.27-.24-1.1-.12-2.18.82-3.26,2.69-3.08,5.16-6.35,7.7-9.56,4.15-5.25,8.23-10.55,12.45-15.74,3.28-4.04,6.59-8.06,9.84-12.12,1.12-1.4,2.15-2.94,3.57-4.12.44-.36.68-.69,1.4-.38,3.56,1.49,7.22,2.74,10.74,4.33,5.33,2.4,10.82,4.42,16.21,6.67,3.14,1.31,6.3,2.54,9.48,3.76,1.41.54,2.67,1.26,2.94,2.83.49,2.84,1.53,5.56,2.01,8.38,1,5.89,2.84,11.57,4.08,17.4.92,4.35,2.05,8.69,3.19,13.01,1.48,5.62,2.57,11.34,4.15,16.94.36,1.27.26,2.46-.68,3.59-4.17,5.04-8.34,10.08-12.37,15.22-.68.86-1.78,1.62-1.78,2.95l-.1.2.16.14Z" style="fill: #fff;"/>
      <path d="m362.23,512.4h-74.37c-.02-.18-.04-.35-.05-.53-1.45-2.94-2.65-6.04-4.4-8.78-2.01-3.14-1.68-5.85-.06-9.02,4.22-8.25,8.18-16.64,12.22-24.99,3.88-8.02,7.76-16.05,11.54-24.12.63-1.35,1.66-1.94,2.86-2.08,4.56-.54,8.95-1.9,13.45-2.71,3.26-.59,6.47-1.45,9.72-2.07,5.25-.99,10.47-2.15,15.69-3.26.84-.18,1.39-.06,1.85.52.39.48.7,1.04.98,1.6,2.22,4.42,4.45,8.84,6.63,13.28,5.36,10.89,10.66,21.8,16.08,32.66.74,1.48.64,2.56-.08,3.98-3.93,7.67-7.76,15.39-11.59,23.12-.32.64-1.12,1.23-.54,2.12l-.07.16.14.11Z" style="fill: #fff;"/>
      <path d="m285.47,512.4h-80.12c0-.16,0-.32-.01-.48,2.33-2.88,4.75-5.69,6.95-8.67,2.05-2.78,4.63-5.14,6.37-8.17.52-.9,1.41-1.37,2.5-1.62,1.72-.4,3.34.07,4.99.22,7.31.67,14.61,1.41,21.91,2.12,9.29.89,18.57,1.86,27.88,2.59,2.15.17,3.32,1.02,4.2,2.85,1.72,3.59,3.55,7.13,5.34,10.69,0,.16,0,.32,0,.48Z" style="fill: #fff;"/>
      <path d="m140.57,512.4h-10.08c0-.16-.01-.33-.02-.49-1.14-2.65-2.28-5.31-3.43-7.96-2.06-4.75-3.75-9.65-5.05-14.64-1.39-5.32-2.59-10.71-3.21-16.22-.64-5.62-1.33-11.22-1.33-16.88,0-2.44-.16-4.88.15-7.6,1.44,1.85,2.67,3.5,3.98,5.1,2.94,3.59,5.25,7.5,6.42,12.05.89,3.46,1.9,6.89,2.89,10.33,1.14,3.95,2.3,7.9,3.46,11.85,1.38,4.69,2.71,9.39,4.17,14.06,1,3.21,1.86,6.43,2.25,9.77-.07.21-.14.43-.21.64Z" style="fill: #fff;"/>
      <path d="m382.38,512.4h-18.23c0-.17-.02-.34-.03-.5,3.99-7.92,8.12-15.78,11.91-23.8,1.32-2.79,3.39-4.75,5.54-6.67,2.17-1.94,4.36-3.9,6.64-5.7,1.91-1.51,3.4-3.55,5.65-4.65l.15.18.23-.04c-1.08,7.12-2.51,14.18-4.61,21.08-1.36,4.49-2.98,8.89-4.7,13.27-.82,2.1-2.02,4.07-2.49,6.31-.02.18-.03.35-.05.53Z" style="fill: #fff;"/>
      <path d="m0,57.57c.27-.03.54-.06.81-.09.3,2.24-.27,4.44-.27,6.68.04,128.25.03,256.5.03,384.75,0,1.03.17,2.08-.17,3.09l-.21.07-.18-.13C0,320.49,0,189.03,0,57.57Z" style="fill: #91a48f;"/>
      <path d="m454.35,0c0,.16,0,.31,0,.47-1.67,0-3.35,0-5.02,0-128.59,0-257.18,0-385.77,0-1.83,0-3.67,0-5.5.02,0-.16,0-.33-.01-.49C190.15,0,322.25,0,454.35,0Z" style="fill: #91a48f;"/>
      <path d="m512.4,454.35l-.23-.05-.22.07c-.27-1.91-.02-3.83-.02-5.74-.01-128.29-.01-256.58,0-384.86,0-1.91-.25-3.83.02-5.74.14.09.29.1.45.03v396.29Z" style="fill: #91a48f;"/>
      <path d="m382.38,512.4c.02-.18.03-.35.05-.53,2.05.08,4.1.17,6.15-.05.48.02.96.05,1.43.05,20.26,0,40.53,0,60.79,0,.71,0,1.43.06,2.14.1-.05.14-.07.28-.04.42h-70.53Z" style="fill: #91a48f;"/>
      <path d="m130.48,511.91c0,.16.01.33.02.49H59.97c.02-.14,0-.29-.05-.42.47-.04.95-.11,1.42-.11,9.49,0,18.98.01,28.47,0,11.48,0,22.97-.03,34.45-.04,2.07.03,4.14.05,6.21.08Z" style="fill: #91a48f;"/>
      <path d="m140.57,512.4c.07-.21.14-.43.21-.64,3.29.37,6.6.15,9.9.13.29,0,.36-.25.47-.45.69-.05.94.34.94.97h-11.51Z" style="fill: #91a48f;"/>
      <path d="m205.33,511.92c0,.16,0,.32.01.48h-2.4l-.16-.14s.1-.2.1-.2c.82-.05,1.64-.1,2.45-.14Z" style="fill: #91a48f;"/>
      <path d="m285.47,512.4c0-.16,0-.32,0-.48.78-.02,1.56-.03,2.34-.05.02.18.04.35.05.53h-2.4Z" style="fill: #91a48f;"/>
      <path d="m364.12,511.9c0,.17.02.34.03.5h-1.92l-.14-.11s.07-.16.07-.16c.63-.3,1.31-.14,1.96-.23Z" style="fill: #91a48f;"/>
      <path d="m364.12,511.9c-.65.09-1.33-.07-1.96.23-.58-.89.22-1.48.54-2.12,3.83-7.72,7.66-15.44,11.59-23.12.73-1.42.82-2.49.08-3.98-5.42-10.86-10.72-21.77-16.08-32.66-2.18-4.44-4.41-8.86-6.63-13.28-.28-.56-.59-1.12-.98-1.6-.47-.58-1.01-.7-1.85-.52-5.22,1.11-10.44,2.26-15.69,3.26-3.25.61-6.46,1.48-9.72,2.07-4.5.81-8.89,2.16-13.45,2.71-1.21.14-2.23.73-2.86,2.08-3.78,8.07-7.66,16.1-11.54,24.12-4.04,8.35-8,16.73-12.22,24.99-1.62,3.17-1.95,5.88.06,9.02,1.75,2.74,2.96,5.84,4.4,8.78-.78.02-1.56.03-2.34.05-1.79-3.56-3.62-7.1-5.34-10.69-.87-1.83-2.04-2.68-4.2-2.85-9.3-.74-18.59-1.7-27.88-2.59-7.31-.7-14.61-1.45-21.91-2.12-1.65-.15-3.27-.62-4.99-.22-1.09.26-1.99.73-2.5,1.62-1.74,3.03-4.31,5.39-6.37,8.17-2.2,2.98-4.62,5.79-6.95,8.67-.82.05-1.64.1-2.45.14,0-1.33,1.1-2.09,1.78-2.95,4.03-5.15,8.2-10.19,12.37-15.22.93-1.13,1.04-2.32.68-3.59-1.58-5.6-2.67-11.32-4.15-16.94-1.14-4.32-2.27-8.66-3.19-13.01-1.24-5.83-3.08-11.52-4.08-17.4-.48-2.82-1.52-5.54-2.01-8.38-.27-1.57-1.54-2.29-2.94-2.83-3.17-1.22-6.34-2.45-9.48-3.76-5.39-2.25-10.88-4.27-16.21-6.67-3.51-1.58-7.18-2.84-10.74-4.33-.72-.3-.96.02-1.4.38-1.41,1.18-2.45,2.72-3.57,4.12-3.25,4.07-6.56,8.08-9.84,12.12-4.22,5.19-8.3,10.5-12.45,15.74-2.54,3.21-5.01,6.48-7.7,9.56-.94,1.08-1.05,2.16-.82,3.26.45,2.12,1.16,4.19,1.77,6.27,1.2,4.12,2.35,8.26,3.6,12.36,1.01,3.32,1.98,6.68,3.06,9.99.79,2.44,1.5,4.96,2.22,7.44.74,2.53,1.25,5.16,2.33,7.58.48,1.08,1.41,1.81,2.55,2.33,2.2,1.02,4.33,2.19,6.5,3.29-.11.2-.18.45-.47.45-3.3.03-6.6.25-9.9-.13-.4-3.34-1.25-6.57-2.25-9.77-1.46-4.66-2.79-9.37-4.17-14.06-1.16-3.95-2.33-7.89-3.46-11.85-.99-3.44-2-6.87-2.89-10.33-1.17-4.55-3.48-8.46-6.42-12.05-1.31-1.6-2.54-3.25-3.98-5.1-.32,2.72-.16,5.16-.15,7.6,0,5.66.69,11.27,1.33,16.88.63,5.51,1.83,10.89,3.21,16.22,1.3,4.99,2.99,9.89,5.05,14.64,1.15,2.65,2.29,5.3,3.43,7.96-2.07-.03-4.14-.05-6.21-.08-1.52-3.51-3.05-7.02-4.31-10.64-3.1-8.89-5.54-17.93-6.91-27.28-.85-5.76-1.37-11.53-1.65-17.32-.2-4.21-.09-8.43.26-12.67.4-4.68.85-9.33,1.49-13.99,1.03-7.44,2.76-14.71,5.05-21.84,2.95-9.21,6.71-18.08,11.46-26.54,5.26-9.35,11.29-18.17,18.51-26.09,6.08-6.66,12.54-12.96,19.74-18.46,12.99-9.92,27.14-17.62,42.65-22.79,6.28-2.09,12.67-3.68,19.19-4.92,5.48-1.04,11-1.94,16.53-2.13,10.35-.36,20.71-.43,31.03,1.22,6.7,1.07,13.32,2.38,19.8,4.3,11.44,3.39,22.36,7.99,32.66,14.08,10.56,6.25,20.19,13.7,28.97,22.23,4.69,4.56,8.92,9.56,12.91,14.75,9.72,12.63,17.13,26.5,22.25,41.58,2.35,6.95,4.13,14.04,5.41,21.28,1.31,7.46,2.05,14.97,2.2,22.53.08,3.82,0,7.64-.32,11.47-.38,4.6-.84,9.18-1.5,13.75-1.09,7.51-2.98,14.82-5.21,22.05-1.63,5.27-3.79,10.32-5.9,15.4-2.05.22-4.1.13-6.15.05.47-2.24,1.66-4.22,2.49-6.31,1.72-4.38,3.34-8.77,4.7-13.27,2.09-6.9,3.52-13.95,4.61-21.08,0-.13.06-.33,0-.36-.24-.16-.33.01-.38.23-2.24,1.1-3.73,3.13-5.65,4.65-2.28,1.8-4.46,3.76-6.64,5.7-2.14,1.91-4.22,3.87-5.54,6.67-3.79,8.02-7.91,15.88-11.91,23.8Zm-102.79-114.58c-.81,1.53.37,3.04,1.91,4.33,1.89,1.59,3.64,3.32,5.51,4.91,1.51,1.29,2.84,2.78,4.41,3.98,2.66,2.03,5.07,4.33,7.51,6.6,1.91,1.78,3.86,3.55,5.83,5.24,3.73,3.2,7.27,6.62,11.06,9.75,2.62,2.17,5.14,4.47,7.64,6.78,1.16,1.07,2.39,1.43,3.93,1.14,3.25-.62,6.51-1.13,9.76-1.73,2.71-.5,5.4-1.07,8.11-1.57,4.73-.87,9.47-1.69,14.2-2.56,2.08-.38,4.14-.86,6.22-1.24,1.53-.28,2.44-1.05,2.46-2.69.01-1.51.43-2.96.69-4.43.66-3.79.89-7.64,1.58-11.44.68-3.74.95-7.54,1.77-11.27.37-1.68.47-3.43.61-5.15.17-1.95.63-3.85.83-5.78.19-1.81.98-3.54.94-5.26-.07-2.5.49-4.89.92-7.25.31-1.72.07-2.9-1.01-4.03-1.38-1.45-2.84-2.82-4.26-4.22-10.01-9.87-20.03-19.72-30.01-29.61-.97-.96-1.93-1.29-3.21-.9-1.4.42-2.81.87-4.24,1.17-7.83,1.64-15.53,3.77-23.3,5.61-4.49,1.07-9.01,1.99-13.46,3.21-3.39.93-6.89,1.43-10.22,2.59-1.88.66-2.7,1.49-2.6,3.31.19,3.69-.42,7.32-.75,10.97-.86,9.63-1.84,19.24-2.84,29.55Zm1.13-41.69c.12-1.92-.14-2.47-2.23-3.43-3.73-1.72-7.46-3.44-11.17-5.21-5.06-2.42-10.22-4.6-15.3-6.97-6.05-2.83-12.09-5.68-18.07-8.65-2.52-1.25-4.63-1.24-6.96.53-2.25,1.71-4.77,3.11-7.12,4.69-10.35,7.01-20.91,13.71-31.35,20.59-1.74,1.15-2.27,2.48-2.34,4.3-.31,7.9-.61,15.81-.95,23.71-.38,8.94-.8,17.88-1.22,26.82-.11,2.37.38,3.04,2.79,3.99,6.95,2.73,13.88,5.49,20.82,8.24,4.5,1.79,9,3.59,13.5,5.39,1.61.64,3.05.38,4.51-.54,3.55-2.22,7.15-4.36,10.76-6.49,4.97-2.94,9.97-5.83,14.94-8.77,4.96-2.94,9.88-5.94,14.84-8.88,2.82-1.67,5.71-3.21,8.49-4.94,1.19-.74,2.1-1.7,2.23-3.41.44-6.13,1.09-12.25,1.67-18.37.7-7.4,1.42-14.79,2.18-22.6Zm54.24-29.19c.52,2.39,1.63,4.09,2.4,5.91,1.54,3.63,3.38,7.02,6.33,9.88,11.24,10.92,22.29,22.03,33.39,33.1.58.57,1.2.99,1.91,1.32,4.3,1.96,8.57,3.98,12.91,5.86,1.24.54,2.45,1.41,4.35,1.23-9.2-16.22-20.82-29.98-35.26-41.32-7.97-6.26-16.41-11.77-26.03-15.97Zm-99.5-8.47c-26.27,8.02-47.84,22.09-65.73,42.18.86.35,1.44.13,2.04,0,1.99-.45,3.97-.97,5.99-1.26,3.93-.57,7.51-1.94,10.82-4.14,11.19-7.44,22.39-14.88,33.62-22.25,3.36-2.2,6.93-4.11,9.26-7.56,1.39-2.07,2.91-4.07,4-6.97Z" style="fill: #010101;"/>
      <path d="m334.36,85.4c-.4-2.8-1-5.57-1.95-8.23-1.27-3.59-3.27-6.73-6.5-8.91-3.07-2.07-6.52-3.16-10.19-3.44-3.35-.26-6.72-.21-10.03.5-8.52,1.82-14.22,6.64-16.47,15.28-.51,1.97-.48,3.92-.59,5.87-.39,6.71,1.4,12.73,5.84,17.94,4.01,4.7,8.92,8.38,13.45,12.49,4.69,4.25,9.64,8.32,10.53,15.23.27,2.09.29,4.1-.3,6.14-.69,2.39-2.86,3.62-5,3.7-3.79.14-7.17-2.61-7.96-6.51-.57-2.8-1.05-5.62-1.09-8.49-.01-1.04-.36-1.45-1.44-1.25-4.43.81-8.86,1.63-13.3,2.34-.92.15-1.03.57-.97,1.27.12,1.35.28,2.7.41,4.05.41,4.13,1.47,8.06,3.46,11.72,2.33,4.3,5.81,7.33,10.35,9.06,2.2.84,4.54,1.23,6.9,1.49,5.23.57,10.29.15,15.06-2.17,4.26-2.07,7.64-5.17,9.57-9.53,2.26-5.09,2.85-10.43,1.72-15.94-.57-2.76-1.21-5.48-2.59-7.98-2.16-3.94-4.92-7.45-8.18-10.5-3.2-2.99-6.58-5.78-9.85-8.7-2.5-2.23-4.95-4.5-6.97-7.19-2.36-3.14-2.79-6.66-2.14-10.4.18-1.03.69-1.94,1.23-2.84,1.37-2.25,3.48-2.54,5.82-2.28,2.22.25,3.66,1.49,4.36,3.56.89,2.63,1.35,5.34,1.49,8.12.1,1.96.13,1.94,2.12,1.64,3.83-.59,7.67-1.16,11.5-1.73,2-.3,2-.28,1.82-2.4-.03-.32-.05-.64-.08-.96.26-.34.22-.66-.07-.96Zm-198.27,122.79c-.04-.32-.11-.63-.11-.95.02-7.51.06-15.03.08-22.54,0-3.68.03-7.36-.03-11.03-.03-1.82-.1-1.85-1.93-1.86-4.4-.02-8.79-.02-13.19,0-3.24.01-3.01-.41-3.01,2.89,0,27.66,0,55.33,0,82.99,0,.56.03,1.12,0,1.68-.05.95.43,1.23,1.31,1.23,5.2-.02,10.39-.02,15.59,0,.93,0,1.31-.39,1.27-1.29-.03-.56,0-1.12,0-1.68,0-9.99.04-19.99-.03-29.98-.02-2.53,1.36-4.22,2.72-6.24,2.75,6.59,4.58,13.17,6.92,19.57,2.16,5.9,4.14,11.86,6.11,17.82.45,1.36,1.1,1.86,2.56,1.83,4.8-.09,9.59-.03,14.39-.04.53,0,1.11.17,1.55-.29.19-.87-.25-1.58-.51-2.32-1.78-4.92-3.57-9.84-5.37-14.76-3.61-9.87-7.18-19.75-10.9-29.57-.58-1.52-.47-2.9.13-4.13,2.36-4.85,4.16-9.93,6.36-14.84,1.35-3.02,2.56-6.11,3.83-9.17,1.79-4.28,3.58-8.55,5.35-12.83.08-.2.01-.46.01-.71-.27-.06-.49-.15-.72-.15-5.04-.01-10.07.02-15.11-.05-1.19-.02-1.66.51-2.09,1.5-2.39,5.52-4.88,11.02-7.19,16.57-2.24,5.37-4.55,10.72-6.75,16.11-.33.8-.51,1.7-1.29,2.24h.04Zm206.54,7.94c0-5.59-.02-11.19,0-16.78.02-3.61-.31-7.17-1.05-10.71-1.96-9.28-7.39-15.2-16.78-17.12-5.85-1.19-11.75-1.16-17.6.15-7.68,1.73-12.7,6.36-15.07,13.87-1.41,4.46-1.92,9.04-1.91,13.7.01,11.03.02,22.06,0,33.09,0,2.88.12,5.75.57,8.6.58,3.73,1.54,7.35,3.43,10.66,2.26,3.96,5.59,6.86,9.79,8.39,6.03,2.19,12.35,2.41,18.68,1.5,10.1-1.46,16.22-7.02,18.57-16.46.97-3.91,1.39-7.85,1.38-11.86-.01-5.67,0-11.35,0-17.02Zm-168.76-9.92c0,6.16,0,12.31,0,18.47,0,4.56-.07,9.12.31,13.66.38,4.56,1.2,9.03,3.34,13.15,2.33,4.49,6.06,7.53,10.77,8.94,5.87,1.76,11.96,1.9,18.05,1.04,9.69-1.36,15.43-6.48,17.77-15.95.17-.7.31-1.4.46-2.1,1.06-4.81.93-9.69.93-14.56,0-18.23,0-36.46,0-54.69,0-2.35-.01-2.36-2.33-2.36-4.4,0-8.8,0-13.19,0-2.33,0-2.33.02-2.35,2.36,0,.48,0,.96,0,1.44,0,19.83.01,39.66-.01,59.49,0,2.79-.11,5.61-.87,8.32-.58,2.06-1.59,3.94-3.77,4.65-4.17,1.36-8.6.64-10.13-4.61-.2-.69-.36-1.39-.47-2.1-.37-2.46-.49-4.93-.49-7.41.01-19.75.01-39.5,0-59.25,0-3.18.31-2.88-2.76-2.89-4-.01-8,0-11.99,0-3.22,0-3.24,0-3.24,3.22,0,10.39,0,20.79,0,31.18Zm209.47,10.48c-.11.04-.21.08-.32.12-.5-.87-1.17-1.69-1.48-2.62-1.52-4.64-3.67-9.01-5.56-13.49-2.22-5.27-4.52-10.51-6.84-15.74-1.7-3.83-3.24-7.75-4.8-11.65-.46-1.16-1.1-1.56-2.31-1.52-2.72.08-5.43.01-8.15.03-3.01.01-2.8-.33-2.8,2.87,0,27.34,0,54.67,0,82.01,0,.72-.02,1.44,0,2.16.05,1.7.05,1.74,1.73,1.75,3.68.03,7.35.02,11.03,0,3.02,0,2.71.24,2.71-2.69,0-14.23,0-28.46,0-42.68v-2.21c1.04.97,1.19,2.16,1.62,3.24,2.14,5.31,4.4,10.57,6.55,15.87,3.6,8.88,7.17,17.78,10.69,26.69.51,1.28,1.11,1.9,2.6,1.83,2.79-.13,5.59-.02,8.39-.04,1.83-.01,1.84-.04,1.88-1.83,0-.4,0-.8,0-1.2,0-27.58,0-55.15,0-82.73,0-.48-.04-.96,0-1.44.14-1.28-.46-1.63-1.67-1.61-3.84.06-7.67,0-11.51.03-1.71.01-1.75.05-1.76,1.72-.03,3.36,0,6.71,0,10.07,0,11.03,0,22.06,0,33.09Zm-149.17-106.56c0,14.15,0,28.3,0,42.44,0,1.97.02,1.99,1.92,2,3.6.02,7.19,0,10.79,0,1.36,0,2.72-.04,4.08.01.97.03,1.53-.22,1.42-1.32-.06-.55,0-1.12,0-1.68,0-10.87,0-21.74,0-32.61,0-.56.02-1.12,0-1.68-.04-.8.29-1.16,1.12-1.15,1.52.03,3.04-.02,4.56,0,4.39.07,8.75-.1,13-1.43,3.94-1.23,7.22-3.26,9.85-6.6,2.56-3.26,3.54-6.97,4.15-10.85,1.07-6.79.43-13.46-2.12-19.86-1.62-4.06-4.42-7.25-8.4-9.11-3.74-1.75-7.75-2.57-11.92-2.55-8.63.04-17.27.01-25.9.01-.4,0-.8.04-1.2,0-1.1-.11-1.4.46-1.32,1.43.04.56,0,1.12,0,1.68,0,13.75,0,27.5,0,41.25Zm.32,106.05c0,13.74,0,27.49,0,41.23,0,.64.03,1.28,0,1.92-.04.9.33,1.29,1.25,1.28,5.19-.02,10.39-.03,15.58,0,1.09,0,1.39-.51,1.34-1.47-.03-.56,0-1.12,0-1.68,0-8.39,0-16.78,0-25.17,0-2.72-.02-5.43,0-8.15.02-1.93.04-1.94,2.04-1.96,2.32-.02,4.63,0,6.95,0,3.54,0,7.01-.53,10.36-1.64,6.58-2.17,10.94-6.63,12.49-13.37,1.81-7.89,1.84-15.74-1.35-23.46-2.17-5.25-5.83-8.66-11.06-10.51-2.88-1.02-5.89-1.4-8.95-1.4-7.19,0-14.38,0-21.57,0-1.92,0-3.84.02-5.75,0-.88-.01-1.36.28-1.33,1.23.02.64,0,1.28,0,1.92,0,13.74,0,27.49,0,41.23Zm-46.41-99.06c0-11.91,0-23.81,0-35.72,0-2.06.02-2.08,2.1-2.09,3.2-.01,6.39,0,9.59,0,1.74,0,1.77-.03,1.78-1.65.02-3.44-.04-6.87.03-10.31.03-1.28-.44-1.6-1.66-1.6-14.06.04-28.12.03-42.19,0-1.2,0-1.71.3-1.68,1.6.07,3.43.07,6.87,0,10.31-.03,1.24.34,1.7,1.62,1.67,3.43-.07,6.87-.04,10.31-.02,1.83,0,1.83.03,1.87,1.84.01.48,0,.96,0,1.44,0,22.85,0,45.7,0,68.55,0,.56,0,1.12,0,1.68.03,1.7.04,1.73,1.68,1.74,3.12.02,6.23,0,9.35,0,1.92,0,3.84-.06,5.75.02,1.18.05,1.59-.4,1.46-1.53-.06-.47,0-.96,0-1.44,0-11.51,0-23.01,0-34.52Zm36.02-6.76c0-13.83.01-27.65,0-41.48,0-3.6.45-3.07-2.98-3.1-4-.03-7.99-.03-11.99,0-3.29.02-2.96-.51-2.96,2.89,0,27.65,0,55.3,0,82.95,0,.48.04.96,0,1.44-.12,1.1.23,1.55,1.44,1.54,5.03-.06,10.07-.04,15.1-.01.97,0,1.53-.21,1.41-1.32-.06-.55,0-1.12,0-1.68,0-13.75,0-27.49,0-41.24Z" style="fill: #224920;"/>
      <path d="m393.85,471.08c.05-.21.15-.38.38-.23.05.04,0,.24,0,.36,0,0-.23.04-.23.04l-.15-.18Z" style="fill: #91a48f;"/>
      <path d="m261.33,397.31c1-10.3,1.98-19.92,2.84-29.55.32-3.65.94-7.28.75-10.97-.09-1.82.72-2.65,2.6-3.31,3.33-1.16,6.83-1.66,10.22-2.59,4.44-1.22,8.97-2.14,13.46-3.21,7.77-1.85,15.48-3.98,23.3-5.61,1.43-.3,2.84-.75,4.24-1.17,1.28-.38,2.23-.06,3.21.9,9.98,9.9,20,19.75,30.01,29.61,1.42,1.4,2.88,2.77,4.26,4.22,1.07,1.13,1.32,2.31,1.01,4.03-.43,2.36-.99,4.75-.92,7.25.05,1.72-.75,3.46-.94,5.26-.2,1.92-.66,3.83-.83,5.78-.15,1.72-.25,3.47-.61,5.15-.81,3.73-1.09,7.54-1.77,11.27-.69,3.8-.92,7.65-1.58,11.44-.26,1.47-.68,2.92-.69,4.43-.01,1.64-.93,2.41-2.46,2.69-2.08.38-4.14.85-6.22,1.24-4.73.87-9.47,1.69-14.2,2.56-2.71.5-5.4,1.07-8.11,1.57-3.25.59-6.52,1.11-9.76,1.73-1.54.29-2.77-.07-3.93-1.14-2.5-2.31-5.02-4.61-7.64-6.78-3.79-3.13-7.33-6.55-11.06-9.75-1.97-1.69-3.92-3.46-5.83-5.24-2.43-2.26-4.85-4.57-7.51-6.6-1.57-1.19-2.9-2.69-4.41-3.98-1.86-1.59-3.62-3.33-5.51-4.91-1.54-1.29-2.71-2.8-1.91-4.33Z" style="fill: #fff;"/>
      <path d="m262.46,355.62c-.75,7.81-1.47,15.21-2.18,22.6-.58,6.12-1.23,12.24-1.67,18.37-.12,1.71-1.03,2.67-2.23,3.41-2.78,1.73-5.68,3.27-8.49,4.94-4.96,2.94-9.88,5.94-14.84,8.88-4.97,2.94-9.97,5.83-14.94,8.77-3.6,2.13-7.21,4.28-10.76,6.49-1.47.91-2.9,1.18-4.51.54-4.5-1.8-8.99-3.6-13.5-5.39-6.94-2.76-13.87-5.52-20.82-8.24-2.4-.94-2.9-1.62-2.79-3.99.42-8.94.83-17.88,1.22-26.82.34-7.9.64-15.81.95-23.71.07-1.82.6-3.15,2.34-4.3,10.44-6.88,21-13.58,31.35-20.59,2.35-1.59,4.86-2.98,7.12-4.69,2.33-1.77,4.44-1.78,6.96-.53,5.98,2.97,12.02,5.82,18.07,8.65,5.08,2.37,10.25,4.55,15.3,6.97,3.71,1.77,7.44,3.49,11.17,5.21,2.09.96,2.36,1.51,2.23,3.43Z" style="fill: #fff;"/>
      <path d="m316.7,326.43c9.62,4.2,18.06,9.71,26.03,15.97,14.44,11.34,26.06,25.1,35.26,41.32-1.91.17-3.11-.69-4.35-1.23-4.33-1.88-8.61-3.9-12.91-5.86-.72-.33-1.33-.74-1.91-1.32-11.1-11.06-22.15-22.18-33.39-33.1-2.95-2.86-4.78-6.25-6.33-9.88-.77-1.82-1.88-3.52-2.4-5.91Z" style="fill: #fff;"/>
      <path d="m217.2,317.96c-1.09,2.9-2.61,4.91-4,6.97-2.32,3.45-5.9,5.35-9.26,7.56-11.24,7.37-22.43,14.81-33.62,22.25-3.31,2.2-6.89,3.57-10.82,4.14-2.01.29-4,.81-5.99,1.26-.6.14-1.18.35-2.04,0,17.89-20.09,39.46-34.16,65.73-42.18Z" style="fill: #fff;"/>
      <path d="m342.63,216.13c0,5.67,0,11.35,0,17.02,0,4.01-.41,7.96-1.38,11.86-2.34,9.43-8.47,15-18.57,16.46-6.34.91-12.65.69-18.68-1.5-4.2-1.52-7.53-4.42-9.79-8.39-1.89-3.31-2.85-6.93-3.43-10.66-.44-2.85-.57-5.72-.57-8.6.02-11.03.02-22.06,0-33.09,0-4.66.5-9.24,1.91-13.7,2.37-7.51,7.4-12.15,15.07-13.87,5.85-1.32,11.75-1.35,17.6-.15,9.39,1.92,14.82,7.84,16.78,17.12.75,3.53,1.07,7.1,1.05,10.71-.02,5.59,0,11.19,0,16.78Zm-18.38.11c0-6.79,0-13.57,0-20.36,0-2.48-.21-4.95-.88-7.34-.52-1.84-1.56-3.32-3.35-4.15-4.77-2.22-9.54.05-10.78,5.14-.13.54-.22,1.09-.28,1.65-.22,2.22-.36,4.45-.36,6.69.03,12.14.03,24.27,0,36.41,0,2.4.18,4.78.35,7.17.43,6.04,4,7.72,8.75,7.2.24-.03.48-.04.71-.08,1.77-.26,3.1-1.15,4.06-2.67.74-1.17,1.16-2.46,1.32-3.81.25-2.06.48-4.11.47-6.2-.04-6.55-.02-13.09-.02-19.64Z" style="fill: #fbbc02;"/>
      <path d="m173.87,206.21c0-10.39,0-20.79,0-31.18,0-3.22.02-3.22,3.24-3.22,4,0,8,0,11.99,0,3.07,0,2.76-.28,2.76,2.89,0,19.75,0,39.5,0,59.25,0,2.48.12,4.96.49,7.41.11.71.27,1.41.47,2.1,1.53,5.25,5.97,5.97,10.13,4.61,2.18-.71,3.2-2.59,3.77-4.65.76-2.71.87-5.52.87-8.32.03-19.83.01-39.66.01-59.49,0-.48,0-.96,0-1.44.02-2.35.02-2.36,2.35-2.36,4.4,0,8.8,0,13.19,0,2.32,0,2.33.01,2.33,2.36,0,18.23,0,36.46,0,54.69,0,4.88.14,9.76-.93,14.56-.16.7-.29,1.41-.46,2.1-2.34,9.46-8.08,14.59-17.77,15.95-6.1.86-12.19.72-18.05-1.04-4.71-1.42-8.44-4.45-10.77-8.94-2.14-4.12-2.96-8.59-3.34-13.15-.38-4.54-.32-9.1-.31-13.66.01-6.16,0-12.31,0-18.47Z" style="fill: #fbbc02;"/>
      <path d="m383.34,216.68c0-11.03,0-22.06,0-33.09,0-3.36-.02-6.71,0-10.07.01-1.67.05-1.71,1.76-1.72,3.84-.02,7.67.03,11.51-.03,1.21-.02,1.81.33,1.67,1.61-.05.47,0,.96,0,1.44,0,27.58,0,55.15,0,82.73,0,.4,0,.8,0,1.2-.04,1.8-.04,1.82-1.88,1.83-2.8.02-5.6-.09-8.39.04-1.49.07-2.1-.55-2.6-1.83-3.52-8.91-7.09-17.8-10.69-26.69-2.15-5.3-4.41-10.56-6.55-15.87-.43-1.08-.58-2.27-1.62-3.24v2.21c0,14.23,0,28.46,0,42.68,0,2.92.31,2.68-2.71,2.69-3.68,0-7.35.02-11.03,0-1.68-.01-1.68-.05-1.73-1.75-.02-.72,0-1.44,0-2.16,0-27.34,0-54.67,0-82.01,0-3.2-.21-2.85,2.8-2.87,2.72-.01,5.44.05,8.15-.03,1.21-.03,1.85.36,2.31,1.52,1.56,3.9,3.1,7.82,4.8,11.65,2.33,5.23,4.63,10.46,6.84,15.74,1.89,4.48,4.04,8.85,5.56,13.49.31.94.98,1.75,1.48,2.62.11-.04.21-.08.32-.12Z" style="fill: #fbbc02;"/>
      <path d="m136.06,208.19c.78-.55.97-1.44,1.29-2.24,2.2-5.39,4.51-10.74,6.75-16.11,2.31-5.55,4.8-11.04,7.19-16.57.43-.99.9-1.52,2.09-1.5,5.04.07,10.07.03,15.11.05.23,0,.45.09.72.15,0,.25.07.52-.01.71-1.77,4.28-3.57,8.55-5.35,12.83-1.28,3.06-2.48,6.14-3.83,9.17-2.2,4.91-4,10-6.36,14.84-.6,1.24-.71,2.61-.13,4.13,3.72,9.83,7.29,19.71,10.9,29.57,1.8,4.92,3.59,9.83,5.37,14.76.27.74.71,1.45.51,2.32-.44.45-1.03.28-1.55.29-4.8.02-9.6-.05-14.39.04-1.46.03-2.11-.47-2.56-1.83-1.97-5.96-3.95-11.92-6.11-17.82-2.34-6.4-4.17-12.98-6.92-19.57-1.36,2.02-2.74,3.71-2.72,6.24.07,9.99.03,19.99.03,29.98,0,.56-.03,1.12,0,1.68.04.9-.34,1.29-1.27,1.29-5.2-.02-10.39-.02-15.59,0-.88,0-1.36-.28-1.31-1.23.03-.56,0-1.12,0-1.68,0-27.66,0-55.33,0-82.99,0-3.3-.23-2.88,3.01-2.89,4.4-.02,8.79-.02,13.19,0,1.82,0,1.9.04,1.93,1.86.06,3.68.04,7.36.03,11.03-.02,7.51-.06,15.03-.08,22.54,0,.32.07.63.11.95,0,0-.08.18-.08.18l.05-.18Z" style="fill: #fbbc02;"/>
      <path d="m234.17,110.12c0-13.75,0-27.5,0-41.25,0-.56.04-1.12,0-1.68-.07-.97.23-1.55,1.32-1.43.4.04.8,0,1.2,0,8.63,0,17.27.03,25.9-.01,4.17-.02,8.18.79,11.92,2.55,3.98,1.87,6.78,5.06,8.4,9.11,2.55,6.4,3.2,13.07,2.12,19.86-.61,3.87-1.6,7.59-4.15,10.85-2.62,3.34-5.91,5.37-9.85,6.6-4.24,1.33-8.6,1.5-13,1.43-1.52-.02-3.04.02-4.56,0-.83-.02-1.15.35-1.12,1.15.03.56,0,1.12,0,1.68,0,10.87,0,21.74,0,32.61,0,.56-.05,1.12,0,1.68.11,1.1-.45,1.36-1.42,1.32-1.36-.05-2.72-.01-4.08-.01-3.6,0-7.19.01-10.79,0-1.9,0-1.92-.03-1.92-2,0-14.15,0-28.3,0-42.44Zm18.26-30.95c-.02,3.11-.06,6.23-.06,9.34-.01,4.47.02,8.95-.02,13.42,0,.97.21,1.49,1.31,1.47,2.71-.04,5.45.17,8.13-.3,2.42-.43,4.65-1.46,5.41-4.01,1.57-5.34,1.74-10.75.05-16.12-.5-1.59-1.54-2.71-3.16-3.33-3.66-1.41-7.46-1.07-11.24-.95-.38-.05-.51.12-.41.48Z" style="fill: #fff;"/>
      <path d="m234.48,216.17c0-13.74,0-27.49,0-41.23,0-.64.02-1.28,0-1.92-.03-.94.45-1.24,1.33-1.23,1.92.03,3.84,0,5.75,0,7.19,0,14.38,0,21.57,0,3.06,0,6.07.38,8.95,1.4,5.23,1.85,8.89,5.26,11.06,10.51,3.19,7.72,3.17,15.57,1.35,23.46-1.55,6.73-5.9,11.19-12.49,13.37-3.36,1.11-6.82,1.64-10.36,1.64-2.32,0-4.63-.01-6.95,0-2,.02-2.02.03-2.04,1.96-.02,2.72,0,5.43,0,8.15,0,8.39,0,16.78,0,25.17,0,.56-.03,1.12,0,1.68.05.96-.25,1.47-1.34,1.47-5.19-.03-10.39-.03-15.58,0-.93,0-1.3-.38-1.25-1.28.03-.64,0-1.28,0-1.92,0-13.74,0-27.49,0-41.23Zm23.35-31.52c-1.43,0-2.55.05-3.67-.01-1.15-.07-1.53.4-1.52,1.53.03,7.27.03,14.54,0,21.81,0,1.17.5,1.51,1.58,1.51,2.48,0,4.96,0,7.42-.29,3.57-.41,5.69-2.28,6.42-5.79.89-4.27.83-8.59,0-12.86-.59-3.01-2.46-4.93-5.53-5.61-1.66-.37-3.34-.25-4.7-.3Z" style="fill: #fbbc02;"/>
      <path d="m334.44,86.36c.03.32.05.64.08.96.17,2.11.17,2.1-1.82,2.4-3.84.57-7.67,1.15-11.5,1.73-2,.31-2.02.32-2.12-1.64-.14-2.77-.6-5.49-1.49-8.12-.7-2.07-2.14-3.31-4.36-3.56-2.34-.26-4.45.03-5.82,2.28-.54.89-1.05,1.81-1.23,2.84-.65,3.74-.23,7.26,2.14,10.4,2.03,2.69,4.48,4.96,6.97,7.19,3.27,2.92,6.66,5.7,9.85,8.7,3.27,3.06,6.02,6.56,8.18,10.5,1.37,2.5,2.02,5.22,2.59,7.98,1.14,5.51.54,10.85-1.72,15.94-1.93,4.36-5.31,7.46-9.57,9.53-4.77,2.32-9.84,2.74-15.06,2.17-2.37-.26-4.71-.65-6.9-1.49-4.54-1.73-8.02-4.76-10.35-9.06-1.99-3.66-3.05-7.6-3.46-11.72-.13-1.35-.29-2.7-.41-4.05-.06-.69.05-1.12.97-1.27,4.45-.71,8.87-1.53,13.3-2.34,1.07-.2,1.43.21,1.44,1.25.04,2.87.52,5.69,1.09,8.49.79,3.9,4.17,6.65,7.96,6.51,2.14-.08,4.31-1.31,5-3.7.59-2.04.57-4.05.3-6.14-.9-6.91-5.84-10.98-10.53-15.23-4.54-4.11-9.45-7.79-13.45-12.49-4.44-5.21-6.23-11.23-5.84-17.94.11-1.95.08-3.91.59-5.87,2.25-8.64,7.95-13.46,16.47-15.28,3.31-.71,6.68-.75,10.03-.5,3.66.28,7.11,1.37,10.19,3.44,3.23,2.18,5.23,5.32,6.5,8.91.95,2.66,1.54,5.43,1.95,8.23-.26.34-.21.66.07.96Z" style="fill: #fff;"/>
      <path d="m188.07,117.11c0,11.51,0,23.01,0,34.52,0,.48-.05.96,0,1.44.13,1.13-.28,1.58-1.46,1.53-1.91-.08-3.83-.02-5.75-.02-3.12,0-6.23.02-9.35,0-1.64-.01-1.65-.04-1.68-1.74-.01-.56,0-1.12,0-1.68,0-22.85,0-45.7,0-68.55,0-.48,0-.96,0-1.44-.04-1.8-.04-1.83-1.87-1.84-3.44-.02-6.87-.05-10.31.02-1.28.03-1.64-.44-1.62-1.67.07-3.43.07-6.87,0-10.31-.03-1.3.48-1.6,1.68-1.6,14.06.03,28.12.03,42.19,0,1.22,0,1.69.32,1.66,1.6-.07,3.43-.01,6.87-.03,10.31,0,1.61-.04,1.64-1.78,1.65-3.2.02-6.39,0-9.59,0-2.08,0-2.1.02-2.1,2.09,0,11.91,0,23.81,0,35.72Z" style="fill: #fff;"/>
      <path d="m224.1,110.35c0,13.75,0,27.49,0,41.24,0,.56-.05,1.12,0,1.68.12,1.1-.44,1.32-1.41,1.32-5.03-.03-10.07-.05-15.1.01-1.21.02-1.56-.44-1.44-1.54.05-.47,0-.96,0-1.44,0-27.65,0-55.3,0-82.95,0-3.39-.32-2.86,2.96-2.89,4-.03,7.99-.03,11.99,0,3.43.03,2.97-.5,2.98,3.1.02,13.83,0,27.65,0,41.48Z" style="fill: #fff;"/>
      <path d="m334.44,86.36c-.29-.3-.33-.62-.07-.96.29.3.33.62.07.96Z" style="fill: #91a48f;"/>
      <polygon points="136.06 208.19 136.01 208.37 136.09 208.19 136.06 208.19" style="fill: #4c6b4a;"/>
      <path d="m324.25,216.24c0,6.55-.03,13.09.02,19.64.01,2.09-.22,4.14-.47,6.2-.16,1.35-.59,2.64-1.32,3.81-.95,1.51-2.29,2.41-4.06,2.67-.24.03-.48.05-.71.08-4.75.52-8.32-1.16-8.75-7.2-.17-2.39-.36-4.77-.35-7.17.03-12.14.03-24.27,0-36.41,0-2.24.13-4.47.36-6.69.06-.55.15-1.11.28-1.65,1.24-5.09,6.01-7.36,10.78-5.14,1.79.83,2.83,2.32,3.35,4.15.67,2.39.88,4.86.88,7.34,0,6.79,0,13.57,0,20.36Z" style="fill: #224920;"/>
      <path d="m252.84,78.69c3.78-.12,7.58-.45,11.24.95,1.62.62,2.66,1.74,3.16,3.33,1.7,5.37,1.53,10.78-.05,16.12-.75,2.55-2.99,3.59-5.41,4.01-2.68.48-5.42.26-8.13.3-1.1.02-1.32-.5-1.31-1.47.04-4.47,0-8.95.02-13.42,0-3.11.04-6.23.06-9.34.14-.16.28-.32.41-.48Z" style="fill: #224920;"/>
      <path d="m252.84,78.69c-.14.16-.28.32-.41.48-.09-.36.04-.53.41-.48Z" style="fill: #4c6b4a;"/>
      <path d="m257.83,184.64c1.36.05,3.03-.07,4.7.3,3.07.68,4.94,2.59,5.53,5.61.84,4.27.89,8.58,0,12.86-.73,3.51-2.86,5.38-6.42,5.79-2.46.28-4.94.28-7.42.29-1.09,0-1.59-.34-1.58-1.51.03-7.27.03-14.54,0-21.81,0-1.13.37-1.6,1.52-1.53,1.11.07,2.24.01,3.67.01Z" style="fill: #224920;"/>
    </g>
  </g>
</svg>