<?xml version="1.0" encoding="UTF-8"?>
<svg id="Layer_2" data-name="Layer 2" xmlns="http://www.w3.org/2000/svg" viewBox="0 0 500 500">
  <g id="Layer_1-2" data-name="Layer 1">
    <rect width="500" height="500" rx="50.74" ry="50.74" style="fill: #87ceeb;"/>
    <path d="m248.14,431c-44.3-.17-83.55-14.62-116.73-42.84-34.72-29.5-55.59-67.22-62.08-111.94-5.56-38.57.26-74.74,17.36-107.49,28.13-53.7,72.18-86.37,131.01-96.98,10.69-1.97,21.55-2.91,32.07-2.91,28.56,0,56.7,7.18,83.55,21.29,13.85,7.27,26.94,16.59,38.82,27.79.94.94,2.22,2.39,2.22,4.36,0,2.31-1.62,3.76-2.31,4.36-5.3,4.96-10.52,9.83-15.22,15.05-1.2,1.37-2.57,2.05-4.02,2.05-1.97,0-3.34-1.28-4.19-2.05-13.6-12.66-29.42-22.58-47.03-29.42-16.85-6.58-34.55-9.92-52.51-9.92-4.7,0-9.49.26-14.28.68-37.37,3.51-69.35,19.41-95.09,47.12-21.29,22.92-34.04,50.45-37.88,81.75-3.68,29.93,1.28,58.49,14.71,84.75,17.87,34.89,45.75,59.43,82.95,72.95,15.31,5.56,31.47,8.38,47.8,8.38,3.25,0,6.5-.09,9.75-.34,39.77-2.65,73.46-18.73,100.14-47.72,22.32-24.2,35.15-53.02,38.23-85.77,2.22-23.6-.94-46.44-9.49-67.9-.86-2.22-1.54-5.22.94-8.38,2.91-3.68,5.73-7.35,8.55-11.03l6.16-7.95c1.2-1.54,2.39-3.08,4.53-3.08,2.57,0,3.68,2.22,4.62,4.1,9.66,19.58,15.74,40.71,17.87,62.94,2.91,29.85-1.37,58.84-12.66,86.12-15.91,38.31-42.5,68.41-79.27,89.36-20.61,11.8-43.87,19.16-69.01,21.98-5.22.6-10.78.86-16.42.86h-3.08v-.17Z" style="fill: #261f8b;"/>
    <path d="m367.18,202.5c-30.19,39-78.59,111.86-86.2,119.21-16.85,16.25-41.48,17.87-60.03,3.68-3.08-2.39-5.3-5.47-7.53-8.55-20.52-28.13-41.05-56.36-61.49-84.49-1.2-1.62-2.74-3.08-3.25-5.22-.77-3.16-.43-6.16,1.62-8.89,9.24-12.31,24.97-16.08,40.11-9.41,7.95,3.51,14.45,8.72,19.5,15.99,11.8,17.02,23.94,33.86,35.92,50.8,2.48,3.51,3.25,3.59,6.07.09,11.89-15.05,37.71-52.08,51.91-67.04,20.1-22.23,49.6-57.47,91.59-91.33,64.74-50.45,77.73-46.86,78.59-47.38.17.17-70.55,80.3-106.72,132.55h-.09Z" style="fill: #261f8b;"/>
    <text transform="translate(257.57 263.23) rotate(-52.9)" style="fill: #fff; font-family: Oswald-Regular, Oswald; font-size: 48px;"><tspan x="0" y="0">T</tspan></text>
    <text transform="translate(269.44 247.49) rotate(-52.13)" style="fill: #fff; font-family: Oswald-Regular, Oswald; font-size: 48px;"><tspan x="0" y="0">O</tspan></text>
    <text transform="translate(285.2 227.19) rotate(-50.89)" style="fill: #fff; font-family: Oswald-Regular, Oswald; font-size: 48px;"><tspan x="0" y="0">D</tspan></text>
    <text transform="translate(300.86 207.79) rotate(-48.48)" style="fill: #fff; font-family: Oswald-Regular, Oswald; font-size: 48px;"><tspan x="0" y="0">O</tspan></text>
    <text transform="translate(317.68 189.06) rotate(-43.57)" style="fill: #fff; font-family: Oswald-Regular, Oswald; font-size: 48px;"><tspan x="0" y="0">S</tspan></text>
    <rect y=".2" width="499.6" height="499.6" style="opacity: .65;"/>
  </g>
</svg>