<?xml version="1.0" encoding="UTF-8"?>
<svg id="Layer_2" data-name="Layer 2" xmlns="http://www.w3.org/2000/svg" viewBox="0 0 500 500">
  <g id="Layer_1-2" data-name="Layer 1">
    <rect width="500" height="500" rx="50.74" ry="50.74" style="fill: #87ceeb;"/>
    <path d="m248.14,431c-44.3-.17-83.55-14.62-116.73-42.84-34.72-29.5-55.59-67.22-62.08-111.94-5.56-38.57.26-74.74,17.36-107.49,28.13-53.7,72.18-86.37,131.01-96.98,10.69-1.97,21.55-2.91,32.07-2.91,28.56,0,56.7,7.18,83.55,21.29,13.85,7.27,26.94,16.59,38.82,27.79.94.94,2.22,2.39,2.22,4.36,0,2.31-1.62,3.76-2.31,4.36-5.3,4.96-10.52,9.83-15.22,15.05-1.2,1.37-2.57,2.05-4.02,2.05-1.97,0-3.34-1.28-4.19-2.05-13.6-12.66-29.42-22.58-47.03-29.42-16.85-6.58-34.55-9.92-52.51-9.92-4.7,0-9.49.26-14.28.68-37.37,3.51-69.35,19.41-95.09,47.12-21.29,22.92-34.04,50.45-37.88,81.75-3.68,29.93,1.28,58.49,14.71,84.75,17.87,34.89,45.75,59.43,82.95,72.95,15.31,5.56,31.47,8.38,47.8,8.38,3.25,0,6.5-.09,9.75-.34,39.77-2.65,73.46-18.73,100.14-47.72,22.32-24.2,35.15-53.02,38.23-85.77,2.22-23.6-.94-46.44-9.49-67.9-.86-2.22-1.54-5.22.94-8.38,2.91-3.68,5.73-7.35,8.55-11.03l6.16-7.95c1.2-1.54,2.39-3.08,4.53-3.08,2.57,0,3.68,2.22,4.62,4.1,9.66,19.58,15.74,40.71,17.87,62.94,2.91,29.85-1.37,58.84-12.66,86.12-15.91,38.31-42.5,68.41-79.27,89.36-20.61,11.8-43.87,19.16-69.01,21.98-5.22.6-10.78.86-16.42.86h-3.08v-.17Z" style="fill: #261f8b;"/>
    <path d="m367.18,202.5c-30.19,39-78.59,111.86-86.2,119.21-16.85,16.25-41.48,17.87-60.03,3.68-3.08-2.39-5.3-5.47-7.53-8.55-20.52-28.13-41.05-56.36-61.49-84.49-1.2-1.62-2.74-3.08-3.25-5.22-.77-3.16-.43-6.16,1.62-8.89,9.24-12.31,24.97-16.08,40.11-9.41,7.95,3.51,14.45,8.72,19.5,15.99,11.8,17.02,23.94,33.86,35.92,50.8,2.48,3.51,3.25,3.59,6.07.09,11.89-15.05,37.71-52.08,51.91-67.04,20.1-22.23,49.6-57.47,91.59-91.33,64.74-50.45,77.73-46.86,78.59-47.38.17.17-70.55,80.3-106.72,132.55h-.09Z" style="fill: #261f8b;"/>
    <g>
      <path d="m261.97,257.41l-27.79-21.02-3.97,5.25-3.22-2.43,11.09-14.66,3.22,2.43-3.85,5.09,27.79,21.02-3.27,4.33Z" style="fill: #fff;"/>
      <path d="m277.74,237.53c-1.61,2.07-3.3,3.41-5.07,4.02-1.77.61-3.61.59-5.53-.04-1.92-.64-3.88-1.74-5.9-3.31l-11.63-9.05c-2.02-1.57-3.55-3.19-4.58-4.87-1.03-1.67-1.45-3.42-1.27-5.25.18-1.82,1.08-3.77,2.69-5.84,1.61-2.07,3.28-3.41,5.01-4.01,1.73-.6,3.52-.62,5.38-.04,1.86.58,3.8,1.65,5.83,3.22l11.67,9.08c2,1.55,3.53,3.18,4.6,4.88,1.07,1.7,1.54,3.48,1.42,5.33-.12,1.85-.99,3.81-2.6,5.88Zm-3.37-2.62c.88-1.14,1.32-2.18,1.3-3.12-.02-.94-.37-1.85-1.06-2.71-.69-.86-1.6-1.73-2.74-2.62l-13.45-10.46c-1.14-.88-2.19-1.54-3.17-1.98-.98-.44-1.91-.54-2.81-.3-.89.24-1.78.92-2.67,2.06s-1.34,2.17-1.36,3.11c-.02.94.3,1.83.97,2.67.66.84,1.56,1.7,2.7,2.59l13.45,10.46c1.14.88,2.21,1.55,3.21,2.01,1,.46,1.97.57,2.9.34.93-.23,1.83-.91,2.72-2.05Z" style="fill: #fff;"/>
      <path d="m287.1,224.85l-30.17-24.53,5.33-6.55c1.82-2.23,3.6-3.73,5.34-4.47,1.74-.75,3.52-.85,5.34-.29s3.75,1.66,5.78,3.31l11.1,9.02c2.14,1.74,3.71,3.48,4.72,5.23,1.01,1.75,1.38,3.56,1.12,5.43-.26,1.87-1.25,3.86-2.97,5.97l-5.6,6.89Zm.4-6.66l1.94-2.38c1.25-1.54,1.84-2.87,1.77-4-.07-1.13-.62-2.23-1.65-3.29-1.03-1.06-2.35-2.25-3.97-3.57l-9.79-7.96c-1.56-1.27-2.91-2.2-4.04-2.79-1.13-.59-2.19-.73-3.18-.42s-2.07,1.18-3.24,2.62l-1.85,2.27,24.02,19.53Z" style="fill: #fff;"/>
      <path d="m309.78,198.37c-1.74,1.96-3.51,3.2-5.32,3.69-1.81.5-3.64.36-5.52-.4-1.87-.76-3.76-1.99-5.68-3.68l-11.03-9.77c-1.92-1.7-3.33-3.41-4.26-5.15-.92-1.73-1.23-3.51-.94-5.32.3-1.81,1.32-3.7,3.06-5.66,1.74-1.96,3.49-3.19,5.25-3.69,1.76-.49,3.55-.39,5.37.3,1.82.69,3.69,1.89,5.61,3.59l11.07,9.8c1.89,1.68,3.32,3.4,4.28,5.16.96,1.77,1.32,3.57,1.08,5.41-.24,1.84-1.23,3.74-2.97,5.71Zm-3.2-2.83c.96-1.08,1.45-2.09,1.5-3.03.04-.94-.25-1.87-.88-2.77-.63-.9-1.49-1.83-2.57-2.79l-12.76-11.3c-1.08-.95-2.09-1.68-3.04-2.18-.95-.5-1.88-.66-2.78-.48-.91.18-1.84.81-2.79,1.89-.95,1.08-1.47,2.08-1.55,3.02-.08.93.19,1.84.79,2.72.61.88,1.45,1.8,2.53,2.75l12.76,11.3c1.08.95,2.1,1.69,3.08,2.21.97.52,1.93.69,2.87.52.94-.17,1.89-.79,2.84-1.87Z" style="fill: #fff;"/>
      <path d="m326.82,180.97c-1.62,1.54-3.3,2.48-5.04,2.81-1.74.33-3.47.15-5.2-.55-1.73-.7-3.41-1.82-5.04-3.35l2.58-4.25c1.02.93,2.09,1.74,3.21,2.44,1.13.7,2.25,1.07,3.37,1.14,1.12.06,2.18-.38,3.17-1.33,1.02-.97,1.52-1.99,1.5-3.05-.02-1.06-.54-2.13-1.55-3.2-1.21-1.27-2.48-2.02-3.8-2.25-1.32-.22-2.79-.31-4.42-.26l-8.7.33c-1.7.07-3.23-.16-4.58-.71-1.36-.54-2.71-1.52-4.05-2.94-1.96-2.06-2.89-4.23-2.79-6.49.1-2.26,1.17-4.36,3.21-6.3,1.11-1.06,2.23-1.84,3.35-2.36,1.12-.51,2.25-.74,3.4-.68,1.14.06,2.32.39,3.52.99,1.21.6,2.45,1.45,3.74,2.57l-2.48,4.08c-.95-.86-1.9-1.58-2.85-2.16-.95-.58-1.91-.86-2.88-.84-.97.02-1.95.49-2.92,1.42-.97.93-1.49,1.91-1.53,2.95-.05,1.04.41,2.07,1.38,3.09.82.86,1.63,1.43,2.45,1.71.82.28,1.83.4,3.03.36l8.73-.36c1.95-.09,3.94.13,5.98.64,2.04.52,3.89,1.65,5.57,3.42,1.32,1.39,2.17,2.87,2.55,4.43.38,1.56.32,3.09-.18,4.58-.5,1.49-1.41,2.87-2.73,4.12Z" style="fill: #fff;"/>
    </g>
  </g>
</svg>