<?xml version="1.0" encoding="UTF-8"?>
<svg id="Layer_1" data-name="Layer 1" xmlns="http://www.w3.org/2000/svg" xmlns:xlink="http://www.w3.org/1999/xlink" viewBox="0 0 1638.4 1080">
  <defs>
    <clipPath id="clippath">
      <rect x="169.88" y="470.63" width="79.57" height="109.56" transform="translate(-128.84 72.17) rotate(-15)" style="fill: none;"/>
    </clipPath>
  </defs>
  <rect width="1638.4" height="1080" style="fill: #f2faf0;"/>
  <g>
    <path d="m262.25,322.68c-.15,1.66-1.02,2.42-2.63,2.29l-39.29-2.58c-1.31-.05-2.29-.74-2.92-2.07-.57-1.18-.46-2.3.31-3.36l22.63-32.09c.9-1.33,2.04-1.54,3.43-.62,1.33.9,1.54,2.05.62,3.43l-21.99,31.01-.55-1.15,38.1,2.51c1.66.15,2.42,1.02,2.29,2.63Z" style="fill: #ceefc6;"/>
    <path d="m294.28,342.25c-.87.42-1.62.44-2.25.06-.63-.38-1.03-1.01-1.19-1.87l-18.64-93.62c-.33-1.21.1-2.11,1.29-2.67.94-.45,1.7-.52,2.28-.2.58.32,1,.97,1.26,1.96l18.54,93.67c.33,1.21-.1,2.11-1.29,2.67Z" style="fill: #ceefc6;"/>
    <path d="m320.31,294.78c-1.33-.9-1.54-2.04-.62-3.43l21.84-31.32.55,1.15-37.95-2.2c-1.66-.15-2.42-1.02-2.29-2.63.15-1.65,1.02-2.42,2.63-2.29l39.19,2.38c1.31.05,2.25.67,2.82,1.86.64,1.32.57,2.51-.21,3.57l-22.53,32.29c-.9,1.33-2.05,1.54-3.43.62Z" style="fill: #ceefc6;"/>
  </g>
  <g style="clip-path: url(#clippath);">
    <path d="m247.79,515.16c2.92,10.9,5.71,21.84,8.82,32.68,1.45,5.04.33,9.26-2.78,13.17-3.93,4.95-9.03,8.43-14.63,11.17-13.29,6.49-27.23,9.8-42.09,8.11-2.31-.26-4.63-.86-6.84-1.6-5.32-1.78-8.72-5.14-10.2-10.9-5.55-21.55-11.32-43.04-17.27-64.48-1.54-5.54-.28-10.01,3.23-14.16,4.44-5.25,10.15-8.79,16.32-11.62,11.36-5.18,23.25-7.94,35.78-7.45,4.81.19,9.5,1.03,13.84,3.26,3.52,1.8,5.87,4.48,6.89,8.43,2.89,11.15,5.93,22.26,8.91,33.38h0Zm-43.44-9.71c8.91-2.39,15.76-5.29,22.19-10.34,2.94-2.31,5.6-5.25,7.63-8.4,2.23-3.45,1.2-7.05-2.4-9.07-2.8-1.58-6.01-2.95-9.16-3.3-18.28-2.05-34.96,2.43-49.75,13.36-2.55,1.88-4.62,4.69-6.25,7.47-2.07,3.52-1.08,7.12,2.52,9.06,2.9,1.56,6.19,2.73,9.44,3.23,8.7,1.34,17.33.44,25.78-2h0Zm-23.97,48.88c1.24,4.62,2.54,9.02,3.57,13.48.72,3.11,2.45,5.43,5.31,6.39,3.67,1.24,7.5,2.45,11.32,2.7,13.37.86,25.95-2.4,37.82-8.46,4.92-2.51,9.42-5.62,12.8-10.09,2.16-2.85,3.01-5.87,1.83-9.47-1.22-3.72-2.06-7.56-3.1-11.33-.15-.54-.41-1.05-.6-1.55-8.3,10.47-19.5,15.69-31.83,18.97-12.3,3.27-24.61,4.31-37.14-.66h0Zm-12.33-46c1.1,4.12,2.42,7.84,3.06,11.68.95,5.74,4.55,8.48,9.75,9.74,1.82.44,3.68.81,5.54.97,14.47,1.26,28-1.9,40.65-8.89,4.61-2.54,8.96-5.46,12.12-9.81,1.96-2.69,2.7-5.53,1.62-8.84-.97-2.97-1.65-6.04-2.46-9.06-.37-1.38-.74-2.76-1.2-4.47-10.53,16.17-47.94,28.18-69.07,18.68h0Zm75.25,4.52c-8.41,10.65-19.63,15.91-31.92,19.19-12.33,3.29-24.71,4.32-37.17-.73,1.2,4.46,2.52,8.57,3.36,12.78.84,4.2,3.4,6.6,7.17,7.91,2.13.74,4.35,1.35,6.59,1.6,14.2,1.58,27.57-1.41,40.18-7.86,4.88-2.49,9.56-5.39,13.07-9.76,1.79-2.24,3.46-4.72,2.8-7.69-1.13-5.09-2.64-10.1-4.07-15.44Z" style="fill: none;"/>
  </g>
  <path d="m541.55,720.28c-1.01.13-1.94-.09-2.78-.64-.84-.55-1.24-1.38-1.21-2.46l1.25-20.29c-.02-2.45,1.24-3.84,3.77-4.15l2.87-.36c2.81-.35,4.39.88,4.74,3.69l.23,1.86c.14,1.13.2,1.92.17,2.38s-.11.87-.23,1.23l-5.73,15.96c-.59,1.67-1.62,2.6-3.08,2.78Zm-4.45-71.77c-2.81.35-4.4-.94-4.76-3.86l-.36-2.87c-.35-2.81.88-4.39,3.7-4.74l2.87-.36c2.81-.35,4.39.88,4.74,3.69l.36,2.87c.36,2.93-.86,4.56-3.67,4.91l-2.87.36Z" style="fill: #a7ce9d;"/>
  <path d="m1131.16,692.25c-6.79-2.14-11.08-5.08-12.89-8.84-1.81-3.76-1.58-9.25.69-16.47l6.59-20.95-6.56-5.19c-1.17-.97-1.54-2.13-1.12-3.47l1.27-4.03c.41-1.3,1.34-2.05,2.79-2.25l8.51-.57,6.59-20.95c1.32-4.18,2.92-7.67,4.83-10.48,1.9-2.8,4.32-4.69,7.24-5.65,2.93-.97,6.6-.75,11.02.64,1.62.51,2.68,1.02,3.19,1.52.51.51.62,1.24.32,2.18-.31.99-.76,1.56-1.35,1.72-.59.16-1.24.19-1.95.1-1.57-.24-3.15-.6-4.73-1.1s-3.14-.61-4.68-.33c-1.54.27-3.05,1.36-4.54,3.26-1.49,1.9-2.95,5.13-4.39,9.71l-7,22.25c-.41,1.3-1.34,2.05-2.79,2.25l-8.51.58-.45,1.42,6.56,5.19c1.17.97,1.54,2.13,1.12,3.47l-7,22.25c-1.43,4.54-2.04,7.91-1.82,10.13.21,2.21,1.22,3.88,3.01,5.01,1.79,1.13,4.33,2.34,7.61,3.63.9.32,1.45.8,1.66,1.43.21.63.23,1.24.04,1.83-.22.71-.64,1.23-1.27,1.55-.62.33-1.29.38-2,.15Z" style="fill: #c7edbe;"/>
  <g>
    <path d="m1443,579.88c-1.21-.19-1.71-.89-1.52-2.09l7.9-47.22.62.54-31.81,29.76-.64-.98,33.85,5.35c.6.1,1.03.32,1.28.67.25.35.33.82.24,1.43-.19,1.21-.89,1.71-2.09,1.52l-35.83-5.66c-1.21-.19-1.71-.89-1.52-2.09.09-.57.45-1.17,1.07-1.77l35.33-33.08c.38-.35.75-.59,1.11-.71.36-.12.79-.14,1.31-.06,1.03.16,1.46.85,1.26,2.05l-8.48,50.84c-.19,1.2-.89,1.71-2.09,1.52Z" style="fill: #a7ce9d;"/>
    <path d="m1475.95,585.35c-6.11-.97-10.34-3.05-12.67-6.26-2.33-3.21-3.01-7.87-2.05-13.99l3.09-19.55c.97-6.12,3.06-10.32,6.3-12.62,3.23-2.3,7.88-2.97,13.94-2.01l5.17.82c6.11.97,10.34,3.05,12.67,6.26,2.33,3.21,3.02,7.87,2.05,13.99l-3.08,19.47c-.97,6.11-3.05,10.34-6.26,12.67-3.21,2.33-7.87,3.02-13.98,2.05l-5.17-.82Zm.57-3.62l5.17.82c3.39.54,6.16.51,8.33-.07,2.17-.58,3.86-1.82,5.09-3.7,1.22-1.88,2.1-4.51,2.64-7.9l3.08-19.47c.54-3.39.51-6.16-.07-8.33-.59-2.17-1.82-3.86-3.7-5.09-1.88-1.22-4.52-2.1-7.9-2.64l-5.17-.82c-3.39-.54-6.17-.52-8.33.05-2.16.57-3.86,1.79-5.08,3.66-1.22,1.87-2.1,4.49-2.64,7.88l-3.09,19.55c-.54,3.39-.51,6.16.07,8.33.58,2.17,1.82,3.86,3.7,5.09,1.88,1.22,4.52,2.1,7.9,2.64Zm5.13-20.2c-1.44-.23-2.04-1.09-1.8-2.58l.23-1.46c.23-1.44,1.06-2.04,2.49-1.81l1.46.23c1.44.23,2.04,1.06,1.81,2.49l-.23,1.46c-.24,1.49-1.07,2.13-2.51,1.9l-1.46-.23Z" style="fill: #a7ce9d;"/>
    <path d="m1538.1,594.9c-1.21-.19-1.71-.89-1.52-2.09l7.9-47.22.62.54-31.81,29.76-.64-.98,33.85,5.35c.6.1,1.03.32,1.28.67.25.35.33.82.24,1.43-.19,1.21-.89,1.71-2.1,1.52l-35.83-5.66c-1.21-.19-1.71-.89-1.52-2.09.09-.57.45-1.17,1.08-1.77l35.33-33.08c.38-.35.75-.59,1.11-.71.36-.12.79-.14,1.31-.06,1.03.16,1.46.85,1.27,2.05l-8.48,50.84c-.19,1.2-.89,1.71-2.09,1.52Z" style="fill: #a7ce9d;"/>
  </g>
  <g>
    <polygon points="1381.18 376.21 1381.18 378.52 1357.86 388.71 1357.86 386.34 1381.18 376.21" style="fill: #e1f4dc;"/>
    <polygon points="1314.66 375.36 1314.66 377.66 1357.86 388.71 1357.86 386.34 1314.66 375.36" style="fill: #e1f4dc;"/>
    <path d="m1375.27,409.96c4.84-.74,5.78-1.9,5.91-2.52.56-2.61-8.37-7.38-14.12-9.77-4.57-1.9-7.85-2.65-12.01-3.6l-1.4-.32c-4.47-1.03-20.26-4.89-35.97-11.26-9.24-3.74-13.32-5.5-13.26-7.93.06-2.56,3.9-6.47,36.39-10.84l.16,1.17c-23.06,3.1-35.29,6.45-35.36,9.69-.04,1.56,3.6,3.19,12.52,6.8,15.62,6.33,31.34,10.17,35.79,11.2l1.4.32c4.05.92,7.55,1.72,12.2,3.66,9.89,4.11,15.43,8.26,14.83,11.11-.35,1.66-2.61,2.79-6.89,3.45h0l-.18-1.17Z" style="fill: #e1f4dc;"/>
    <path d="m1308.2,389.22l-1.13-.36c.33-1.06.34-1.98.02-2.75-.53-1.26-1.8-1.74-3.41-2.35-1-.38-2.13-.81-3.2-1.5-3.64-2.34-5.66-7.03-5.45-9.24.32-3.33,5.24-8.16,44.13-11.59l.1,1.18c-35.06,3.09-42.77,7.43-43.06,10.52-.15,1.59,1.44,5.91,4.91,8.13.97.62,1.99,1.01,2.98,1.39,1.73.66,3.36,1.28,4.08,3,.43,1.03.44,2.23.02,3.56Z" style="fill: #c7edbe;"/>
    <polygon points="1268.02 375.47 1242.62 385.33 1325.91 414.02 1348.68 401.91 1268.02 375.47" style="fill: #a7ce9d;"/>
    <polygon points="1242.62 388.1 1325.91 417.31 1325.91 414.02 1242.62 385.33 1242.62 388.1" style="fill: #e1f4dc;"/>
    <polygon points="1348.68 407.7 1325.91 417.31 1325.91 414.02 1348.68 401.91 1348.68 407.7" style="fill: #e1f4dc;"/>
    <path d="m1362.83,426.19s10.02-2.35,16.39-8.17c1.02-.93,1.62-2.26,1.5-3.63-.05-.58-.21-1.11-.58-1.36-1.07-.72-29.23,11.06-29.23,11.06,0,0,4.23,3.28,11.92,2.1Z" style="fill: #e1f4dc;"/>
    <path d="m1379.73,411.85c2,4.46-3.7,3.06-9.98,8.44-5.82,4.99-19.56,6.69-23.31.61-2.56-4.16.29-7.31,7.83-10.7,7.54-3.39,23.46-2.81,25.46,1.64Z" style="fill: #a7ce9d;"/>
    <g>
      <polygon points="1407.69 358.98 1291.11 340.29 1299.16 265.14 1421.11 258.71 1407.69 358.98" style="fill: #a7ce9d;"/>
      <polygon points="1301.51 269.11 1416.38 262.79 1403.88 354.24 1293.96 337.04 1301.51 269.11" style="fill: #c7edbe;"/>
      <polygon points="1406.38 371.34 1290.32 349.24 1291.11 340.29 1407.69 358.98 1406.38 371.34" style="fill: #a7ce9d;"/>
      <polygon points="1406.38 371.34 1409.14 370.51 1423.09 259.63 1421.11 258.71 1407.69 358.98 1406.38 371.34" style="fill: #e1f4dc;"/>
      <polygon points="1339.11 358.53 1339.11 366.54 1314.66 375.36 1357.89 386.34 1381.18 376.21 1363.68 372.44 1363.71 363.22 1339.11 358.53" style="fill: #92b588;"/>
      <polygon points="1365.48 363.47 1365.48 377.53 1363.48 378.02 1363.48 363.09 1365.48 363.47" style="fill: #e1f4dc;"/>
    </g>
  </g>
</svg>