<?xml version="1.0" encoding="UTF-8"?>
<svg id="Layer_1" data-name="Layer 1" xmlns="http://www.w3.org/2000/svg" xmlns:xlink="http://www.w3.org/1999/xlink" viewBox="0 0 1242 2208">
  <defs>
    <clipPath id="clippath">
      <rect x="143.77" y="1148.09" width="124.25" height="171.09" transform="translate(-312.27 95.32) rotate(-15)" style="fill: none;"/>
    </clipPath>
  </defs>
  <rect x="0" y="0" width="1242" height="2208" style="fill: #f2faf0;"/>
  <g>
    <path d="m212.41,380.74c-.25,2.8-1.73,4.09-4.44,3.87l-66.44-4.37c-2.22-.09-3.86-1.26-4.94-3.49-.96-2-.79-3.9.53-5.69l38.27-54.26c1.53-2.26,3.46-2.6,5.8-1.05,2.26,1.53,2.6,3.46,1.05,5.8l-37.19,52.43-.93-1.94,64.43,4.25c2.8.25,4.09,1.73,3.87,4.44Z" style="fill: #ceefc6;"/>
    <path d="m266.57,413.83c-1.47.71-2.74.74-3.81.09-1.07-.65-1.74-1.7-2.01-3.16l-31.52-158.31c-.55-2.05.17-3.56,2.17-4.52,1.59-.76,2.88-.87,3.86-.33s1.7,1.65,2.14,3.32l31.34,158.4c.55,2.05-.17,3.56-2.17,4.52Z" style="fill: #ceefc6;"/>
    <path d="m310.58,333.55c-2.26-1.53-2.6-3.46-1.05-5.8l36.93-52.96.93,1.94-64.17-3.72c-2.8-.25-4.09-1.73-3.87-4.44.25-2.8,1.73-4.09,4.44-3.87l66.27,4.02c2.22.09,3.81,1.14,4.77,3.14,1.07,2.24.96,4.25-.36,6.04l-38.1,54.61c-1.52,2.25-3.46,2.6-5.8,1.05Z" style="fill: #ceefc6;"/>
  </g>
  <g>
    <polygon points="1070.49 774.7 1070.49 777.56 1041.55 790.21 1041.55 787.28 1070.49 774.7" style="fill: #e1f4dc;"/>
    <polygon points="987.94 773.64 987.94 776.5 1041.55 790.21 1041.55 787.28 987.94 773.64" style="fill: #e1f4dc;"/>
    <path d="m1063.16,816.58c6.01-.92,7.18-2.36,7.34-3.13.69-3.24-10.38-9.16-17.53-12.12-5.67-2.35-9.74-3.28-14.91-4.46l-1.74-.4c-5.54-1.28-25.15-6.07-44.64-13.97-11.46-4.65-16.53-6.83-16.46-9.84.07-3.17,4.84-8.02,45.16-13.45l.2,1.46c-28.62,3.85-43.8,8.01-43.89,12.03-.04,1.93,4.46,3.95,15.54,8.45,19.38,7.86,38.9,12.63,44.42,13.9l1.74.4c5.02,1.15,9.36,2.14,15.14,4.54,12.27,5.1,19.15,10.25,18.4,13.79-.44,2.06-3.24,3.46-8.55,4.28h0l-.22-1.45Z" style="fill: #e1f4dc;"/>
    <path d="m979.92,790.84l-1.4-.44c.41-1.31.42-2.46.02-3.42-.65-1.56-2.23-2.16-4.23-2.92-1.24-.47-2.64-1-3.98-1.86-4.52-2.9-7.02-8.73-6.76-11.47.39-4.14,6.5-10.13,54.77-14.38l.13,1.46c-43.51,3.83-53.07,9.22-53.44,13.06-.19,1.98,1.79,7.33,6.09,10.09,1.2.77,2.47,1.26,3.7,1.72,2.15.81,4.17,1.58,5.07,3.73.53,1.28.54,2.77.02,4.42Z" style="fill: #c7edbe;"/>
    <polygon points="930.05 773.77 898.54 786.02 1001.9 821.62 1030.16 806.6 930.05 773.77" style="fill: #a7ce9d;"/>
    <polygon points="898.54 789.45 1001.9 825.7 1001.9 821.62 898.54 786.02 898.54 789.45" style="fill: #e1f4dc;"/>
    <polygon points="1030.16 813.78 1001.9 825.7 1001.9 821.62 1030.16 806.6 1030.16 813.78" style="fill: #e1f4dc;"/>
    <path d="m1047.72,836.73s12.44-2.92,20.34-10.14c1.26-1.15,2.01-2.8,1.86-4.5-.06-.72-.26-1.37-.72-1.69-1.32-.9-36.27,13.73-36.27,13.73,0,0,5.25,4.07,14.79,2.6Z" style="fill: #e1f4dc;"/>
    <path d="m1068.69,818.93c2.49,5.53-4.6,3.8-12.39,10.48-7.22,6.19-24.28,8.3-28.93.76-3.18-5.16.36-9.07,9.72-13.28,9.36-4.2,29.11-3.49,31.6,2.04Z" style="fill: #a7ce9d;"/>
    <g>
      <polygon points="1103.4 753.31 958.71 730.12 968.7 636.85 1120.05 628.87 1103.4 753.31" style="fill: #a7ce9d;"/>
      <polygon points="971.61 641.77 1114.18 633.94 1098.66 747.43 962.25 726.09 971.61 641.77" style="fill: #c7edbe;"/>
      <polygon points="1101.76 768.66 957.73 741.22 958.71 730.12 1103.4 753.31 1101.76 768.66" style="fill: #a7ce9d;"/>
      <polygon points="1101.76 768.66 1105.19 767.62 1122.5 630.02 1120.05 628.87 1103.4 753.31 1101.76 768.66" style="fill: #e1f4dc;"/>
      <polygon points="1018.28 752.76 1018.28 762.7 987.94 773.64 1041.59 787.28 1070.49 774.7 1048.77 770.02 1048.81 758.57 1018.28 752.76" style="fill: #92b588;"/>
      <polygon points="1051.01 758.88 1051.01 776.33 1048.53 776.95 1048.53 758.41 1051.01 758.88" style="fill: #e1f4dc;"/>
    </g>
  </g>
  <path d="m269.82,1876.98c-2.53.31-4.84-.22-6.94-1.6-2.1-1.38-3.1-3.44-3.01-6.15l3.13-50.7c-.05-6.13,3.09-9.58,9.42-10.37l7.17-.89c7.02-.87,10.97,2.2,11.84,9.23l.58,4.64c.35,2.82.49,4.79.42,5.94s-.26,2.17-.58,3.07l-14.31,39.88c-1.48,4.17-4.05,6.49-7.7,6.94Zm-11.11-179.28c-7.03.87-10.99-2.34-11.9-9.65l-.89-7.17c-.87-7.02,2.2-10.97,9.23-11.85l7.17-.89c7.02-.87,10.97,2.2,11.84,9.23l.89,7.17c.91,7.31-2.15,11.4-9.18,12.27l-7.17.89Z" style="fill: #ceefc6;"/>
  <path d="m825,1793.29c-14.24-4.48-23.26-10.66-27.06-18.54-3.8-7.88-3.31-19.4,1.46-34.55l13.83-43.96-13.77-10.89c-2.45-2.04-3.23-4.47-2.35-7.29l2.66-8.45c.86-2.73,2.81-4.3,5.85-4.71l17.85-1.2,13.84-43.96c2.76-8.77,6.14-16.1,10.13-21.99,3.99-5.89,9.06-9.84,15.2-11.86,6.14-2.03,13.85-1.58,23.12,1.34,3.39,1.07,5.63,2.13,6.7,3.2,1.07,1.07,1.3,2.59.67,4.58s-1.6,3.28-2.84,3.61c-1.24.34-2.61.41-4.09.22-3.3-.49-6.61-1.26-9.92-2.3s-6.58-1.27-9.81-.7c-3.23.58-6.4,2.86-9.52,6.83-3.12,3.98-6.19,10.77-9.21,20.37l-14.69,46.69c-.86,2.73-2.81,4.3-5.85,4.71l-17.85,1.21-.94,2.98,13.77,10.89c2.45,2.04,3.23,4.48,2.35,7.29l-14.69,46.69c-3,9.52-4.27,16.61-3.82,21.25.45,4.65,2.55,8.15,6.31,10.51s9.08,4.91,15.96,7.62c1.88.68,3.04,1.69,3.49,3.01s.47,2.6.08,3.85c-.47,1.49-1.35,2.57-2.66,3.25-1.3.68-2.7.79-4.19.32Z" style="fill: #ffb36c;"/>
  <g>
    <path d="m950.66,1327.83c-2.09-.33-2.96-1.54-2.64-3.62l13.67-81.67,1.08.93-55.01,51.47-1.11-1.7,58.55,9.25c1.04.16,1.78.55,2.22,1.15.44.6.58,1.43.41,2.47-.33,2.09-1.54,2.96-3.62,2.63l-61.97-9.79c-2.08-.33-2.96-1.53-2.63-3.62.16-.99.78-2.02,1.86-3.07l61.11-57.22c.66-.61,1.29-1.02,1.91-1.23.62-.21,1.37-.24,2.27-.1,1.79.28,2.52,1.47,2.19,3.55l-14.66,87.93c-.33,2.08-1.54,2.96-3.62,2.63Z" style="fill: #ffb36c;"/>
    <path d="m1007.65,1337.3c-10.58-1.67-17.89-5.28-21.92-10.83-4.03-5.55-5.21-13.61-3.54-24.19l5.34-33.82c1.67-10.58,5.3-17.85,10.89-21.83,5.59-3.97,13.63-5.14,24.11-3.48l8.94,1.41c10.58,1.67,17.88,5.28,21.92,10.83,4.04,5.55,5.22,13.61,3.55,24.19l-5.32,33.67c-1.67,10.58-5.28,17.88-10.83,21.92-5.55,4.04-13.61,5.22-24.19,3.54l-8.94-1.41Zm.99-6.26l8.94,1.41c5.86.93,10.66.88,14.41-.13s6.68-3.14,8.8-6.4c2.12-3.25,3.64-7.81,4.56-13.67l5.32-33.67c.93-5.86.88-10.66-.13-14.41-1.01-3.75-3.14-6.68-6.4-8.8-3.25-2.12-7.81-3.64-13.67-4.56l-8.94-1.41c-5.86-.93-10.66-.9-14.41.09-3.74.99-6.67,3.1-8.79,6.32-2.11,3.23-3.64,7.77-4.56,13.63l-5.34,33.82c-.93,5.86-.88,10.66.13,14.41,1.01,3.75,3.14,6.68,6.4,8.8,3.25,2.12,7.81,3.64,13.67,4.57Zm8.88-34.94c-2.48-.39-3.52-1.88-3.11-4.46l.4-2.53c.39-2.48,1.83-3.53,4.31-3.13l2.53.4c2.48.39,3.53,1.83,3.13,4.31l-.4,2.53c-.41,2.58-1.85,3.68-4.34,3.28l-2.53-.4Z" style="fill: #ffb36c;"/>
    <path d="m1115.13,1353.83c-2.09-.33-2.96-1.54-2.64-3.62l13.67-81.67,1.08.93-55.01,51.47-1.1-1.7,58.55,9.25c1.04.16,1.78.55,2.22,1.15.44.6.58,1.43.41,2.47-.33,2.09-1.54,2.96-3.62,2.63l-61.97-9.79c-2.09-.33-2.97-1.54-2.64-3.62.16-.99.78-2.02,1.86-3.07l61.11-57.22c.66-.61,1.3-1.02,1.91-1.22.62-.21,1.37-.24,2.27-.1,1.79.28,2.52,1.47,2.19,3.55l-14.66,87.93c-.33,2.08-1.54,2.96-3.62,2.63Z" style="fill: #ffb36c;"/>
  </g>
  <g style="clip-path: url(#clippath);">
    <path d="m265.44,1217.63c4.56,17.02,8.91,34.1,13.77,51.03,2.26,7.88.51,14.45-4.34,20.57-6.14,7.73-14.1,13.17-22.85,17.45-20.75,10.13-42.52,15.31-65.72,12.67-3.61-.41-7.22-1.35-10.68-2.5-8.31-2.78-13.61-8.03-15.92-17.02-8.67-33.65-17.68-67.21-26.97-100.7-2.4-8.65-.44-15.63,5.04-22.11,6.94-8.21,15.85-13.73,25.49-18.14,17.74-8.1,36.3-12.39,55.88-11.63,7.51.3,14.84,1.61,21.62,5.08,5.49,2.82,9.17,6.99,10.76,13.17,4.51,17.41,9.26,34.76,13.92,52.13h0Zm-67.83-15.17c13.91-3.73,24.61-8.26,34.65-16.15,4.6-3.61,8.75-8.2,11.92-13.11,3.48-5.39,1.87-11.01-3.75-14.17-4.38-2.46-9.38-4.61-14.31-5.16-28.54-3.21-54.59,3.79-77.68,20.86-3.98,2.94-7.22,7.33-9.77,11.66-3.24,5.5-1.69,11.12,3.94,14.15,4.53,2.43,9.66,4.27,14.73,5.04,13.59,2.09,27.06.69,40.26-3.13h0Zm-37.43,76.33c1.93,7.22,3.97,14.09,5.57,21.06,1.13,4.86,3.82,8.48,8.29,9.98,5.73,1.93,11.71,3.83,17.68,4.21,20.88,1.34,40.52-3.74,59.06-13.2,7.68-3.92,14.7-8.77,19.99-15.75,3.37-4.44,4.7-9.17,2.86-14.78-1.9-5.81-3.22-11.8-4.83-17.7-.23-.85-.64-1.65-.94-2.41-12.95,16.35-30.45,24.51-49.7,29.62-19.21,5.1-38.43,6.73-58-1.03h.01Zm-19.25-71.83c1.72,6.43,3.78,12.25,4.77,18.25,1.48,8.96,7.1,13.24,15.22,15.2,2.84.69,5.74,1.26,8.64,1.51,22.59,1.97,43.72-2.97,63.48-13.88,7.2-3.97,13.99-8.53,18.93-15.32,3.06-4.19,4.21-8.64,2.53-13.8-1.52-4.64-2.58-9.43-3.85-14.15-.58-2.16-1.15-4.3-1.87-6.98-16.45,25.25-74.86,44.01-107.86,29.17h0Zm117.5,7.06c-13.14,16.64-30.65,24.85-49.84,29.97-19.25,5.14-38.59,6.74-58.04-1.14,1.87,6.97,3.93,13.39,5.25,19.96,1.32,6.56,5.31,10.31,11.2,12.36,3.32,1.15,6.8,2.11,10.28,2.5,22.18,2.47,43.05-2.21,62.75-12.28,7.61-3.89,14.93-8.42,20.4-15.25,2.8-3.49,5.4-7.38,4.37-12.01-1.76-7.95-4.13-15.77-6.36-24.11Z" style="fill: #ffb36c;"/>
  </g>
</svg>