<?xml version="1.0" encoding="UTF-8"?>
<svg id="Layer_1" data-name="Layer 1" xmlns="http://www.w3.org/2000/svg" viewBox="0 0 249.33 223.38">
  <path d="m82.01,161.37c-1.62-5.05-3.14-9.79-4.76-14.84h-6.46c1.48,5.17,2.92,10.16,4.45,15.53-10.59,1.84-21.01,3.64-31.68,5.49-5.45-6.18-8.94-13.71-12.85-21.4-1.89,0-3.76.1-5.6-.02-6.95-.45-10.91-4.57-10.93-11.53-.05-18.8.13-37.61-.1-56.41-.09-7.59,5.73-12.37,12.08-11.92,1.39.1,2.8.01,4.51.01,3.74-7.59,7.48-15.15,13.16-21.58,10.49,1.87,20.88,3.72,31.48,5.61-1.56,5.32-3,10.23-4.48,15.29,2.08,1.21,4.07.43,6.32.72,1.57-5.1,3.08-9.98,4.72-15.31,13.12.7,26.01,1.39,39.49,2.11v12.89h6.54v-12.86c13.29-.73,26.05-1.43,39.21-2.15,1.64,5.02,3.23,9.88,4.9,15.01h6.46c-1.45-5.2-2.85-10.22-4.41-15.81,10.48-1.83,20.85-3.63,31.41-5.48,5.37,6.32,9.13,13.7,13.06,21.61,1.72,0,3.57-.08,5.41.01,6.85.36,11.18,4.53,11.22,11.36.12,18.96.12,37.92,0,56.88-.04,7.05-4.45,11.28-11.52,11.58-1.7.07-3.41.01-5.12.01-1.76,3.32-3.35,6.33-5.23,9.88-7.49-5.59-14.68-10.95-22.71-16.94,1.97-.22,2.94-.41,3.91-.42,9.25-.03,18.49,0,27.74-.04,5.18-.02,5.52-.37,5.52-5.73.02-17.86.02-35.73-.01-53.59,0-5.16-.43-5.55-5.7-5.56-31.65-.02-63.31,0-94.96-.01-32.91,0-65.81-.01-98.72-.02-6.59,0-7.17.54-7.14,7.28.07,17.39.2,34.78.35,52.17.01,1.52.29,3.03.48,5,2.3.18,4.26.46,6.23.46,36.35.03,72.71.02,109.06.03,1.85,0,3.7,0,5.91,0,.96,7.06,1.87,13.67,2.76,20.19-2.89,1.22-9.32,1.29-17.87.24v-12.6h-6.59v12.65c-13.36.75-26.11,1.46-39.53,2.2Z" style="fill: #fae189;"/>
  <path d="m198.33,217.55c-4.16-5.25-6.73-10.61-9.76-15.66-2.96-4.94-5.87-9.91-9.11-15.4-6.06,6.81-10.64,14.03-16.3,20.88-.59-.98-1.1-1.46-1.17-1.99-3.5-27.06-6.97-54.13-9.95-81.49,8.18,4.61,15.21,10.47,22.58,15.84,7.59,5.53,15.07,11.22,22.59,16.84,7.37,5.5,14.73,11.01,22.59,16.89-4.5,2.55-8.98,1.99-13.11,2.75-4.21.77-8.55.86-13.41,2.19,6.15,10.54,11.96,20.48,17.89,30.63-3.7,3.8-8.34,5.35-12.84,8.52Z" style="fill: #fae189;"/>
  <path d="m143.53,85.29h9.16c-3.63,14.23-7.96,27.86-11.8,41.86h-8.82c-2.4-9.08-4.79-18.12-7.45-28.2-2.66,9.92-5.07,18.91-7.55,28.17h-8.05c-1.9-3-11.78-37.47-11.86-41.79h8.39c2.45,9.33,4.93,18.77,7.68,29.21,2.81-10.34,5.33-19.63,7.92-29.16h6.78c2.54,9.21,5.15,18.65,8.07,29.23,2.68-10.43,5.08-19.79,7.53-29.32Z" style="fill: #fae189;"/>
  <path d="m158.46,85.25h9.03c2.49,9.37,4.99,18.81,7.77,29.27,2.84-10.42,5.4-19.78,7.96-29.17,1.46-.13,2.54-.28,3.61-.29.91-.01,1.83.13,3.11.24,2.61,9.52,5.21,18.96,8.1,29.47,2.69-10.45,5.09-19.8,7.55-29.39h9.11c-3.58,14.12-7.9,27.73-11.76,41.76h-8.8c-2.4-8.99-4.8-18.01-7.49-28.1-2.68,9.98-5.12,19.05-7.58,28.22h-8.71c-3.92-13.82-7.82-27.58-11.91-42.01Z" style="fill: #fae189;"/>
  <path d="m70.02,127.23c-2.45-9.28-4.8-18.18-7.45-28.2-2.72,10.02-5.17,19.06-7.66,28.22h-8.66c-3.92-13.76-7.84-27.51-11.92-41.81h9.17c2.41,9.28,4.84,18.6,7.27,27.93.22.01.44.03.66.04,2.55-9.31,5.1-18.62,7.7-28.1h6.64c2.62,9.42,5.25,18.85,8.16,29.29,2.65-10.31,5.05-19.62,7.51-29.2h9.29c-4.06,14.22-8,27.98-11.96,41.85h-8.74Z" style="fill: #fae189;"/>
  <path d="m84.81,167.82c12.4-.69,24.06-1.35,35.56-1.99,1.29,3.53,1.6,30.05.55,36.51-3.45.02-6.56-1.31-9.6-2.75-6.52-3.08-11.51-8.02-15.96-13.54-4.24-5.25-7.39-11.16-10.55-18.23Z" style="fill: #fae189;"/>
  <path d="m85.54,43.78c.11-.55.11-1.2.37-1.71,4.44-8.83,9.48-17.22,17.13-23.76,5.25-4.48,11-7.25,18.01-8.24.86,3.93.27,7.94.38,11.89.11,3.9.03,7.81.02,11.71,0,4.01-.01,8.01-.02,11.85-4.97,1.24-31.18-.13-35.89-1.75Z" style="fill: #fae189;"/>
  <path d="m163.8,43.92c-5.24,1.45-31.42,2.76-35.63,1.77V10.07c4.92.28,8.94,2.17,12.78,4.52,7.66,4.69,13.2,11.41,17.73,19,1.96,3.29,4.31,6.44,5.11,10.34Z" style="fill: #fae189;"/>
  <path d="m48.31,173.71c10.33-2.67,19.86-3.82,29.63-5.02,7.16,15.22,15.9,28.88,30.77,37.56-23.78-3.42-43.48-14.27-60.4-32.54Z" style="fill: #fae189;"/>
  <path d="m108.69,6.5c-7.14,4.15-13.43,9.31-18.12,16.06-4.62,6.65-8.67,13.69-13.36,21.2-8.92-1.46-18.42-3.01-28.1-4.6,6.77-13.57,41.99-32.88,59.58-32.66Z" style="fill: #fae189;"/>
  <path d="m141.04,5.83c23.36,3.89,42.97,14.71,59.69,32.82-10.02,2.49-19.47,3.8-29.37,4.96-1.29-2.51-2.59-4.97-3.83-7.45-4.69-9.35-10.67-17.7-18.99-24.17-2.45-1.91-5.12-3.53-7.69-5.28.06-.29.13-.59.19-.88Z" style="fill: #fae189;"/>
  <path d="m127.89,166.44c6.63-.94,12.6.17,18.93.45.65,4.45,1.28,8.58,1.86,12.73.37,2.63.67,5.27.99,7.9.22,1.77.1,3.38-1.37,4.71-5.64,5.12-11.8,9.2-20.16,10.34-.48-12.13-.13-24.04-.25-36.13Z" style="fill: #fae189;"/>
  <path d="m140.72,205.89c3.16-2.15,6.31-4.3,9.62-6.55,1.55,1.25,1.23,2.9,1.04,5.07-3.44.73-6.93,1.48-10.42,2.22-.08-.25-.16-.49-.24-.74Z" style="fill: #fae189;"/>
</svg>