<?xml version="1.0" encoding="UTF-8"?>
<svg id="Layer_1" data-name="Layer 1" xmlns="http://www.w3.org/2000/svg" viewBox="0 0 249.33 223.38">
  <polygon points="85.34 196.06 85.34 199.76 122.82 216.15 122.82 212.34 85.34 196.06" style="fill: #ede8f9;"/>
  <polygon points="192.23 194.69 192.23 198.39 122.82 216.15 122.82 212.34 192.23 194.69" style="fill: #ede8f9;"/>
  <polygon points="42.73 168.36 230.08 138.34 217.15 17.56 21.16 7.23 42.73 168.36" style="fill: #cdbeed;"/>
  <polygon points="213.37 23.94 28.77 13.79 48.86 160.75 225.5 133.12 213.37 23.94" style="fill: #ede8f9;"/>
  <polygon points="44.84 188.24 231.34 152.71 230.08 138.34 42.73 168.36 44.84 188.24" style="fill: #cdbeed;"/>
  <polygon points="44.84 188.24 40.4 186.9 17.99 8.71 21.16 7.23 42.73 168.36 44.84 188.24" style="fill: #ede8f9;"/>
  <polygon points="152.94 167.65 152.94 180.52 192.23 194.69 122.76 212.34 85.34 196.06 113.46 190 113.41 175.18 152.94 167.65" style="fill: #a397c4;"/>
  <polygon points="110.56 175.58 110.56 198.18 113.78 198.97 113.78 174.97 110.56 175.58" style="fill: #cdbeed;"/>
  <polygon points="210.49 40.76 37.8 37.4 42.73 73.48 213.04 64.17 210.49 40.76" style="fill: #e2d9f9;"/>
  <polygon points="210.38 36.84 36.15 31.35 35.86 29.44 210.19 34.94 210.38 36.84" style="fill: #cdbeed;"/>
  <path d="m55.82,26.71c-2.39,0-4.68-1.64-5.1-3.65s1.18-3.65,3.57-3.65,4.68,1.64,5.1,3.65-1.18,3.65-3.57,3.65Zm-1.19-5.7c-1.34,0-2.24.92-2,2.05s1.52,2.05,2.86,2.05,2.24-.92,2-2.05-1.52-2.05-2.86-2.05Z" style="fill: #cdbeed;"/>
  <polygon points="44.84 26.71 43.05 24.09 41.46 26.71 39.49 26.71 41.84 22.99 37.94 19.41 39.91 19.41 42.54 21.9 44.04 19.41 46.02 19.41 43.75 22.99 46.81 26.71 44.84 26.71" style="fill: #cdbeed;"/>
  <polygon points="139.58 71.27 42.73 77.19 52.93 155.99 149.17 140.06 139.58 71.27" style="fill: #e2d9f9;"/>
  <polygon points="213.51 66.95 143.72 70.66 153.27 139.15 221.06 129.01 213.51 66.95" style="fill: #e2d9f9;"/>
</svg>