<?xml version="1.0" encoding="UTF-8"?>
<svg id="Layer_1" data-name="Layer 1" xmlns="http://www.w3.org/2000/svg" viewBox="0 0 249.33 223.38">
  <path d="m112.2,133.65c-.76,0-1.14-.38-1.14-1.14l.27-29.86.44.27-16.7,21.43-.49-.54h21.38c.38,0,.67.1.86.29.19.19.29.48.29.86,0,.76-.38,1.14-1.14,1.14h-22.63c-.76,0-1.14-.38-1.14-1.14,0-.36.16-.76.49-1.2l18.55-23.82c.2-.25.4-.43.61-.54.21-.11.48-.16.8-.16.65,0,.98.38.98,1.14l-.27,32.15c0,.76-.38,1.14-1.14,1.14Z" style="fill: #ffb36c;"/>
  <path d="m133.03,133.82c-3.86,0-6.67-.87-8.42-2.62s-2.62-4.56-2.62-8.42v-12.35c0-3.86.88-6.66,2.65-8.39,1.77-1.73,4.56-2.6,8.39-2.6h3.26c3.86,0,6.67.88,8.42,2.62s2.62,4.56,2.62,8.42v12.29c0,3.86-.88,6.67-2.62,8.42-1.75,1.75-4.55,2.62-8.42,2.62h-3.26Zm0-2.28h3.26c2.14,0,3.85-.29,5.13-.86s2.2-1.5,2.77-2.77c.57-1.28.86-2.99.86-5.13v-12.29c0-2.14-.29-3.85-.86-5.13-.57-1.28-1.5-2.2-2.77-2.77-1.28-.57-2.99-.86-5.13-.86h-3.26c-2.14,0-3.85.28-5.13.84-1.28.56-2.2,1.48-2.77,2.75-.57,1.27-.86,2.97-.86,5.11v12.35c0,2.14.29,3.85.86,5.13.57,1.28,1.5,2.2,2.77,2.77,1.28.57,2.99.86,5.13.86Zm1.2-12.95c-.91,0-1.36-.47-1.36-1.41v-.92c0-.91.45-1.36,1.36-1.36h.92c.91,0,1.36.45,1.36,1.36v.92c0,.94-.45,1.41-1.36,1.41h-.92Z" style="fill: #ffb36c;"/>
  <path d="m172.25,133.65c-.76,0-1.14-.38-1.14-1.14l.27-29.86.44.27-16.7,21.43-.49-.54h21.38c.38,0,.67.1.86.29.19.19.29.48.29.86,0,.76-.38,1.14-1.14,1.14h-22.63c-.76,0-1.14-.38-1.14-1.14,0-.36.16-.76.49-1.2l18.55-23.82c.2-.25.4-.43.61-.54.21-.11.48-.16.8-.16.65,0,.98.38.98,1.14l-.27,32.15c0,.76-.38,1.14-1.14,1.14Z" style="fill: #ffb36c;"/>
</svg>