<?xml version="1.0" encoding="UTF-8"?>
<svg id="Layer_1" data-name="Layer 1" xmlns="http://www.w3.org/2000/svg" viewBox="0 0 249.33 223.38">
  <path d="m130.49,139.17c-3.12,0-5.3-.67-6.55-2-1.25-1.33-1.88-3.66-1.88-6.98v-9.63l-3.43-1.31c-.62-.25-.92-.69-.92-1.3v-1.85c0-.6.29-1.03.87-1.31l3.48-1.36v-9.63c0-1.92.21-3.59.64-5.02.43-1.42,1.19-2.53,2.28-3.32,1.1-.79,2.66-1.18,4.69-1.18.74,0,1.25.07,1.54.22.28.15.42.44.42.87s-.11.75-.34.9c-.23.15-.49.25-.8.3-.69.11-1.4.16-2.12.16s-1.39.16-2,.48c-.61.32-1.1.97-1.47,1.96-.37.99-.56,2.53-.56,4.64v10.23c0,.6-.29,1.03-.87,1.31l-3.48,1.36v.65l3.43,1.31c.62.25.92.69.92,1.3v10.23c0,2.08.19,3.58.57,4.47.38.9,1.02,1.46,1.92,1.7s2.12.41,3.66.52c.42.02.71.15.88.38s.26.49.26.76c0,.33-.11.6-.33.82-.22.22-.49.33-.82.33Z" style="fill: #ffb36c;"/>
</svg>