<?xml version="1.0" encoding="UTF-8"?>
<svg id="Layer_1" data-name="Layer 1" xmlns="http://www.w3.org/2000/svg" viewBox="0 0 249.33 223.38">
  <polygon points="137.01 152.51 137.01 154.29 119.03 162.15 119.03 160.32 137.01 152.51" style="fill: #e1f4dc;"/>
  <polygon points="85.73 151.85 85.73 153.63 119.03 162.15 119.03 160.32 85.73 151.85" style="fill: #e1f4dc;"/>
  <path d="m132.46,178.53c3.73-.57,4.46-1.46,4.56-1.94.43-2.01-6.45-5.69-10.89-7.53-3.52-1.46-6.05-2.04-9.26-2.77l-1.08-.25c-3.44-.79-15.62-3.77-27.73-8.68-7.12-2.89-10.27-4.24-10.23-6.11.04-1.97,3.01-4.98,28.06-8.35l.12.9c-17.78,2.39-27.21,4.98-27.27,7.47-.03,1.2,2.77,2.46,9.65,5.25,12.04,4.88,24.16,7.84,27.59,8.64l1.08.25c3.12.71,5.82,1.33,9.41,2.82,7.62,3.17,11.9,6.37,11.43,8.56-.27,1.28-2.01,2.15-5.31,2.66h0l-.14-.9Z" style="fill: #e1f4dc;"/>
  <path d="m80.74,162.54l-.87-.27c.26-.82.26-1.53.01-2.12-.41-.97-1.39-1.34-2.63-1.81-.77-.29-1.64-.62-2.47-1.16-2.81-1.8-4.36-5.42-4.2-7.12.24-2.57,4.04-6.29,34.03-8.93l.08.91c-27.03,2.38-32.97,5.72-33.2,8.11-.12,1.23,1.11,4.55,3.78,6.27.75.48,1.54.78,2.3,1.07,1.33.51,2.59.98,3.15,2.32.33.8.34,1.72.01,2.75Z" style="fill: #c7edbe;"/>
  <polygon points="49.77 151.94 30.19 159.54 94.4 181.66 111.95 172.33 49.77 151.94" style="fill: #a7ce9d;"/>
  <polygon points="30.19 161.67 94.4 184.19 94.4 181.66 30.19 159.54 30.19 161.67" style="fill: #e1f4dc;"/>
  <polygon points="111.95 176.79 94.4 184.19 94.4 181.66 111.95 172.33 111.95 176.79" style="fill: #e1f4dc;"/>
  <path d="m122.86,191.04s7.73-1.81,12.63-6.3c.78-.72,1.25-1.74,1.16-2.8-.04-.45-.16-.85-.45-1.05-.82-.56-22.53,8.53-22.53,8.53,0,0,3.26,2.53,9.19,1.62Z" style="fill: #e1f4dc;"/>
  <path d="m135.89,179.98c1.54,3.44-2.86,2.36-7.69,6.51-4.49,3.85-15.08,5.16-17.97.47-1.98-3.21.22-5.64,6.04-8.25s18.09-2.17,19.63,1.27Z" style="fill: #a7ce9d;"/>
  <g>
    <polygon points="157.45 139.22 67.57 124.82 73.77 66.87 167.8 61.92 157.45 139.22" style="fill: #a7ce9d;"/>
    <polygon points="75.58 69.93 164.15 65.07 154.51 135.57 69.76 122.31 75.58 69.93" style="fill: #c7edbe;"/>
    <polygon points="156.44 148.76 66.96 131.72 67.57 124.82 157.45 139.22 156.44 148.76" style="fill: #a7ce9d;"/>
    <polygon points="156.44 148.76 158.57 148.12 169.32 62.63 167.8 61.92 157.45 139.22 156.44 148.76" style="fill: #e1f4dc;"/>
    <polygon points="104.58 138.88 104.58 145.06 85.73 151.85 119.05 160.32 137.01 152.51 123.52 149.6 123.54 142.49 104.58 138.88" style="fill: #92b588;"/>
    <polygon points="124.91 142.69 124.91 153.53 123.36 153.91 123.36 142.39 124.91 142.69" style="fill: #e1f4dc;"/>
  </g>
</svg>