<?xml version="1.0" encoding="UTF-8"?>
<svg id="Layer_1" data-name="Layer 1" xmlns="http://www.w3.org/2000/svg" viewBox="0 0 249.33 223.38">
  <path d="m124.81,11.69c-54.97-.14-99.91,44.69-100.14,99.87-.22,54.9,44.59,99.83,99.86,100.13,54.83.29,99.96-44.71,100.13-99.85.17-54.94-44.77-100.01-99.86-100.15Zm-10.84,130.91c-5.8,5.1-13.47,7.65-23,7.65-11.6,0-20.44-3.42-26.52-10.25-6.08-6.83-9.12-16.24-9.12-28.23s3.01-21.56,9.05-28.39c6.03-6.83,14.99-10.25,26.86-10.25,19.66,0,30.36,9.65,32.11,28.94l-18.92,1.1c-.51-11.11-4.88-16.66-13.12-16.66-4.33,0-7.77,1.79-10.33,5.37-2.55,3.58-3.83,10.52-3.83,20.83,0,9.21,1.17,15.54,3.52,18.99,2.35,3.45,5.87,5.18,10.57,5.18,7.55,0,11.99-5.01,13.33-15.02l19.13.93c-.69,8.11-3.94,14.72-9.74,19.81Zm56.91,6.88l-23.2-.38-22.65-74.81h21.73l14.5,57.04,14.99-57.04h17.77l-23.14,75.19Z" style="fill: #2e4bf5;"/>
</svg>