<?xml version="1.0" encoding="UTF-8"?>
<svg id="Layer_1" data-name="Layer 1" xmlns="http://www.w3.org/2000/svg" xmlns:xlink="http://www.w3.org/1999/xlink" viewBox="0 0 249.33 223.38">
  <defs>
    <clipPath id="clippath">
      <rect x="102.39" y="86.46" width="44.55" height="61.34" transform="translate(-26.07 36.26) rotate(-15)" style="fill: none;"/>
    </clipPath>
  </defs>
  <g style="clip-path: url(#clippath);">
    <path d="m146.02,111.39c1.64,6.1,3.19,12.23,4.94,18.3.81,2.82.18,5.18-1.56,7.37-2.2,2.77-5.05,4.72-8.19,6.26-7.44,3.63-15.25,5.49-23.56,4.54-1.3-.15-2.59-.48-3.83-.9-2.98-1-4.88-2.88-5.71-6.1-3.11-12.07-6.34-24.1-9.67-36.11-.86-3.1-.16-5.6,1.81-7.93,2.49-2.94,5.68-4.92,9.14-6.5,6.36-2.9,13.02-4.44,20.04-4.17,2.69.11,5.32.58,7.75,1.82,1.97,1.01,3.29,2.51,3.86,4.72,1.62,6.24,3.32,12.46,4.99,18.69h0Zm-24.32-5.44c4.99-1.34,8.82-2.96,12.43-5.79,1.65-1.29,3.14-2.94,4.27-4.7,1.25-1.93.67-3.95-1.34-5.08-1.57-.88-3.36-1.65-5.13-1.85-10.23-1.15-19.58,1.36-27.85,7.48-1.43,1.06-2.59,2.63-3.5,4.18-1.16,1.97-.61,3.99,1.41,5.07,1.62.87,3.46,1.53,5.28,1.81,4.87.75,9.7.25,14.44-1.12h0Zm-13.42,27.37c.69,2.59,1.42,5.05,2,7.55.4,1.74,1.37,3.04,2.97,3.58,2.05.69,4.2,1.37,6.34,1.51,7.49.48,14.53-1.34,21.18-4.73,2.75-1.41,5.27-3.15,7.17-5.65,1.21-1.59,1.69-3.29,1.03-5.3-.68-2.08-1.16-4.23-1.73-6.35-.08-.31-.23-.59-.34-.87-4.64,5.86-10.92,8.79-17.82,10.62-6.89,1.83-13.78,2.41-20.8-.37h0Zm-6.9-25.76c.62,2.31,1.36,4.39,1.71,6.54.53,3.21,2.55,4.75,5.46,5.45,1.02.25,2.06.45,3.1.54,8.1.71,15.68-1.06,22.76-4.98,2.58-1.42,5.02-3.06,6.79-5.49,1.1-1.5,1.51-3.1.91-4.95-.54-1.66-.93-3.38-1.38-5.08-.21-.77-.41-1.54-.67-2.5-5.9,9.05-26.84,15.78-38.67,10.46h0Zm42.13,2.53c-4.71,5.97-10.99,8.91-17.87,10.75-6.9,1.84-13.84,2.42-20.81-.41.67,2.5,1.41,4.8,1.88,7.16.47,2.35,1.9,3.7,4.02,4.43,1.19.41,2.44.76,3.69.9,7.95.89,15.44-.79,22.5-4.4,2.73-1.4,5.35-3.02,7.32-5.47,1.01-1.25,1.94-2.64,1.57-4.31-.63-2.85-1.48-5.65-2.28-8.64Z" style="fill: #ffb36c;"/>
  </g>
</svg>