<?xml version="1.0" encoding="UTF-8"?>
<svg id="Layer_1" data-name="Layer 1" xmlns="http://www.w3.org/2000/svg" viewBox="0 0 249.33 223.38">
  <path d="m143.57,159.49c3.6-.72,7.14-1.35,10.65-2.13,19.65-4.37,31.57-18.34,33.63-38.9,1.31-13.06.11-25.32-8.53-35.85-.65-.79-.72-2.51-.41-3.61,2.05-7.19,1.26-14.2-.49-21.32-.96-3.91-3.42-4.75-6.33-3.66-6.19,2.32-12.35,4.85-18.18,7.96-3.07,1.64-5.6,2.4-9.07,1.54-14.02-3.47-28.08-3.03-42.14.15-1.77.4-3.98-.16-5.72-.91-6.08-2.63-11.91-5.94-18.11-8.22-5.88-2.17-6.86-1.27-8.48,4.74-1.73,6.44-1.81,12.87-.24,19.39.34,1.4.07,3.55-.8,4.57-14.01,16.45-8.76,47.78,1.35,59.95,8.26,9.93,19.45,13.82,31.57,15.66,1.1.17,2.2.38,2.79.49-1.63,4.24-3.05,8.31-4.8,12.23-.5,1.12-1.81,2.18-2.98,2.63-11.08,4.23-19.57,1.33-25.87-8.92-3.19-5.18-7.33-9.09-13.14-10.61-2.17-.57-4.6-.09-6.92-.09-.15.46-.3.91-.45,1.37,1.27,1.39,2.58,2.75,3.8,4.19,3.28,3.86,8.09,7.23,9.51,11.73,4.55,14.45,16.44,17.58,31.05,16.3,1.29-.11,2.57-.33,4.42-.57,0,6.85.23,13.48-.09,20.08-.17,3.5-3.54,4.84-7.59,3.44-14.93-5.18-27.97-13.51-38.85-25.21-19.74-21.23-29.2-46.52-28.45-75.94C25.92,62.43,62.3,20.02,108.15,12.95c51.54-7.95,98.4,22.56,112.75,73.41,14.51,51.43-14.15,107.82-63.37,124.67-5.34,1.83-7.98-.08-8.01-5.9-.05-7.35-.01-14.69-.01-22.04,0-12.54-.25-13.55-5.93-23.59Z" style="fill: #2e4bf5;"/>
</svg>