<?xml version="1.0" encoding="UTF-8"?>
<svg id="Layer_1" data-name="Layer 1" xmlns="http://www.w3.org/2000/svg" viewBox="0 0 249.33 223.38">
  <path d="m124.61,129.76c-.84.6-1.69,1.2-2.51,1.82-.64.48-1.19.44-1.55-.27-.87-1.71-2.09-2.58-4.09-2-.39.12-.9.04-1.3-.09-.98-.33-1.45.19-1.96.91-1.62,2.32-1.32,2.25-3.59.59-1.77-1.3-3.54-2.61-5.34-3.87-.72-.51-.8-1.05-.22-1.62,1.35-1.32,1.78-2.73.65-4.41-.15-.22-.22-.53-.23-.81-.04-1.43-.88-1.97-2.16-2.31-1.91-.5-1.89-.58-1.31-2.41.73-2.27,1.47-4.53,2.21-6.8.33-1.02.59-1.21,1.58-.76,1.59.72,2.98.88,4.18-.68.23-.31.63-.56,1-.69,1.23-.43,1.4-1.31,1.35-2.48-.09-2.12-.3-2.2,2.11-2.16.31,0,.62,0,1,0,.79-7.61,4.38-13.46,11.09-17.12,6.73-3.67,13.59-3.36,20.48.15,0-1.07.03-2.03,0-2.99-.03-.82.35-1.13,1.13-1.13,3.11,0,6.22,0,9.33,0,.74,0,1.09.32,1.06,1.09-.03.91-.05,1.83.02,2.73.02.29.27.65.52.84,1.19.91,2.41,1.79,3.65,2.64.28.19.73.3,1.05.23.88-.21,1.74-.52,2.6-.82.63-.22,1.03-.04,1.23.6.99,3.04,1.98,6.08,2.97,9.12.2.63,0,1.03-.64,1.23-.93.29-1.86.58-2.76.93-.23.09-.46.37-.54.62-.5,1.45-.97,2.9-1.4,4.37-.09.32-.06.78.1,1.06.47.77,1.04,1.49,1.59,2.22.43.58.33,1.01-.24,1.43-2.54,1.84-5.08,3.68-7.61,5.54-.61.45-1.07.37-1.5-.25-.55-.79-1.13-1.56-1.86-2.55-2.23,4.26-4.55,8.25-6.44,12.44-1.2,2.66-2,5.56-2.55,8.43-.41,2.12-.13,4.38-.15,6.58-.02,2.14-.72,4-2.33,5.46-1.28,1.16-2.79,1.8-4.52,1.82-2.04.02-4.08.01-6.13,0-3.79-.02-6.88-3.07-6.94-6.87-.03-1.54.08-3.09-.03-4.62-.12-1.7-.42-3.38-.64-5.07-.12-.01-.23-.03-.35-.04Zm19.86-44.05c-.26-.14-.53-.29-.82-.42-7.95-3.58-17.02-1.63-22.84,4.91-5.77,6.48-6.51,16.49-1.71,23.61,2.72,4.03,4.92,8.31,6.36,12.96.55,1.79,1.01,3.61,1.52,5.47,5.58,0,11.14,0,16.7-.03.21,0,.54-.36.61-.62.44-1.5.78-3.04,1.23-4.54,1.51-5.01,3.99-9.54,6.84-13.88.27-.42.46-.89.75-1.46-.94,0-1.69.13-2.37-.03-1.37-.31-2.34.01-2.95,1.33-.19.42-.56.75-.82,1.15-.45.68-.93.7-1.57.23-2.09-1.55-4.21-3.07-6.31-4.61-2.28-1.67-2.31-1.24-.54-3.57.75-.98,1.19-1.83.34-2.95-.24-.31-.32-.75-.43-1.14-.28-.95-.26-2.18-.87-2.79-.66-.65-1.88-.76-2.88-1.03-.83-.22-.95-.71-.72-1.42.97-2.98,1.95-5.96,2.91-8.95.2-.63.56-.86,1.21-.63.89.31,1.78.6,2.68.86.24.07.61.1.78-.03.97-.78,1.9-1.61,2.87-2.45Zm3.03-3.52c0,1.05.06,2.06-.03,3.05-.04.38-.34.9-.67,1.06-1.66.81-3.15,1.83-4.37,3.21-.42.48-.84.54-1.41.33-.91-.33-1.84-.59-2.83-.9-.88,2.73-1.74,5.36-2.62,8.07,1.02.33,1.93.66,2.86.93.59.17.9.49.94,1.12.12,1.79.68,3.45,1.6,4.97.38.63.28,1.08-.13,1.61-.58.74-1.11,1.51-1.71,2.34,2.3,1.67,4.55,3.3,6.88,5,.57-.79,1.14-1.5,1.62-2.25.41-.64.9-.77,1.66-.72,1.67.11,3.36.11,5.03.01.72-.04,1.17.07,1.57.68.5.78,1.08,1.5,1.65,2.28,2.34-1.71,4.57-3.33,6.87-5.01-.62-.86-1.25-1.64-1.77-2.48-.2-.32-.32-.89-.17-1.17.93-1.67,1.56-3.42,1.73-5.33.05-.59.36-.88.9-1.04.93-.28,1.84-.6,2.87-.94-.88-2.71-1.73-5.35-2.61-8.06-1.03.32-1.99.58-2.93.92-.56.21-.94.09-1.32-.35-1.19-1.37-2.62-2.43-4.3-3.13-.57-.24-.81-.61-.79-1.23.03-.97,0-1.94,0-2.96h-8.51Zm-34.7,21.06c0,.9.06,1.75-.03,2.58-.04.36-.32.77-.62,1-1.28,1-2.58,1.96-3.92,2.88-.33.22-.85.33-1.23.26-.81-.16-1.6-.47-2.45-.74-.76,2.34-1.49,4.59-2.25,6.92.83.28,1.66.49,2.42.84.36.17.73.56.86.94.54,1.49,1.02,3,1.45,4.53.11.39.1.92-.08,1.26-.4.73-.96,1.38-1.51,2.12,2,1.45,3.93,2.85,5.91,4.28.55-.74,1.04-1.36,1.47-2.01.34-.53.76-.71,1.35-.56,1.52.39,3.04.37,4.56,0,.55-.13.96,0,1.29.5.47.7.99,1.36,1.51,2.07.81-.59,1.58-1.12,2.32-1.7.18-.14.39-.48.33-.65-.6-1.79-1.24-3.57-1.9-5.43-3.48,3.08-7.08,2.91-9.73,1.45-2.81-1.56-4.49-4.7-4.03-7.9.55-3.87,2.92-6.1,6.61-6.94-.27-1.9-.54-3.78-.81-5.7h-1.52Zm2.73,7.2c-.17.03-.51.05-.84.14-2.58.74-4.49,3.01-4.7,5.53-.23,2.85,1.15,5.33,3.66,6.54,2.43,1.18,5.22.73,7.24-1.12.49-.45.6-.81.24-1.42-1.88-3.18-3.7-6.38-5.6-9.67Zm28.44,28.43h-16.78c-.29,3.16,2.11,5.92,5.19,5.97,2.17.04,4.33.04,6.5,0,2.96-.05,5.48-2.99,5.1-5.97Zm.04-5.08h-16.82v3.46h16.82v-3.46Z" style="fill: #fae189;"/>
  <path d="m101.65,89.93c2.68.45,5.13.85,7.57,1.26,1.02.17,2.04.34,3.06.51.53.09.98.37.79.91-.09.27-.68.59-.98.55-3.47-.53-6.94-1.1-10.39-1.73-.29-.05-.64-.55-.69-.88-.03-.19.48-.47.64-.61Z" style="fill: #fae189;"/>
  <path d="m106.32,79.03c.31.16.54.26.74.4,2.77,1.89,5.54,3.78,8.31,5.68.46.31.93.67.49,1.29-.41.56-.88.26-1.31-.04-2.8-1.91-5.6-3.81-8.37-5.76-.27-.19-.44-.65-.47-.99-.02-.17.39-.38.62-.58Z" style="fill: #fae189;"/>
  <path d="m150.46,127.26c.3-.1.62-.33.89-.28.34.06.8.27.93.54.63,1.33,1.16,2.71,1.72,4.07.76,1.82,1.52,3.65,2.28,5.47.21.49.35,1.01-.28,1.29-.65.29-.9-.21-1.1-.69-1.3-3.12-2.6-6.25-3.9-9.37-.08-.2-.13-.42-.19-.62-.12-.13-.24-.26-.36-.4Z" style="fill: #fae189;"/>
  <path d="m166.1,130.7c-.25.26-.42.6-.61.61-.33,0-.74-.1-.99-.31-1.32-1.15-2.61-2.36-3.9-3.54-1.2-1.1-2.4-2.21-3.61-3.31-.41-.38-.69-.8-.26-1.29.46-.52.9-.18,1.29.18,2.47,2.27,4.95,4.54,7.42,6.81.24.22.41.51.66.84Z" style="fill: #fae189;"/>
  <path d="m160.77,115.35c.41.13.61.19.82.26,3.08,1.05,6.17,2.11,9.25,3.16.54.18,1.09.38.85,1.08-.24.72-.81.51-1.34.33-3.14-1.08-6.29-2.14-9.42-3.25-.32-.12-.63-.54-.74-.89-.05-.17.4-.48.58-.68Z" style="fill: #fae189;"/>
  <path d="m122.3,80.8c-.16.22-.26.51-.44.59-.22.09-.56.08-.78-.02-.2-.09-.34-.36-.47-.57-1.7-2.71-3.4-5.42-5.1-8.14-.08-.13-.15-.28-.24-.41-.29-.46-.35-.98.2-1.18.28-.1.87.14,1.06.41.79,1.13,1.48,2.33,2.21,3.5,1.04,1.68,2.09,3.36,3.13,5.04.15.24.27.49.43.79Z" style="fill: #fae189;"/>
  <path d="m160.71,97.73c0,4.96-4.06,8.99-9,8.95-4.93-.04-8.91-4.04-8.92-8.95,0-4.95,4.04-9.02,8.97-9.01,4.95,0,8.95,4.04,8.95,9.01Zm-1.49.05c.02-4.15-3.28-7.52-7.41-7.56-4.09-.04-7.51,3.35-7.52,7.47-.01,4.13,3.34,7.5,7.47,7.51,4.07.01,7.45-3.34,7.46-7.41Z" style="fill: #fae189;"/>
</svg>