<?xml version="1.0" encoding="UTF-8"?>
<svg id="Layer_1" data-name="Layer 1" xmlns="http://www.w3.org/2000/svg" viewBox="0 0 249.33 223.38">
  <path d="m124.81,211.69c-55.43.03-100.09-44.5-100.14-99.86-.05-55.5,44.59-100.16,100.1-100.14,55.35.02,99.94,44.7,99.9,100.1-.04,55.26-44.63,99.87-99.86,99.9Zm58.02-139.43h-116.26v78.86h116.26v-78.86Z" style="fill: #cb1414;"/>
  <path d="m170.57,138.99h-91.85v-47.84c15,12.12,29.66,23.96,44.55,35.99,15.64-12.02,31.29-24.05,47.3-36.36v48.21Z" style="fill: #cb1414;"/>
  <path d="m123.46,111.68c-11.13-8.99-22.17-17.92-33.68-27.22h69.06c-12.09,9.3-23.69,18.23-35.38,27.22Z" style="fill: #cb1414;"/>
</svg>