<?xml version="1.0" encoding="UTF-8"?>
<svg id="Layer_1" data-name="Layer 1" xmlns="http://www.w3.org/2000/svg" viewBox="0 0 249.33 223.38">
  <path d="m122.09,165.72c-1.14,0-2.13-.36-2.99-1.09-.85-.73-1.18-1.69-1-2.89l4.17-22.29c.31-2.72,1.9-4.08,4.74-4.08h3.22c3.16,0,4.74,1.58,4.74,4.74v2.09c0,1.27-.05,2.15-.14,2.66s-.24.95-.43,1.33l-8.53,16.88c-.89,1.77-2.15,2.65-3.79,2.65Zm4.93-80.03c-3.16,0-4.74-1.64-4.74-4.93v-3.22c0-3.16,1.58-4.74,4.74-4.74h3.22c3.16,0,4.74,1.58,4.74,4.74v3.22c0,3.29-1.58,4.93-4.74,4.93h-3.22Z" style="fill: #ceefc6;"/>
</svg>