<?xml version="1.0" encoding="UTF-8"?>
<svg id="Layer_1" data-name="Layer 1" xmlns="http://www.w3.org/2000/svg" viewBox="0 0 249.33 223.38">
  <path d="m99.55,122.9c-.4.67-.92.82-1.58.44l-16.1-9.08c-.54-.29-.82-.78-.82-1.47,0-.62.27-1.07.82-1.36l16.1-8.97c.65-.38,1.18-.24,1.58.44.38.65.24,1.18-.44,1.58l-15.61,8.65v-.6l15.61,8.81c.67.4.82.92.44,1.58Z" style="fill: #ceefc6;"/>
  <path d="m109.12,137.69c-.45,0-.77-.15-.97-.44-.19-.29-.23-.63-.12-1.03l11.15-43.4c.11-.58.47-.87,1.09-.87.49,0,.82.13,1.01.38s.23.62.14,1.09l-11.2,43.4c-.11.58-.47.87-1.09.87Z" style="fill: #ceefc6;"/>
  <path d="m129.79,122.9c-.38-.65-.24-1.18.44-1.58l15.61-8.81v.6l-15.61-8.65c-.67-.4-.82-.92-.44-1.58.4-.67.92-.82,1.58-.44l16.1,8.97c.54.29.82.74.82,1.36,0,.69-.27,1.18-.82,1.47l-16.1,9.08c-.65.38-1.18.24-1.58-.44Z" style="fill: #ceefc6;"/>
</svg>