<?xml version="1.0" encoding="UTF-8"?>
<svg id="Layer_1" data-name="Layer 1" xmlns="http://www.w3.org/2000/svg" viewBox="0 0 249.33 223.38">
  <path d="m103.9,137.88c-.66-2.05-1.27-3.97-1.93-6.01h-2.62c.6,2.09,1.18,4.12,1.8,6.29-4.29.74-8.51,1.48-12.83,2.22-2.21-2.5-3.62-5.55-5.2-8.67-.77,0-1.52.04-2.27,0-2.81-.18-4.42-1.85-4.43-4.67-.02-7.61.05-15.23-.04-22.84-.04-3.07,2.32-5.01,4.89-4.83.56.04,1.13,0,1.83,0,1.52-3.07,3.03-6.13,5.33-8.74,4.25.76,8.45,1.51,12.75,2.27-.63,2.15-1.22,4.14-1.82,6.19.84.49,1.65.17,2.56.29.64-2.07,1.25-4.04,1.91-6.2,5.31.28,10.53.56,15.99.86v5.22h2.65v-5.21c5.38-.3,10.55-.58,15.88-.87.66,2.03,1.31,4,1.98,6.08h2.62c-.59-2.11-1.16-4.14-1.79-6.4,4.25-.74,8.44-1.47,12.72-2.22,2.18,2.56,3.7,5.55,5.29,8.75.7,0,1.45-.03,2.19,0,2.78.15,4.53,1.83,4.54,4.6.05,7.68.05,15.36,0,23.04-.02,2.86-1.8,4.57-4.66,4.69-.69.03-1.38,0-2.07,0-.71,1.34-1.36,2.56-2.12,4-3.03-2.26-5.94-4.43-9.2-6.86.8-.09,1.19-.17,1.58-.17,3.74-.01,7.49,0,11.23-.02,2.1,0,2.23-.15,2.24-2.32,0-7.23,0-14.47,0-21.7,0-2.09-.17-2.25-2.31-2.25-12.82,0-25.64,0-38.46,0-13.33,0-26.65,0-39.98,0-2.67,0-2.9.22-2.89,2.95.03,7.04.08,14.08.14,21.13,0,.61.12,1.23.2,2.02.93.07,1.73.18,2.52.19,14.72.01,29.44,0,44.17.01.75,0,1.5,0,2.39,0,.39,2.86.76,5.53,1.12,8.17-1.17.49-3.77.52-7.24.1v-5.1h-2.67v5.12c-5.41.3-10.57.59-16.01.89Z" style="fill: #fae189;"/>
  <path d="m151.01,160.63c-1.69-2.13-2.73-4.3-3.95-6.34-1.2-2-2.38-4.01-3.69-6.24-2.45,2.76-4.31,5.68-6.6,8.46-.24-.4-.44-.59-.47-.81-1.42-10.96-2.82-21.92-4.03-33,3.31,1.87,6.16,4.24,9.14,6.42,3.07,2.24,6.1,4.54,9.15,6.82,2.98,2.23,5.96,4.46,9.15,6.84-1.82,1.03-3.64.81-5.31,1.11-1.71.31-3.46.35-5.43.89,2.49,4.27,4.84,8.29,7.24,12.41-1.5,1.54-3.38,2.17-5.2,3.45Z" style="fill: #fae189;"/>
  <path d="m128.82,107.07h3.71c-1.47,5.76-3.22,11.28-4.78,16.95h-3.57c-.97-3.68-1.94-7.34-3.02-11.42-1.08,4.02-2.05,7.66-3.06,11.41h-3.26c-.77-1.21-4.77-15.18-4.8-16.92h3.4c.99,3.78,2,7.6,3.11,11.83,1.14-4.19,2.16-7.95,3.21-11.81h2.75c1.03,3.73,2.09,7.55,3.27,11.84,1.08-4.22,2.06-8.02,3.05-11.87Z" style="fill: #fae189;"/>
  <path d="m134.86,107.06h3.66c1.01,3.8,2.02,7.62,3.15,11.85,1.15-4.22,2.19-8.01,3.22-11.81.59-.05,1.03-.11,1.46-.12.37,0,.74.05,1.26.1,1.06,3.85,2.11,7.68,3.28,11.93,1.09-4.23,2.06-8.02,3.06-11.9h3.69c-1.45,5.72-3.2,11.23-4.76,16.91h-3.56c-.97-3.64-1.94-7.29-3.03-11.38-1.09,4.04-2.07,7.72-3.07,11.43h-3.53c-1.59-5.6-3.17-11.17-4.82-17.01Z" style="fill: #fae189;"/>
  <path d="m99.05,124.06c-.99-3.76-1.95-7.36-3.02-11.42-1.1,4.06-2.09,7.72-3.1,11.43h-3.51c-1.59-5.57-3.18-11.14-4.83-16.93h3.71c.98,3.76,1.96,7.53,2.94,11.31.09,0,.18.01.27.02,1.03-3.77,2.07-7.54,3.12-11.38h2.69c1.06,3.81,2.13,7.63,3.3,11.86,1.07-4.17,2.04-7.94,3.04-11.83h3.76c-1.65,5.76-3.24,11.33-4.84,16.95h-3.54Z" style="fill: #fae189;"/>
  <path d="m105.03,140.49c5.02-.28,9.74-.55,14.4-.81.52,1.43.65,12.17.22,14.79-1.4,0-2.66-.53-3.89-1.11-2.64-1.25-4.66-3.25-6.46-5.48-1.72-2.13-2.99-4.52-4.27-7.38Z" style="fill: #fae189;"/>
  <path d="m105.33,90.26c.05-.22.05-.48.15-.69,1.8-3.58,3.84-6.98,6.94-9.62,2.13-1.81,4.45-2.93,7.29-3.34.35,1.59.11,3.22.15,4.82.04,1.58.01,3.16,0,4.74,0,1.62,0,3.25,0,4.8-2.01.5-12.63-.05-14.53-.71Z" style="fill: #fae189;"/>
  <path d="m137.02,90.32c-2.12.59-12.72,1.12-14.43.72v-14.42c1.99.11,3.62.88,5.18,1.83,3.1,1.9,5.35,4.62,7.18,7.69.79,1.33,1.75,2.61,2.07,4.19Z" style="fill: #fae189;"/>
  <path d="m90.26,142.88c4.18-1.08,8.04-1.55,12-2.03,2.9,6.16,6.44,11.7,12.46,15.21-9.63-1.39-17.61-5.78-24.46-13.18Z" style="fill: #fae189;"/>
  <path d="m114.71,75.17c-2.89,1.68-5.44,3.77-7.34,6.5-1.87,2.69-3.51,5.54-5.41,8.59-3.61-.59-7.46-1.22-11.38-1.86,2.74-5.5,17-13.32,24.13-13.23Z" style="fill: #fae189;"/>
  <path d="m127.81,74.9c9.46,1.58,17.4,5.96,24.17,13.29-4.06,1.01-7.89,1.54-11.89,2.01-.52-1.02-1.05-2.01-1.55-3.02-1.9-3.79-4.32-7.17-7.69-9.79-.99-.77-2.07-1.43-3.11-2.14.03-.12.05-.24.08-.36Z" style="fill: #fae189;"/>
  <path d="m122.48,139.94c2.69-.38,5.1.07,7.66.18.26,1.8.52,3.48.75,5.15.15,1.06.27,2.13.4,3.2.09.72.04,1.37-.56,1.91-2.28,2.07-4.78,3.73-8.16,4.19-.19-4.91-.05-9.74-.1-14.63Z" style="fill: #fae189;"/>
  <path d="m127.68,155.91c1.28-.87,2.56-1.74,3.89-2.65.63.51.5,1.18.42,2.05-1.4.3-2.81.6-4.22.9-.03-.1-.07-.2-.1-.3Z" style="fill: #fae189;"/>
</svg>