<?xml version="1.0" encoding="UTF-8"?>
<svg id="Layer_1" data-name="Layer 1" xmlns="http://www.w3.org/2000/svg" viewBox="0 0 249.33 223.38">
  <polygon points="107.86 166.17 107.86 168.12 127.65 176.77 127.65 174.76 107.86 166.17" style="fill: #ede8f9;"/>
  <polygon points="164.3 165.44 164.3 167.39 127.65 176.77 127.65 174.76 164.3 165.44" style="fill: #ede8f9;"/>
  <polygon points="85.36 151.54 184.29 135.68 177.46 71.9 73.97 66.45 85.36 151.54" style="fill: #cdbeed;"/>
  <polygon points="175.47 75.27 77.99 69.91 88.6 147.52 181.88 132.93 175.47 75.27" style="fill: #ede8f9;"/>
  <polygon points="86.47 162.03 184.96 143.27 184.29 135.68 85.36 151.54 86.47 162.03" style="fill: #cdbeed;"/>
  <polygon points="86.47 162.03 84.13 161.33 72.29 67.23 73.97 66.45 85.36 151.54 86.47 162.03" style="fill: #ede8f9;"/>
  <polygon points="143.56 151.16 143.56 157.96 164.3 165.44 127.62 174.76 107.86 166.17 122.71 162.96 122.68 155.14 143.56 151.16" style="fill: #a397c4;"/>
  <polygon points="121.18 155.35 121.18 167.28 122.88 167.7 122.88 155.03 121.18 155.35" style="fill: #cdbeed;"/>
  <polygon points="173.95 84.15 82.75 82.38 85.36 101.43 175.3 96.52 173.95 84.15" style="fill: #e2d9f9;"/>
  <polygon points="173.89 82.08 81.88 79.18 81.73 78.17 173.79 81.08 173.89 82.08" style="fill: #cdbeed;"/>
  <path d="m92.27,76.73c-1.26,0-2.47-.87-2.69-1.93s.62-1.93,1.89-1.93,2.47.87,2.69,1.93-.62,1.93-1.89,1.93Zm-.63-3.01c-.71,0-1.18.49-1.06,1.08s.8,1.08,1.51,1.08,1.18-.49,1.06-1.08-.8-1.08-1.51-1.08Z" style="fill: #cdbeed;"/>
  <polygon points="86.47 76.73 85.53 75.35 84.69 76.73 83.65 76.73 84.89 74.77 82.83 72.87 83.87 72.87 85.26 74.19 86.05 72.87 87.09 72.87 85.9 74.77 87.51 76.73 86.47 76.73" style="fill: #cdbeed;"/>
  <polygon points="136.5 100.26 85.36 103.39 90.75 145 141.57 136.59 136.5 100.26" style="fill: #e2d9f9;"/>
  <polygon points="175.55 97.98 138.69 99.94 143.73 136.11 179.53 130.76 175.55 97.98" style="fill: #e2d9f9;"/>
</svg>