<svg id="ezk9RDGo0Hm1" xmlns="http://www.w3.org/2000/svg" xmlns:xlink="http://www.w3.org/1999/xlink" viewBox="0 0 707.14 616.08" shape-rendering="geometricPrecision" text-rendering="geometricPrecision"><g><path d="M617.29,510.62c.15,1.17.27,2.34.41,3.51c54.58-54.07,98.77-126.13,87.74-203.47C682.4,149.1,534.39,-31.43,358.76,4.65C198.23,37.64,94.73,120.42,12.08,310.65c-64.82,149.19,143.79,295.68,325.3,305.42-5.34-8.61,278.67-115.3,279.91-105.46v.01Z" opacity="0.14" fill="#0429ff"/><g><path d="M553.94,488.47c-.18,0-.37-.02-.55-.05-5.84-.68-161.17-7.14-162.57-7.18-.01,0-.03,0-.04,0-.46.03-2.31.35-3.95.63-4.54.78-10.75,1.86-15.02,1.86-2.36,0-3.91-.32-5.04-1.04-1.65-1.05-3.01-2.17-4.17-3.42-1.62-1.75-3.43-3.35-4.98-4.68-.82-.7-1.2-1.79-.99-2.85.1-.54.28-1.06.52-1.57.16-.34.37-.69.62-1.04.05-.07.11-.16.17-.24.53-.69,1.05-1.45,1.63-2.39.51-.82.99-1.66,1.47-2.5l.1-.17c.51-.89,1.02-1.79,1.5-2.69.51-.96.95-1.84,1.33-2.69.87-1.9,1.64-3.65,2.36-5.35.79-1.85,1.52-3.67,2.18-5.4c1.25-3.25,2.44-6.63,3.55-10.05.56-2.78,2.93-32.06,4.66-53.47c2.39-29.53,3.13-38.3,3.44-39.49.31-1.15.34-2.65.37-4.23.04-1.79.08-3.64.51-5.4.19-.76.07-1.56-.08-2.57-.12-.84-.26-1.79-.24-2.85c0-.08,0-.15.01-.23.12-1.2.17-1.47.22-1.69.18-.78.58-2.74,1.04-5.02l.1-.44c.05-.22.1-.44.16-.66.03-.11.05-.22.08-.34-.18-2.15-.28-4.3-.28-6.39c0-42.98,36.45-77.95,81.26-77.95c29.18,0,62.72,33.58,75.35,46.22c1.46,1.46,2.97,2.97,3.55,3.47.19.1.37.22.54.35.71.58,1.11,1.46,1.09,2.38v.15c-.03,1.08-.05,2.1-.03,3.12c0,.04,0,.08,0,.12-.02,1.15-.02,2.39.09,3.58.14,1.44.2,2.88.26,4.26.08,1.88.16,3.66.42,5.4.13.91.16,1.8.18,2.58.01.48.02.95.06,1.43.15,1.64.33,3.27.52,4.9.14,1.25.29,2.5.41,3.75.14,1.36.33,2.71.53,4.13.12.87.25,1.74.36,2.61.32,2.53.77,5.05,1.2,7.4.3,1.67.63,3.33.97,4.99.39,1.89.63,3.75.72,5.54c1.19,25.75,4.29,88.67,4.95,93.08.88,2.82,1.91,5.66,2.91,8.42.54,1.49,1.08,2.98,1.61,4.48.29.83.57,1.67.84,2.51.44,1.35.86,2.63,1.34,3.87.61,1.6,1.15,3.21,1.67,4.78.37,1.11.74,2.22,1.14,3.33.47,1.3.83,2.37,1.13,3.37.7,2.29,1.47,4.62,2.21,6.88l.62,1.88c.3.93.6,1.86.9,2.79.28.87.52,1.76.75,2.65.1.38.2.76.31,1.13.23.82.1,1.69-.35,2.41s-1.19,1.21-2.02,1.35l-6.88,1.19-2.19.39c-.92.16-1.84.33-2.76.49-.35.06-.71.1-1.06.14l-.36.04c-.12.01-.24.02-.36.02l.01-.03Z" fill="#f1eab6"/><path d="M576.22,448.08c-1.2-9.29-14.56-144.53-14.68-146.3-.32-4.88-.3-9.76-.17-14.64.1-3.67.51-7.33.87-10.99.15-1.46.35-2.91.56-4.36c1.62-4.33,2.51-8.94,2.51-13.74c0-.49-.02-.98-.04-1.48.11-.6.21-1.2.31-1.8.59-3.66,3.07-21.65-1.18-41.74-4.11-19.43-2.52-17.75-13.19-33.74-2.75-3.44-5.11-6.72-8.77-10.66-4.36-4.7-7.57-7.71-17.4-11.4-4.11-1.54-11.52-1.62-15.89-1.39-1.35.07-2.19-.22-3.11-1.08-.3-.29-1.13-.58-2.23-.87.03-.08.06-.14.06-.14-2.12-1.37-4.5-2.33-6.89-3.24-3.45-1.31-7-2.42-10.62-3.33-5.53-1.39-11.06-2.76-16.69-3.78-4.21-.76-8.46-1.32-12.75-1.66-1.13-.09-2.3.08-3.39-.3h-8.72c-.23.24-.55.17-.83.16-1.82-.06-3.62.19-5.4.41-5.47.66-10.84,1.73-16.12,3.19-5.26,1.46-10.3,3.36-15.13,5.66-4.07,1.94-7.98,4.13-11.7,6.57-3.45,2.26-6.82,4.62-9.92,7.25-14.01,10.99-25.17,46.17-20.31,58.49-.19,1.24-.37,2.47-.56,3.7-.34,2.17-.73,4.33-1.06,6.5s-.6,4.35-.9,6.52c-.36,2.6-.73,5.19-1.09,7.79-.37,2.69-.75,5.39-1.09,8.09-.31,2.44-.61,4.88-.89,7.32-.23,1.99-.35,3.99-.66,5.97-.47,3.05-.63,6.13-.92,9.2-.19,1.96-.18,3.94-.45,5.89-.44,3.2-.45,6.42-.69,9.62-.26,3.41-.69,6.78-1.41,10.12-.78,3.64-8.7,157-10.37,159.83c4.43,2.14,8.75,4.47,12.63,7.55.46.37.97.67,1.46,1.01.06-.3.16-.58.28-.85.1-.21.23-.41.36-.6.03-.05.07-.1.1-.15.65-.85,1.24-1.73,1.8-2.64.56-.9,1.09-1.83,1.62-2.75s1.05-1.84,1.55-2.78.97-1.89,1.41-2.85c.82-1.8,1.62-3.61,2.39-5.43s1.52-3.65,2.22-5.5c1.3-3.4,2.51-6.83,3.63-10.28.96-2.94,7.45-90.53,8.12-93.03.78-2.93.17-6.75.9-9.69.54-2.18-.28-4.01-.23-6.07c0-.43.05-.86.16-1.32.4-1.73.69-3.49,1.09-5.23.06-.27.12-.55.19-.82.74-2.92,1.14-5.9,1.85-8.83c0,0,0,0,0,0c.02-.07.03-.15.05-.22.37-1.57.56-3.2.85-4.8.14-.77.29-1.55.44-2.32.45-2.31.93-4.62,1.28-6.95.34-2.25.75-4.49,1.11-6.74c1.22.62,2.47,1.18,3.74,1.71-.36-1.47-.71-2.94-1.04-4.41-.41-1.81-.51-3.69-1.17-5.45.01-.44-.05-.73-.29-.78-.05,0-.1,0-.16,0-.12.02-.28.08-.46.19-.44.25-.88.45-1.31.6.47-.27.9-.6,1.18-.86.08-.07.15-.14.23-.22c6.33-7.1,13.49-17.38,10.04-29.49-1.55-5.42-4.13-10.34-7.26-14.02.62.12,3.1-.04,6.36-.35.07-.52.27-1.06.64-1.6c3.6-5.33,7.66-10.3,11.22-15.67c3.16-4.76,6.57-9.38,11.09-12.94c1.55-1.23,3.19-2.31,4.9-3.27.16-.16.34-.32.54-.46c5.55-3.92,11.3-7.49,17.51-10.17c2-1.18,4.07-2.22,6.21-3.13c4.29-4.14,19.46-8.88,23.51-10.46c2.98-1.15,5.96-2.3,8.83-3.69.74-.36,1.11-.18,1.45.55.41.87.81,1.75,1.27,2.59c2.94,5.36,5.78,5.48,8.91,10.49.94,1.62,1.88,3.25,2.77,4.91.07.14.15.28.22.41.17.31.36.62.53.93.14.24.27.48.41.71.23.39.46.77.7,1.15.13.2.25.41.37.61.29.47.59.94.89,1.41.43.68.86,1.36,1.29,2.04c1.08,1.73,2.2,3.43,3.33,5.12s2.28,3.37,3.41,5.06c.91,1.36,1.86,2.67,2.84,3.97s1.97,2.58,3.01,3.83c.69.83,1.39,1.66,2.1,2.48c1.33,1.54,2.73,3,4.21,4.36.74.68,1.51,1.34,2.3,1.96.79.63,1.61,1.22,2.45,1.79c1.47.98,3.01,1.86,4.59,2.67.53.27,1.06.53,1.59.78c1.75.83,3.52,1.6,5.26,2.46.28.14.57.25.86.34.56.17,1.14.23,1.7.18-.13.03-.27.06-.4.09-.71.16-1.64-.59-2.34-.33-6.44,2.44-12.29,10.4-14.99,19.88-3.45,12.11,3.7,22.39,10.04,29.49-.23.85-.54,1.59-.62,2.36-.29,2.76-1.21,5.37-1.99,8-.19.64-.39,1.27-.6,1.89c3.63-1.05,7.08-2.45,10.3-4.14.01.19.02.38.04.56.32,3.27.22,6.55.7,9.81.19,1.26.11,2.55.22,3.83.26,2.9.64,5.79.93,8.69.23,2.28.61,4.54.9,6.82.32,2.53.76,5.05,1.22,7.56.31,1.69.64,3.38.99,5.07.35,1.67.58,3.36.66,5.07.73,15.75,4.38,91.55,5.04,93.69c1.38,4.44,3.07,8.76,4.6,13.14.75,2.15,1.4,4.35,2.21,6.46c1.02,2.65,1.83,5.37,2.79,8.04.38,1.07.75,2.14,1.08,3.23.88,2.9,1.85,5.77,2.79,8.64.32.97.64,1.94.95,2.91.38,1.2.69,2.43,1.04,3.65c2.51-.16,5.01-.43,7.51-.76.14-.02.29-.03.43-.03c2.62-.07,2.37-.17,5-.25.43-4.66-2.06-27.96-3.61-34.07l-.01.02Z" fill="#f4f0ca"/><path d="M536.65,264.83c0,7.94,0,15.81-2.01,23.05-6.99,25.28-21.63,47.22-36.68,63.99-8.5,9.47-22.1,11.68-34.62,11.68-16.2,0-32.17-6.14-43.3-19.06-12.39-14.38-23.42-37.39-28.82-61.03-1.52-6.68-1.18-11.43-1.18-18.63c0-8.89.87-17.51,2.51-25.71c8.4-42.05,36.91-73.01,70.79-73.01c34.39,0,68.54,29.48,76.45,72.49c1.4,7.63-3.15,18.01-3.15,26.23h.01Z" fill="#f2d0a4"/></g><g><path d="M541.45,503.33h-157.86c.07-.36-.14-.65-.27-.96-1.97-4.82-3.04-9.79-2.99-15.03.07-8.8.02-17.59.02-26.39c0-19.18,0-38.35-.01-57.53c2.91-1.1,5.82-2.2,8.73-3.3.13-.01.27,0,.4-.05c3.15-1.07,6.29-2.15,9.44-3.21c9.16-3.09,18.45-5.78,27.79-8.28.8.08,71.52,3.53,71.08-.12.38.09,2.38.31,2.76.42c1.49.43,2.98.88,4.47,1.32.4.34,1.94.65,2.42.79c3.78,1.17,6.54,2.04,10.32,3.21c2.78.86,5.56,1.33,8.34,2.2.22.09,1.39.28,1.62.35c5.68,1.91,10.37,3.43,15.97,5.55.87.33,1.22.72,1.22,1.72-.03,27.74-.03,56.3-.02,84.05c0,1.89-.21,3.76-.51,5.62-.54,3.34-1.62,6.53-2.91,9.64h-.01Z" fill="#fff"/><path d="M498.63,400c.17-3.35-.36-6.97-.52-5.75-.28-1.53-.64-3.05-.81-4.6-.48-4.28-.84-8.56-.85-12.87-.01-3.51.05-7.02.21-10.52.02-.52.04-1.05.06-1.57c0,.17-.02.34-.02.51-20.69,16.82-43.04,15.02-68.75-1.8.04-2.97.1-6.03,0-8.5-.01,2.91,0,5.82,0,8.74c0,.33,0,.67,0,1c0,8.01,0,16.03,0,24.04c0,.17,0,.35,0,.52-.01.25-.05.5-.2.73.08,0,.14.02.2.04.54.16.38.68.38,1.09.01,5.61,0,11.22,0,16.84c0,2.02.31,4,.71,5.96c1.03,5.15,2.73,10.09,4.92,14.87c3.49,7.65,7.86,14.68,14.09,20.44c2.41,2.22,5.06,4.09,8.09,5.38c5.76,2.45,11.28,1.89,16.67-1.13c3.35-1.88,6.15-4.4,8.71-7.2c1.78-1.94,3.4-4.02,4.87-6.2c3.43-5.07,6.18-10.49,8.34-16.23.34-.9.66-1.8.96-2.71c1.18-3.53,2.07-7.12,2.56-10.82.44-3.4.22-6.84.39-10.26h-.01Z" fill="#f2d0a4"/><path d="M618.09,510.02c-1.24-9.84-1.73-58.67-22.23-87.55-11.48-16.17-49.89-19.81-56.48-22.67-7.52,12.87-46.99,28.4-75.47,37.85-24.3-7.81-44.56-21.9-60.71-42.43-1.03.24-2.06.48-3.1.72-1.09.33-2.16.76-3.27.98-16.9,3.37-33.76,6.87-49.99,12.8-9.46,3.45-12.06,9.86-17.3,34.14-1.11,5.13-1.5,33.49-.99,47.6s.77,94.98,1.35,97.57c2.24,10,2.94,17.83,8.29,26.44c6.58.35,13.21.54,19.88.57c1.03,0,2.09,0,3.18,0c102.29-.43,194.1-39.96,257.25-102.52-.14-1.17-.26-2.34-.41-3.51v.01Z" fill="#2e4bf5"/></g><g><path d="M555.34,250.39c-.07-.36-.15-.72-.23-1.08-.13-.56-.28-1.12-.46-1.67-.57-1.8-1.37-3.51-2.47-5.14-.26-.38-.54-.74-.85-1.08-.46-.5-.97-.96-1.53-1.37-.84-.6-1.78-1.07-2.83-1.41-.06-.02-.12-.04-.18-.05-.13-.04-.26-.07-.39-.1-.11-.02-.22-.05-.32-.07-1.07-.18-2.16-.1-3.25.08-.14.03-.29.05-.43.09-.28.08-.57.14-.86.16-.01,0-.03,0-.04,0-.13.03-.27.06-.4.09-.71.16-1.64-.59-2.34-.33-6.44,2.44-12.29,10.4-14.99,19.88-3.45,12.11,3.7,22.39,10.04,29.49.07.08.15.15.23.22.42.38,1.15.92,1.86,1.2.13.05.26.09.39.13.42.1.83.16,1.25.19.94.05,1.91-.09,2.9-.3.28-.08.55-.17.82-.27.15-.07.3-.14.45-.21.53-.25,1.05-.5,1.55-.8.1-.06.2-.13.3-.2.17-.11.33-.21.49-.33.01,0,.03-.02.04-.03.51-.4,1-.82,1.47-1.25.16-.14.3-.29.45-.44.31-.3.62-.61.91-.93.16-.18.32-.36.48-.54.23-.26.45-.53.66-.8c3.21-4.19,5.75-10.16,6.9-16.77.99-5.73,1.25-11.51.39-16.37l-.01.01Zm-7.02,7.96c0,0-2.11-.36-4.27-.1-.69.08-.5.04-1.38.44-.11.05-.91.4-1.16.48-.65.19-1.29.16-1.5.16-.08,0-.17-.02-.25-.06-.27-.14-.38-.47-.25-.75.07-.15.14-.28.21-.4.37-.61.95-1.06,1.64-1.27l.5-.16c2.27-.58,6.36.52,6.57.54.3.03.52.31.49.62s-.3.52-.61.49l.01.01Z" fill="#f2d0a4"/><path d="M539.77,259.27c.08.04.16.06.25.06.2,0,.85.02,1.5-.16.25-.07,1.05-.43,1.16-.48.89-.4.7-.35,1.38-.44c2.16-.27,4.23.09,4.27.1.31.03.58-.19.61-.49.03-.31-.18-.58-.49-.62-.21-.02-4.29-1.11-6.57-.54l-.5.16c-.68.21-1.27.66-1.64,1.27-.07.12-.14.25-.21.4-.14.28-.03.61.25.75l-.01-.01Z" fill="#e2b486"/></g><g><path d="M388.97,257.05l-1.03-.35c-3.19-.8-9.17.24-9.46.27-.42.05-.73.43-.68.85s.43.73.85.68c.06,0,4-.26,7.03.11.97.12,1.12.33,2.36.88.15.06.72.71.89.83.78.52,1.73.52,2.01.52.12,0,.23-.03.35-.08.38-.19.54-.66.35-1.04-.88-1.76-2.6-2.63-2.67-2.67Z" fill="#e2b486"/><path d="M401.49,253.75c-1.55-5.42-4.13-10.34-7.26-14.02-2.34-2.75-4.98-4.81-7.74-5.86-.7-.27-1.64.48-2.34.33-.13-.03-.27-.06-.4-.09-.01,0-.03,0-.04,0-.29-.03-.58-.08-.86-.16-.14-.04-.29-.06-.43-.09-1.1-.18-2.18-.27-3.25-.08-.11.02-.22.04-.32.07-.13.03-.26.06-.39.1-.06.02-.12.04-.18.05-1.05.33-1.99.81-2.83,1.41-.56.4-1.07.86-1.53,1.37-.31.34-.6.7-.85,1.08-1.1,1.62-1.9,3.34-2.47,5.14-.17.55-.32,1.11-.46,1.67-.08.36-.16.71-.23,1.08-.22,1.23-.36,2.51-.44,3.84-.23,3.75.07,7.84.74,11.93.1.51.21,1.03.33,1.53.11.45.22.89.34,1.33.2.75.43,1.49.66,2.23.18.57.36,1.15.55,1.72.04.11.07.21.11.32.2.59.42,1.18.65,1.76.09.23.19.46.28.69.28.67.58,1.33.9,1.98.19.38.38.76.59,1.14.61,1.13,1.28,2.22,2.03,3.28.7.99,1.42,1.94,2.22,2.82.53.58,1.09,1.13,1.7,1.64.91.76,1.91,1.41,3.04,1.92.55.25,1.11.44,1.66.6.42.12.84.21,1.26.27c1.18.15,2.35.04,3.52-.37.47-.27.9-.6,1.18-.86.08-.07.15-.14.23-.22c6.33-7.1,13.49-17.38,10.04-29.49l-.01-.06Zm-10.2,7c-.11.06-.23.08-.35.08-.28,0-1.23,0-2.01-.52-.17-.12-.74-.76-.89-.83-1.25-.55-1.4-.76-2.36-.88-3.03-.37-6.97-.11-7.03-.11-.43.04-.81-.26-.85-.68-.05-.42.26-.81.68-.85.29-.03,6.27-1.07,9.46-.27l1.03.35c.07.04,1.79.91,2.67,2.67.19.38.04.85-.35,1.04Z" fill="#f2d0a4"/></g><path d="M427.73,313.96c0,0-.32,36.93-.32,36.95.3.91.46,2.31.53,3.98.11,2.47.04,5.54,0,8.5c25.71,16.82,48.06,18.61,68.75,1.8c0-.17.02-.34.02-.51.1-2.26.22-4.4.38-6.34.14-1.84.32-3.5.53-4.92.09-.58.18-1.13.28-1.63.01-.05.02-37.77.03-37.82-23.2,14.52-47,14.52-70.2,0v-.01Z" fill="#f0caa3"/><path d="M523.76,258.41c2.7-9.47,8.56-17.43,14.99-19.88.7-.27,1.64.48,2.34.33.13-.03.27-.06.4-.09-.57.05-1.14-.01-1.7-.18-.29-.09-.58-.2-.86-.34-1.74-.85-3.51-1.63-5.26-2.46-.53-.25-1.06-.51-1.59-.78-1.58-.81-3.12-1.69-4.59-2.67-.84-.56-1.66-1.16-2.45-1.79s-1.55-1.28-2.3-1.96c-1.48-1.36-2.88-2.83-4.21-4.36-.71-.82-1.41-1.65-2.1-2.48-1.03-1.25-2.03-2.53-3.01-3.83s-1.93-2.61-2.84-3.97c-1.13-1.69-2.28-3.37-3.41-5.06s-2.25-3.39-3.33-5.12c-.43-.68-.86-1.36-1.29-2.04-.3-.47-.6-.94-.89-1.41-.13-.2-.25-.41-.37-.61-.24-.38-.47-.76-.7-1.15-.14-.24-.27-.48-.41-.71-.18-.31-.36-.62-.53-.93-.08-.14-.15-.28-.22-.41-.89-1.65-1.82-3.28-2.77-4.91-3.12-5.01-5.96-5.13-8.91-10.49-.46-.84-.86-1.72-1.27-2.59-.34-.73-.71-.9-1.45-.55-2.88,1.39-5.86,2.54-8.83,3.69-4.26,1.65-20.79,6.81-24.08,11.08-.63.81-1.23,1.64-1.81,2.49-1.75,2.53-3.31,5.19-4.81,7.88-1.06,1.9-2.07,3.82-3.07,5.74-1,1.93-1.97,3.86-2.96,5.8-.65,1.28-1.3,2.55-1.98,3.81-1.01,1.89-2.06,3.76-3.18,5.59s-2.31,3.61-3.61,5.33c-.65.86-1.34,1.69-2.06,2.48-.89.95-1.76,1.78-3.46,3.25-.66.53-1.34,1.03-2.05,1.5-.42.28-.85.54-1.28.79-1.02.59-2.07,1.1-3.14,1.52-3.22,1.28-6.64,1.86-10.17,1.93-.4,0-.81,0-1.21,0-.02,0-.04.01-.02.01-4.94.61-10.83-.73-13.08-1.16c3.13,3.68,5.71,8.6,7.26,14.02c3.45,12.11-3.7,22.39-10.04,29.49-.07.08-.15.15-.23.22-.28.26-.72.59-1.18.86.44-.16.88-.36,1.31-.6.19-.11.34-.17.46-.19.06-.01.12-.01.16,0c.24.05.31.33.29.78.66,1.76.76,3.64,1.17,5.45c1.22,5.41,2.57,10.77,4.45,16.01.91,2.56,1.88,5.09,2.92,7.59c1.05,2.54,2.25,5.01,3.52,7.45c1.47,2.82,3.02,5.59,4.67,8.31c1.77,2.93,3.78,5.69,5.86,8.39c2.73,3.55,5.63,6.96,8.87,10.05.95.91,1.98,1.73,2.98,2.58.28.24.5.5.69.77c0-.02-.01-.04-.02-.06c23.2,14.52,47.34,15.29,70.53.77-.01.05-.02.11-.03.16.35-.87,1.14-1.46,1.75-2.14c2.99-3.32,5.89-6.7,8.58-10.28c1.77-2.36,3.58-4.71,5.25-7.14c1.84-2.67,3.6-5.39,5.3-8.16c1.3-2.12,2.58-4.26,3.77-6.45c1.33-2.45,2.7-4.89,3.87-7.42c1.79-3.89,3.56-7.81,4.78-11.92.78-2.63,1.69-5.24,1.99-8c.08-.76.39-1.5.62-2.36-6.33-7.1-13.49-17.38-10.04-29.49l.02.02Z" fill="#f2d0a4"/><path d="M484.64,237.69c.22,0,.44-.04.65-.13c11.5-4.99,21.4-.81,21.5-.77.82.36,1.78-.02,2.14-.84s-.01-1.78-.83-2.14c-.45-.2-11.25-4.82-24.1.76-.83.36-1.2,1.32-.85,2.14.27.61.87.98,1.49.98Z" fill="#b2926f"/><path d="M454.63,292.7c9.82,4.02,18.06.69,18.41.55.63-.26.91-.95.64-1.54s-1.01-.86-1.64-.61c-.08.03-7.64,3.04-16.42-.55-.16-.07-.33-.1-.49-.1-.48,0-.94.26-1.14.71-.27.6.02,1.29.65,1.54h-.01Z" fill="#e2b486"/><path d="M438.86,320.01c.29.23,7.22,5.66,19.07,6.76c1.72.16,3.4.23,5.02.23c9.45,0,16.8-2.34,17.16-2.45.61-.2.94-.85.75-1.46s-.85-.94-1.46-.75c-.1.03-10,3.17-21.25,2.12-11.12-1.04-17.77-6.21-17.84-6.27-.5-.4-1.23-.32-1.63.19-.4.5-.32,1.23.18,1.63Z" fill="#b2926f"/><g><ellipse rx="8.68" ry="11.4" transform="translate(427.1 264.83)" fill="#2b343b"/><ellipse rx="8.68" ry="11.4" transform="translate(497.66 264.83)" fill="#2b343b"/></g><g><g><path d="M427.1,269.72c-4.87,0-8.68-1.36-8.68-4.89c0-.64.46-1.16,1.02-1.16s1.02.52,1.02,1.16c0,2.16,3.04,2.57,6.64,2.57s6.64-.41,6.64-2.57c0-.64.46-1.16,1.02-1.16s1.02.52,1.02,1.16c0,3.53-3.81,4.89-8.68,4.89Z" fill="#2b343b"/></g><g><path d="M497.66,269.97c-4.87,0-8.68-1.61-8.68-5.14c0-.64.46-1.16,1.02-1.16s1.02.52,1.02,1.16c0,2.16,3.04,2.82,6.64,2.82s6.64-.66,6.64-2.82c0-.64.46-1.16,1.02-1.16s1.02.52,1.02,1.16c0,3.53-3.81,5.14-8.68,5.14Z" fill="#2b343b"/></g></g><path d="M438.81,237.69c-.22,0-.44-.04-.65-.13-11.5-4.99-21.4-.81-21.5-.77-.82.36-1.78-.02-2.14-.84s.01-1.78.83-2.14c.45-.2,11.25-4.82,24.1.76.83.36,1.2,1.32.85,2.14-.27.61-.87.98-1.49.98Z" fill="#b2926f"/><path d="M564.41,213.05c-4.11-19.43-2.52-17.75-13.19-33.74-2.75-3.44-5.11-6.72-8.77-10.66-4.36-4.7-7.57-7.71-17.4-11.4-4.11-1.54-11.52-1.62-15.89-1.39-1.35.07-2.19-.22-3.11-1.08-.3-.29-1.13-.58-2.23-.87.03-.08.06-.14.06-.14-2.12-1.37-4.5-2.33-6.89-3.24-3.45-1.31-7-2.42-10.62-3.33-5.53-1.39-11.06-2.76-16.69-3.78-4.21-.76-8.46-1.32-12.75-1.66-1.13-.09-2.3.08-3.39-.3h-8.72c-.23.24-.55.17-.83.16-1.82-.06-3.62.19-5.4.41-5.47.66-10.84,1.73-16.12,3.19-5.26,1.46-10.3,3.36-15.13,5.66-4.07,1.94-7.98,4.13-11.7,6.57-3.45,2.26-6.82,4.62-9.92,7.25l7.02,73.44c2.24.43,9.47,3.38,14.41,2.77-.01,0,0,0,.02-.01.4,0,.81,0,1.21,0c3.53-.07,6.95-.64,10.17-1.93c1.07-.43,2.12-.93,3.14-1.52.44-.25.86-.52,1.28-.79.71-.47,1.39-.97,2.05-1.5c1.71-1.47,2.57-2.31,3.46-3.25.72-.79,1.41-1.62,2.06-2.48c1.3-1.72,2.49-3.51,3.61-5.33s2.17-3.7,3.18-5.59c.67-1.26,1.33-2.53,1.98-3.81.98-1.93,1.96-3.87,2.96-5.8s2.01-3.85,3.07-5.74c1.5-2.7,3.07-5.35,4.81-7.88.58-.84,1.19-1.67,1.81-2.49c3.29-4.27,19.82-9.43,24.08-11.08c2.98-1.15,5.96-2.3,8.83-3.69.74-.36,1.11-.18,1.45.55.41.87.81,1.75,1.27,2.59c2.94,5.36,5.78,5.48,8.91,10.49.94,1.62,1.88,3.25,2.77,4.91.07.14.15.28.22.41.17.31.36.62.53.93.14.24.27.48.41.71.23.39.46.77.7,1.15.13.2.25.41.37.61.29.47.59.94.89,1.41.43.68.86,1.36,1.29,2.04c1.08,1.73,2.2,3.43,3.33,5.12s2.28,3.37,3.41,5.06c.91,1.36,1.86,2.67,2.84,3.97s1.97,2.58,3.01,3.83c.69.83,1.39,1.66,2.1,2.48c1.33,1.54,2.73,3,4.21,4.36.74.68,1.51,1.34,2.3,1.96.79.63,1.61,1.22,2.45,1.79c1.47.98,3.01,1.86,4.59,2.67.53.27,1.06.53,1.59.78c1.75.83,3.52,1.6,5.26,2.46.28.14.57.25.86.34" fill="#f4f0ca"/></g><g><path id="ezk9RDGo0Hm34" d="M371.77,455.08v0c3.4,13.11-7.15,21.37-20.94,24.95L224.7,518.62c-13.79,3.57-27.86-4.23-31.25-17.33v0c-3.4-13.11,5.11-26.75,18.91-30.33l90.29-46.84c14.39-7.46,29.08-15.62,46.55-11.58.01,0,.03,0,.04,0c12.57-.28,19.3,30.05,22.54,42.54h-.01Z" transform="translate(12.345871-.868936)" fill="#2e4bf5"/><path id="ezk9RDGo0Hm35" d="M136.79,386.73l-6.08-10.65c-.38-.66-1-1.13-1.74-1.31-2.49-.6-8.49-2.42-11.78-6.7-3.68-4.77-15.23-25-18.14-30.12-.46-.8-.94-1.59-1.44-2.37L80.03,308.47c-.23-.36-.42-.74-.55-1.14-.45-1.38-1.06-4.45,1.56-6.16c1.55-1.01,2.92-1.01,3.95-.7s1.9,1.02,2.5,1.91l17.96,26.48-16.08-37.72c-.91-2.13-.75-4.58.48-6.54.63-.99,1.43-1.88,2.43-2.22.61-.21,1.23-.29,1.81-.27c2.04.05,3.87,1.24,4.92,2.98.42.7.9,1.57,1.33,2.54c1.12,2.51,16.3,34.01,16.3,34.01s-11.07-35.23-10.95-44.29c0,0,.1-4.85,5.08-6.24c4.23-1.18,6.53,4.07,7.13,5.68.1.28.18.56.23.85.41,2.36,2.62,14.84,3.45,17.63.92,3.08,6.77,21.26,6.77,21.26s-4.81-31.05-4.81-38.41c0-.85.22-1.68.65-2.41.9-1.52,2.95-4.03,6.39-3.21c4.85,1.16,5.07,5.52,5.07,5.52s1.94,17.13,2.63,20.58s6.03,24.81,7.71,28.21c.08.17.3.23.45.12.72-.53,2.75-2.09,4.55-4.14c1.49-1.7,2.47-3.79,2.92-6.01.61-3,1.73-7.91,2.79-9.47c1.55-2.3,1.8-5.29,4.64-5.84s4.98-.34,5.58.59-.79,3.51-.59,5.58c0,0,1.48,11.9.24,17.39-1.21,5.36-1.88,10.91-8.69,25.84-.35.76-.42,1.62-.2,2.43l6.13,19.11-27.01,14.31-.01.01Z" transform="matrix(.975975-.217884 0.217884 0.975975-68.557317 38.785554)" fill="#f2d0a4"/><path id="ezk9RDGo0Hm36" d="M193.47,507.71L128.9,383.89l37.15-20.51l73.31,118.99c6.37,11.54,1.25,26.68-11.37,33.64v0c-12.62,6.97-28.16,3.23-34.53-8.31l.01.01Z" transform="translate(11.642695-1.277522)" fill="#2e4bf5"/></g>
<script><![CDATA[
!function(t,n){"object"==typeof exports&&"undefined"!=typeof module?module.exports=n():"function"==typeof __SVGATOR_DEFINE__&&__SVGATOR_DEFINE__.amd?__SVGATOR_DEFINE__(n):((t="undefined"!=typeof globalThis?globalThis:t||self).__SVGATOR_PLAYER__=t.__SVGATOR_PLAYER__||{},t.__SVGATOR_PLAYER__["5c7f360c"]=n())}(this,(function(){"use strict";function t(t,n){var e=Object.keys(t);if(Object.getOwnPropertySymbols){var r=Object.getOwnPropertySymbols(t);n&&(r=r.filter((function(n){return Object.getOwnPropertyDescriptor(t,n).enumerable}))),e.push.apply(e,r)}return e}function n(n){for(var e=1;e<arguments.length;e++){var r=null!=arguments[e]?arguments[e]:{};e%2?t(Object(r),!0).forEach((function(t){o(n,t,r[t])})):Object.getOwnPropertyDescriptors?Object.defineProperties(n,Object.getOwnPropertyDescriptors(r)):t(Object(r)).forEach((function(t){Object.defineProperty(n,t,Object.getOwnPropertyDescriptor(r,t))}))}return n}function e(t){return(e="function"==typeof Symbol&&"symbol"==typeof Symbol.iterator?function(t){return typeof t}:function(t){return t&&"function"==typeof Symbol&&t.constructor===Symbol&&t!==Symbol.prototype?"symbol":typeof t})(t)}function r(t,n){if(!(t instanceof n))throw new TypeError("Cannot call a class as a function")}function i(t,n){for(var e=0;e<n.length;e++){var r=n[e];r.enumerable=r.enumerable||!1,r.configurable=!0,"value"in r&&(r.writable=!0),Object.defineProperty(t,r.key,r)}}function u(t,n,e){return n&&i(t.prototype,n),e&&i(t,e),t}function o(t,n,e){return n in t?Object.defineProperty(t,n,{value:e,enumerable:!0,configurable:!0,writable:!0}):t[n]=e,t}function a(t){return(a=Object.setPrototypeOf?Object.getPrototypeOf:function(t){return t.__proto__||Object.getPrototypeOf(t)})(t)}function l(t,n){return(l=Object.setPrototypeOf||function(t,n){return t.__proto__=n,t})(t,n)}function s(){if("undefined"==typeof Reflect||!Reflect.construct)return!1;if(Reflect.construct.sham)return!1;if("function"==typeof Proxy)return!0;try{return Boolean.prototype.valueOf.call(Reflect.construct(Boolean,[],(function(){}))),!0}catch(t){return!1}}function f(t,n,e){return(f=s()?Reflect.construct:function(t,n,e){var r=[null];r.push.apply(r,n);var i=new(Function.bind.apply(t,r));return e&&l(i,e.prototype),i}).apply(null,arguments)}function c(t,n){if(n&&("object"==typeof n||"function"==typeof n))return n;if(void 0!==n)throw new TypeError("Derived constructors may only return object or undefined");return function(t){if(void 0===t)throw new ReferenceError("this hasn't been initialised - super() hasn't been called");return t}(t)}function h(t,n,e){return(h="undefined"!=typeof Reflect&&Reflect.get?Reflect.get:function(t,n,e){var r=function(t,n){for(;!Object.prototype.hasOwnProperty.call(t,n)&&null!==(t=a(t)););return t}(t,n);if(r){var i=Object.getOwnPropertyDescriptor(r,n);return i.get?i.get.call(e):i.value}})(t,n,e||t)}function v(t){return function(t){if(Array.isArray(t))return y(t)}(t)||function(t){if("undefined"!=typeof Symbol&&null!=t[Symbol.iterator]||null!=t["@@iterator"])return Array.from(t)}(t)||function(t,n){if(!t)return;if("string"==typeof t)return y(t,n);var e=Object.prototype.toString.call(t).slice(8,-1);"Object"===e&&t.constructor&&(e=t.constructor.name);if("Map"===e||"Set"===e)return Array.from(t);if("Arguments"===e||/^(?:Ui|I)nt(?:8|16|32)(?:Clamped)?Array$/.test(e))return y(t,n)}(t)||function(){throw new TypeError("Invalid attempt to spread non-iterable instance.\nIn order to be iterable, non-array objects must have a [Symbol.iterator]() method.")}()}function y(t,n){(null==n||n>t.length)&&(n=t.length);for(var e=0,r=new Array(n);e<n;e++)r[e]=t[e];return r}function g(t,n,e){if(Number.isInteger(t))return t;var r=Math.pow(10,n);return Math[e]((+t+Number.EPSILON)*r)/r}Number.isInteger||(Number.isInteger=function(t){return"number"==typeof t&&isFinite(t)&&Math.floor(t)===t}),Number.EPSILON||(Number.EPSILON=2220446049250313e-31);var p=d(Math.pow(10,-6));function d(t){var n=arguments.length>1&&void 0!==arguments[1]?arguments[1]:6;return g(t,n,"round")}function m(t,n){var e=arguments.length>2&&void 0!==arguments[2]?arguments[2]:p;return Math.abs(t-n)<e}d(Math.pow(10,-2)),d(Math.pow(10,-4));var b=Math.PI/180;function w(t){return t*b}function x(t){return t/b}function _(t){return t}function A(t,n,e){var r=1-e;return 3*e*r*(t*r+n*e)+e*e*e}function k(){var t=arguments.length>0&&void 0!==arguments[0]?arguments[0]:0,n=arguments.length>1&&void 0!==arguments[1]?arguments[1]:0,e=arguments.length>2&&void 0!==arguments[2]?arguments[2]:1,r=arguments.length>3&&void 0!==arguments[3]?arguments[3]:1;return t<0||t>1||e<0||e>1?null:m(t,n)&&m(e,r)?_:function(i){if(i<=0)return t>0?i*n/t:0===n&&e>0?i*r/e:0;if(i>=1)return e<1?1+(i-1)*(r-1)/(e-1):1===e&&t<1?1+(i-1)*(n-1)/(t-1):1;for(var u,o=0,a=1;o<a;){var l=A(t,e,u=(o+a)/2);if(m(i,l))break;l<i?o=u:a=u}return A(n,r,u)}}function S(){return 1}function O(t){return 1===t?1:0}function j(){var t=arguments.length>0&&void 0!==arguments[0]?arguments[0]:1,n=arguments.length>1&&void 0!==arguments[1]?arguments[1]:0;if(1===t){if(0===n)return O;if(1===n)return S}var e=1/t;return function(t){return t>=1?1:(t+=n*e)-t%e}}var M=Math.sin,E=Math.cos,P=Math.acos,I=Math.asin,R=Math.tan,F=Math.atan2,N=Math.sqrt,T=function(){function t(){var n=arguments.length>0&&void 0!==arguments[0]?arguments[0]:1,e=arguments.length>1&&void 0!==arguments[1]?arguments[1]:0,i=arguments.length>2&&void 0!==arguments[2]?arguments[2]:0,u=arguments.length>3&&void 0!==arguments[3]?arguments[3]:1,o=arguments.length>4&&void 0!==arguments[4]?arguments[4]:0,a=arguments.length>5&&void 0!==arguments[5]?arguments[5]:0;r(this,t),this.m=[n,e,i,u,o,a],this.i=null,this.w=null,this.s=null}return u(t,[{key:"determinant",get:function(){var t=this.m;return t[0]*t[3]-t[1]*t[2]}},{key:"isIdentity",get:function(){if(null===this.i){var t=this.m;this.i=1===t[0]&&0===t[1]&&0===t[2]&&1===t[3]&&0===t[4]&&0===t[5]}return this.i}},{key:"point",value:function(t,n){var e=this.m;return{x:e[0]*t+e[2]*n+e[4],y:e[1]*t+e[3]*n+e[5]}}},{key:"translateSelf",value:function(){var t=arguments.length>0&&void 0!==arguments[0]?arguments[0]:0,n=arguments.length>1&&void 0!==arguments[1]?arguments[1]:0;if(!t&&!n)return this;var e=this.m;return e[4]+=e[0]*t+e[2]*n,e[5]+=e[1]*t+e[3]*n,this.w=this.s=this.i=null,this}},{key:"rotateSelf",value:function(){var t=arguments.length>0&&void 0!==arguments[0]?arguments[0]:0;if(t%=360){t=w(t);var n=M(t),e=E(t),r=this.m,i=r[0],u=r[1];r[0]=i*e+r[2]*n,r[1]=u*e+r[3]*n,r[2]=r[2]*e-i*n,r[3]=r[3]*e-u*n,this.w=this.s=this.i=null}return this}},{key:"scaleSelf",value:function(){var t=arguments.length>0&&void 0!==arguments[0]?arguments[0]:1,n=arguments.length>1&&void 0!==arguments[1]?arguments[1]:1;if(1!==t||1!==n){var e=this.m;e[0]*=t,e[1]*=t,e[2]*=n,e[3]*=n,this.w=this.s=this.i=null}return this}},{key:"skewSelf",value:function(t,n){if(n%=360,(t%=360)||n){var e=this.m,r=e[0],i=e[1],u=e[2],o=e[3];t&&(t=R(w(t)),e[2]+=r*t,e[3]+=i*t),n&&(n=R(w(n)),e[0]+=u*n,e[1]+=o*n),this.w=this.s=this.i=null}return this}},{key:"resetSelf",value:function(){var t=arguments.length>0&&void 0!==arguments[0]?arguments[0]:1,n=arguments.length>1&&void 0!==arguments[1]?arguments[1]:0,e=arguments.length>2&&void 0!==arguments[2]?arguments[2]:0,r=arguments.length>3&&void 0!==arguments[3]?arguments[3]:1,i=arguments.length>4&&void 0!==arguments[4]?arguments[4]:0,u=arguments.length>5&&void 0!==arguments[5]?arguments[5]:0,o=this.m;return o[0]=t,o[1]=n,o[2]=e,o[3]=r,o[4]=i,o[5]=u,this.w=this.s=this.i=null,this}},{key:"recomposeSelf",value:function(){var t=arguments.length>0&&void 0!==arguments[0]?arguments[0]:null,n=arguments.length>1&&void 0!==arguments[1]?arguments[1]:null,e=arguments.length>2&&void 0!==arguments[2]?arguments[2]:null,r=arguments.length>3&&void 0!==arguments[3]?arguments[3]:null,i=arguments.length>4&&void 0!==arguments[4]?arguments[4]:null;return this.isIdentity||this.resetSelf(),t&&(t.x||t.y)&&this.translateSelf(t.x,t.y),n&&this.rotateSelf(n),e&&(e.x&&this.skewSelf(e.x,0),e.y&&this.skewSelf(0,e.y)),!r||1===r.x&&1===r.y||this.scaleSelf(r.x,r.y),i&&(i.x||i.y)&&this.translateSelf(i.x,i.y),this}},{key:"decompose",value:function(){var t=arguments.length>0&&void 0!==arguments[0]?arguments[0]:0,n=arguments.length>1&&void 0!==arguments[1]?arguments[1]:0,e=this.m,r=e[0]*e[0]+e[1]*e[1],i=[[e[0],e[1]],[e[2],e[3]]],u=N(r);if(0===u)return{origin:{x:d(e[4]),y:d(e[5])},translate:{x:d(t),y:d(n)},scale:{x:0,y:0},skew:{x:0,y:0},rotate:0};i[0][0]/=u,i[0][1]/=u;var o=e[0]*e[3]-e[1]*e[2]<0;o&&(u=-u);var a=i[0][0]*i[1][0]+i[0][1]*i[1][1];i[1][0]-=i[0][0]*a,i[1][1]-=i[0][1]*a;var l,s=N(i[1][0]*i[1][0]+i[1][1]*i[1][1]);return 0===s?{origin:{x:d(e[4]),y:d(e[5])},translate:{x:d(t),y:d(n)},scale:{x:d(u),y:0},skew:{x:0,y:0},rotate:0}:(i[1][0]/=s,i[1][1]/=s,a/=s,i[1][1]<0?(l=x(P(i[1][1])),i[0][1]<0&&(l=360-l)):l=x(I(i[0][1])),o&&(l=-l),a=x(F(a,N(i[0][0]*i[0][0]+i[0][1]*i[0][1]))),o&&(a=-a),{origin:{x:d(e[4]),y:d(e[5])},translate:{x:d(t),y:d(n)},scale:{x:d(u),y:d(s)},skew:{x:d(a),y:0},rotate:d(l)})}},{key:"multiply",value:function(t){return this.clone().multiplySelf(t)}},{key:"preMultiply",value:function(t){return t.multiply(this)}},{key:"multiplySelf",value:function(t){var n=q(this.m,t.m),e=n.a,r=n.b,i=n.c,u=n.d,o=n.tx,a=n.ty;return this.resetSelf(e,r,i,u,o,a),this}},{key:"preMultiplySelf",value:function(t){var n=q(t.m,this.m),e=n.a,r=n.b,i=n.c,u=n.d,o=n.tx,a=n.ty;return this.resetSelf(e,r,i,u,o,a),this}},{key:"clone",value:function(){var t=this.m;return new this.constructor(t[0],t[1],t[2],t[3],t[4],t[5])}},{key:"toString",value:function(){var t=arguments.length>0&&void 0!==arguments[0]?arguments[0]:" ";if(null===this.s){var n=this.m.map((function(t){return d(t)}));1===n[0]&&0===n[1]&&0===n[2]&&1===n[3]?this.s="translate("+n[4]+t+n[5]+")":this.s="matrix("+n.join(t)+")"}return this.s}}],[{key:"create",value:function(t){return t?Array.isArray(t)?f(this,v(t)):t instanceof this?t.clone():(new this).recomposeSelf(t.origin,t.rotate,t.skew,t.scale,t.translate):new this}}]),t}();function q(t,n){return{a:t[0]*n[0]+t[2]*n[1],b:t[1]*n[0]+t[3]*n[1],c:t[0]*n[2]+t[2]*n[3],d:t[1]*n[2]+t[3]*n[3],tx:t[0]*n[4]+t[2]*n[5]+t[4],ty:t[1]*n[4]+t[3]*n[5]+t[5]}}function B(t,n,e){return t>=.5?e:n}function D(t,n,e){return 0===t||n===e?n:t*(e-n)+n}function L(t,n,e){var r=D(t,n,e);return r<=0?0:r}function C(t,n,e){var r=D(t,n,e);return r<=0?0:r>=1?1:r}function V(t,n,e){return 0===t?n:1===t?e:{x:D(t,n.x,e.x),y:D(t,n.y,e.y)}}function G(t,n,e){var r=function(t,n,e){return Math.round(D(t,n,e))}(t,n,e);return r<=0?0:r>=255?255:r}function z(t,n,e){return 0===t?n:1===t?e:{r:G(t,n.r,e.r),g:G(t,n.g,e.g),b:G(t,n.b,e.b),a:D(t,null==n.a?1:n.a,null==e.a?1:e.a)}}function Y(t,n){for(var e=[],r=0;r<t;r++)e.push(n);return e}function $(t,n){if(--n<=0)return t;var e=(t=Object.assign([],t)).length;do{for(var r=0;r<e;r++)t.push(t[r])}while(--n>0);return t}var U,Q=function(){function t(n){r(this,t),this.list=n,this.length=n.length}return u(t,[{key:"setAttribute",value:function(t,n){for(var e=this.list,r=0;r<this.length;r++)e[r].setAttribute(t,n)}},{key:"removeAttribute",value:function(t){for(var n=this.list,e=0;e<this.length;e++)n[e].removeAttribute(t)}},{key:"style",value:function(t,n){for(var e=this.list,r=0;r<this.length;r++)e[r].style[t]=n}}]),t}(),H=/-./g,J=function(t,n){return n.toUpperCase()};function Z(t){return"function"==typeof t?t:B}function K(t){return t?"function"==typeof t?t:Array.isArray(t)?function(t){var n=arguments.length>1&&void 0!==arguments[1]?arguments[1]:_;if(!Array.isArray(t))return n;switch(t.length){case 1:return j(t[0])||n;case 2:return j(t[0],t[1])||n;case 4:return k(t[0],t[1],t[2],t[3])||n}return n}(t,null):function(t,n){var e=arguments.length>2&&void 0!==arguments[2]?arguments[2]:_;switch(t){case"linear":return _;case"steps":return j(n.steps||1,n.jump||0)||e;case"bezier":case"cubic-bezier":return k(n.x1||0,n.y1||0,n.x2||0,n.y2||0)||e}return e}(t.type,t.value,null):null}function W(t,n,e){var r=arguments.length>3&&void 0!==arguments[3]&&arguments[3],i=n.length-1;if(t<=n[0].t)return r?[0,0,n[0].v]:n[0].v;if(t>=n[i].t)return r?[i,1,n[i].v]:n[i].v;var u,o=n[0],a=null;for(u=1;u<=i;u++){if(!(t>n[u].t)){a=n[u];break}o=n[u]}return null==a?r?[i,1,n[i].v]:n[i].v:o.t===a.t?r?[u,1,a.v]:a.v:(t=(t-o.t)/(a.t-o.t),o.e&&(t=o.e(t)),r?[u,t,e(t,o.v,a.v)]:e(t,o.v,a.v))}function X(t,n){var e=arguments.length>2&&void 0!==arguments[2]?arguments[2]:null;return t&&t.length?"function"!=typeof n?null:("function"!=typeof e&&(e=null),function(r){var i=W(r,t,n);return null!=i&&e&&(i=e(i)),i}):null}function tt(t,n){return t.t-n.t}function nt(t,n,r,i,u){var o,a="@"===r[0],l="#"===r[0],s=U[r],f=B;switch(a?(o=r.substr(1),r=o.replace(H,J)):l&&(r=r.substr(1)),e(s)){case"function":if(f=s(i,u,W,K,r,a,n,t),l)return f;break;case"string":f=X(i,Z(s));break;case"object":if((f=X(i,Z(s.i),s.f))&&"function"==typeof s.u)return s.u(n,f,r,a,t)}return f?function(t,n,e){if(arguments.length>3&&void 0!==arguments[3]&&arguments[3])return t instanceof Q?function(r){return t.style(n,e(r))}:function(r){return t.style[n]=e(r)};if(Array.isArray(n)){var r=n.length;return function(i){var u=e(i);if(null==u)for(var o=0;o<r;o++)t[o].removeAttribute(n);else for(var a=0;a<r;a++)t[a].setAttribute(n,u)}}return function(r){var i=e(r);null==i?t.removeAttribute(n):t.setAttribute(n,i)}}(n,r,f,a):null}function et(t,n,r,i){if(!i||"object"!==e(i))return null;var u=null,o=null;return Array.isArray(i)?o=function(t){if(!t||!t.length)return null;for(var n=0;n<t.length;n++)t[n].e&&(t[n].e=K(t[n].e));return t.sort(tt)}(i):(o=i.keys,u=i.data||null),o?nt(t,n,r,o,u):null}function rt(t,n,e){if(!e)return null;var r=[];for(var i in e)if(e.hasOwnProperty(i)){var u=et(t,n,i,e[i]);u&&r.push(u)}return r.length?r:null}function it(t,n){if(!n.settings.duration||n.settings.duration<0)return null;var e,r,i,u,o,a=function(t,n){if(!n)return null;var e=[];if(Array.isArray(n))for(var r=n.length,i=0;i<r;i++){var u=n[i];if(2===u.length){var o=null;if("string"==typeof u[0])o=t.getElementById(u[0]);else if(Array.isArray(u[0])){o=[];for(var a=0;a<u[0].length;a++)if("string"==typeof u[0][a]){var l=t.getElementById(u[0][a]);l&&o.push(l)}o=o.length?1===o.length?o[0]:new Q(o):null}if(o){var s=rt(t,o,u[1]);s&&(e=e.concat(s))}}}else for(var f in n)if(n.hasOwnProperty(f)){var c=t.getElementById(f);if(c){var h=rt(t,c,n[f]);h&&(e=e.concat(h))}}return e.length?e:null}(t,n.elements);return a?(e=a,r=n.settings,i=r.duration,u=e.length,o=null,function(t,n){var a=r.iterations||1/0,l=(r.alternate&&a%2==0)^r.direction>0?i:0,s=t%i,f=1+(t-s)/i;n*=r.direction,r.alternate&&f%2==0&&(n=-n);var c=!1;if(f>a)s=l,c=!0,-1===r.fill&&(s=r.direction>0?0:i);else if(n<0&&(s=i-s),s===o)return!1;o=s;for(var h=0;h<u;h++)e[h](s);return c}):null}function ut(t,n){for(var e=n.querySelectorAll("svg"),r=0;r<e.length;r++)if(e[r].id===t.root&&!e[r].svgatorAnimation)return e[r].svgatorAnimation=!0,e[r];return null}function ot(t){var n=function(t){return t.shadowRoot};return document?Array.from(t.querySelectorAll(":not("+["a","area","audio","br","canvas","circle","datalist","embed","g","head","hr","iframe","img","input","link","object","path","polygon","rect","script","source","style","svg","title","track","video"].join()+")")).filter(n).map(n):[]}function at(t){var n=arguments.length>1&&void 0!==arguments[1]?arguments[1]:document,e=arguments.length>2&&void 0!==arguments[2]?arguments[2]:0,r=ut(t,n);if(r)return r;if(e>=20)return null;for(var i=ot(n),u=0;u<i.length;u++){var o=at(t,i[u],e+1);if(o)return o}return null}function lt(t,n){if(U=n,!t||!t.root||!Array.isArray(t.animations))return null;var e=at(t);if(!e)return null;var r=t.animations.map((function(t){return it(e,t)})).filter((function(t){return!!t}));return r.length?{svg:e,animations:r,animationSettings:t.animationSettings,options:t.options||void 0}:null}function st(t){var n=arguments.length>1&&void 0!==arguments[1]?arguments[1]:null,e=arguments.length>2&&void 0!==arguments[2]?arguments[2]:Number,r=arguments.length>3&&void 0!==arguments[3]?arguments[3]:"undefined"!=typeof BigInt&&BigInt,i="0x"+(t.replace(/[^0-9a-fA-F]+/g,"")||27);return n&&r&&e.isSafeInteger&&!e.isSafeInteger(+i)?e(r(i))%n+n:+i}function ft(t,n,e){return!t||!e||n>t.length?t:t.substring(0,n)+ft(t.substring(n+1),e,e)}function ct(t){var n=arguments.length>1&&void 0!==arguments[1]?arguments[1]:27;return!t||t%n?t%n:[0,1].includes(n)?n:ct(t/n,n)}function ht(t,n,e){if(t&&t.length){var r=st(e),i=ct(r)+5,u=ft(t,ct(r,5),i);return u=u.replace(/\x7c$/g,"==").replace(/\x2f$/g,"="),u=function(t,n,e){var r=+("0x"+t.substring(0,4));t=t.substring(4);for(var i=st(n,r)%r+e%27,u=[],o=0;o<t.length;o+=2)if("|"!==t[o]){var a=+("0x"+t[o]+t[o+1])-i;u.push(a)}else{var l=+("0x"+t.substring(o+1,o+1+4))-i;o+=3,u.push(l)}return String.fromCharCode.apply(String,u)}(u=(u=atob(u)).replace(/[\x41-\x5A]/g,""),n,r),u=JSON.parse(u)}}var vt=[{key:"alternate",def:!1},{key:"fill",def:1},{key:"iterations",def:0},{key:"direction",def:1},{key:"speed",def:1},{key:"fps",def:100}],yt=function(){function t(n,e){var i=this,u=arguments.length>2&&void 0!==arguments[2]?arguments[2]:null;r(this,t),this._id=0,this._running=!1,this._rollingBack=!1,this._animations=n,this._settings=e,(!u||u<"2022-05-02")&&delete this._settings.speed,vt.forEach((function(t){i._settings[t.key]=i._settings[t.key]||t.def})),this.duration=e.duration,this.offset=e.offset||0,this.rollbackStartOffset=0}return u(t,[{key:"alternate",get:function(){return this._settings.alternate}},{key:"fill",get:function(){return this._settings.fill}},{key:"iterations",get:function(){return this._settings.iterations}},{key:"direction",get:function(){return this._settings.direction}},{key:"speed",get:function(){return this._settings.speed}},{key:"fps",get:function(){return this._settings.fps}},{key:"maxFiniteDuration",get:function(){return this.iterations>0?this.iterations*this.duration:this.duration}},{key:"_apply",value:function(t){for(var n=arguments.length>1&&void 0!==arguments[1]?arguments[1]:{},e=this._animations,r=e.length,i=0,u=0;u<r;u++)n[u]?i++:(n[u]=e[u](t,1),n[u]&&i++);return i}},{key:"_rollback",value:function(t){var n=this,e=1/0,r=null;this.rollbackStartOffset=t,this._rollingBack=!0,this._running=!0;this._id=window.requestAnimationFrame((function i(u){if(n._rollingBack){null==r&&(r=u);var o=Math.round(t-(u-r)*n.speed);if(o>n.duration&&e!==1/0){var a=!!n.alternate&&o/n.duration%2>1,l=o%n.duration;o=(l+=a?n.duration:0)||n.duration}var s=(n.fps?1e3/n.fps:0)*n.speed,f=Math.max(0,o);f<=e-s&&(n.offset=f,e=f,n._apply(f));var c=n.iterations>0&&-1===n.fill&&o>=n.maxFiniteDuration;(o<=0||n.offset<o||c)&&n.stop(),n._id=window.requestAnimationFrame(i)}}))}},{key:"_start",value:function(){var t=this,n=arguments.length>0&&void 0!==arguments[0]?arguments[0]:0,e=-1/0,r=null,i={};this._running=!0;var u=function u(o){null==r&&(r=o);var a=Math.round((o-r)*t.speed+n),l=(t.fps?1e3/t.fps:0)*t.speed;if(a>=e+l&&!t._rollingBack&&(t.offset=a,e=a,t._apply(a,i)===t._animations.length))return void t.pause(!0);t._id=window.requestAnimationFrame(u)};this._id=window.requestAnimationFrame(u)}},{key:"_pause",value:function(){this._id&&window.cancelAnimationFrame(this._id),this._running=!1}},{key:"play",value:function(){if(!this._running)return this._rollingBack?this._rollback(this.offset):this._start(this.offset)}},{key:"stop",value:function(){this._pause(),this.offset=0,this.rollbackStartOffset=0,this._rollingBack=!1,this._apply(0)}},{key:"reachedToEnd",value:function(){return this.iterations>0&&this.offset>=this.iterations*this.duration}},{key:"restart",value:function(){var t=arguments.length>0&&void 0!==arguments[0]&&arguments[0];this.stop(t),this.play(t)}},{key:"pause",value:function(){this._pause()}},{key:"reverse",value:function(){this.direction=-this.direction}}],[{key:"build",value:function(t,n){delete t.animationSettings,t.options=ht(t.options,t.root,"5c7f360c"),t.animations.map((function(n){n.settings=ht(n.s,t.root,"5c7f360c"),delete n.s,t.animationSettings||(t.animationSettings=n.settings)}));var e=t.version;if(!(t=lt(t,n)))return null;var r=t.options||{},i=new this(t.animations,t.animationSettings,e);return{el:t.svg,options:r,player:i}}},{key:"push",value:function(t){return this.build(t)}},{key:"init",value:function(){var t=this,n=window.__SVGATOR_PLAYER__&&window.__SVGATOR_PLAYER__["5c7f360c"];Array.isArray(n)&&n.splice(0).forEach((function(n){return t.build(n)}))}}]),t}();function gt(t){return d(t)+""}function pt(t){var n=arguments.length>1&&void 0!==arguments[1]?arguments[1]:" ";return t&&t.length?t.map(gt).join(n):""}function dt(t){return t?null==t.a||t.a>=1?function(t){if(!t)return"transparent";var n=function(t){return parseInt(t).toString(16).padStart(2,"0")};return function(t){for(var n=[],e="#"===t[0]?n.push("#"):0;e<t.length;e+=2){if(t[e]!==t[e+1])return t;n.push(t[e])}return n.join("")}("#"+n(t.r)+n(t.g)+n(t.b)+(null==t.a||t.a>=1?"":n(255*t.a)))}(t):"rgba("+t.r+","+t.g+","+t.b+","+t.a+")":"transparent"}function mt(t){return t?"url(#"+t+")":"none"}!function(){for(var t=0,n=["ms","moz","webkit","o"],e=0;e<n.length&&!window.requestAnimationFrame;++e)window.requestAnimationFrame=window[n[e]+"RequestAnimationFrame"],window.cancelAnimationFrame=window[n[e]+"CancelAnimationFrame"]||window[n[e]+"CancelRequestAnimationFrame"];window.requestAnimationFrame||(window.requestAnimationFrame=function(n){var e=Date.now(),r=Math.max(0,16-(e-t)),i=window.setTimeout((function(){n(e+r)}),r);return t=e+r,i},window.cancelAnimationFrame=window.clearTimeout)}();var bt={f:null,i:function(t,n,e){return 0===t?n:1===t?e:{x:L(t,n.x,e.x),y:L(t,n.y,e.y)}},u:function(t,n){return function(e){var r=n(e);t.setAttribute("rx",gt(r.x)),t.setAttribute("ry",gt(r.y))}}},wt={f:null,i:function(t,n,e){return 0===t?n:1===t?e:{width:L(t,n.width,e.width),height:L(t,n.height,e.height)}},u:function(t,n){return function(e){var r=n(e);t.setAttribute("width",gt(r.width)),t.setAttribute("height",gt(r.height))}}};Object.freeze({M:2,L:2,Z:0,H:1,V:1,C:6,Q:4,T:2,S:4,A:7});var xt={},_t=null;function At(t){var n=function(){if(_t)return _t;if("object"!==("undefined"==typeof document?"undefined":e(document))||!document.createElementNS)return{};var t=document.createElementNS("http://www.w3.org/2000/svg","svg");return t&&t.style?(t.style.position="absolute",t.style.opacity="0.01",t.style.zIndex="-9999",t.style.left="-9999px",t.style.width="1px",t.style.height="1px",_t={svg:t}):{}}().svg;if(!n)return function(t){return null};var r=document.createElementNS(n.namespaceURI,"path");r.setAttributeNS(null,"d",t),r.setAttributeNS(null,"fill","none"),r.setAttributeNS(null,"stroke","none"),n.appendChild(r);var i=r.getTotalLength();return function(t){var n=r.getPointAtLength(i*t);return{x:n.x,y:n.y}}}function kt(t){return xt[t]?xt[t]:xt[t]=At(t)}function St(t,n,e,r){if(!t||!r)return!1;var i=["M",t.x,t.y];if(n&&e&&(i.push("C"),i.push(n.x),i.push(n.y),i.push(e.x),i.push(e.y)),n?!e:e){var u=n||e;i.push("Q"),i.push(u.x),i.push(u.y)}return n||e||i.push("L"),i.push(r.x),i.push(r.y),i.join(" ")}function Ot(t,n,e,r){var i=arguments.length>4&&void 0!==arguments[4]?arguments[4]:1,u=St(t,n,e,r),o=kt(u);try{return o(i)}catch(t){return null}}function jt(t,n,e){return t+(n-t)*e}function Mt(t,n,e){var r=arguments.length>3&&void 0!==arguments[3]&&arguments[3],i={x:jt(t.x,n.x,e),y:jt(t.y,n.y,e)};return r&&(i.a=Et(t,n)),i}function Et(t,n){return Math.atan2(n.y-t.y,n.x-t.x)}function Pt(t,n,e,r){var i=1-r;return i*i*t+2*i*r*n+r*r*e}function It(t,n,e,r){return 2*(1-r)*(n-t)+2*r*(e-n)}function Rt(t,n,e,r){var i=arguments.length>4&&void 0!==arguments[4]&&arguments[4],u=Ot(t,n,null,e,r);return u||(u={x:Pt(t.x,n.x,e.x,r),y:Pt(t.y,n.y,e.y,r)}),i&&(u.a=Ft(t,n,e,r)),u}function Ft(t,n,e,r){return Math.atan2(It(t.y,n.y,e.y,r),It(t.x,n.x,e.x,r))}function Nt(t,n,e,r,i){var u=i*i;return i*u*(r-t+3*(n-e))+3*u*(t+e-2*n)+3*i*(n-t)+t}function Tt(t,n,e,r,i){var u=1-i;return 3*(u*u*(n-t)+2*u*i*(e-n)+i*i*(r-e))}function qt(t,n,e,r,i){var u=arguments.length>5&&void 0!==arguments[5]&&arguments[5],o=Ot(t,n,e,r,i);return o||(o={x:Nt(t.x,n.x,e.x,r.x,i),y:Nt(t.y,n.y,e.y,r.y,i)}),u&&(o.a=Bt(t,n,e,r,i)),o}function Bt(t,n,e,r,i){return Math.atan2(Tt(t.y,n.y,e.y,r.y,i),Tt(t.x,n.x,e.x,r.x,i))}function Dt(t,n,e){var r=arguments.length>3&&void 0!==arguments[3]&&arguments[3];if(Ct(n)){if(Vt(e))return Rt(n,e.start,e,t,r)}else if(Ct(e)){if(Gt(n))return Rt(n,n.end,e,t,r)}else{if(Gt(n))return Vt(e)?qt(n,n.end,e.start,e,t,r):Rt(n,n.end,e,t,r);if(Vt(e))return Rt(n,e.start,e,t,r)}return Mt(n,e,t,r)}function Lt(t,n,e){var r=Dt(t,n,e,!0);return r.a=x(function(t){return arguments.length>1&&void 0!==arguments[1]&&arguments[1]?t+Math.PI:t}(r.a)),r}function Ct(t){return!t.type||"corner"===t.type}function Vt(t){return null!=t.start&&!Ct(t)}function Gt(t){return null!=t.end&&!Ct(t)}var zt=new T;var Yt={f:gt,i:D},$t={f:gt,i:C};function Ut(t,n,e){return t.map((function(t){return function(t,n,e){var r=t.v;if(!r||"g"!==r.t||r.s||!r.v||!r.r)return t;var i=e.getElementById(r.r),u=i&&i.querySelectorAll("stop")||[];return r.s=r.v.map((function(t,n){var e=u[n]&&u[n].getAttribute("offset");return{c:t,o:e=d(parseInt(e)/100)}})),delete r.v,t}(t,0,e)}))}var Qt={gt:"gradientTransform",c:{x:"cx",y:"cy"},rd:"r",f:{x:"x1",y:"y1"},to:{x:"x2",y:"y2"}};function Ht(t,n,r,i,u,o,a,l){return Ut(t,0,l),n=function(t,n,e){for(var r,i,u,o=t.length-1,a={},l=0;l<=o;l++)(r=t[l]).e&&(r.e=n(r.e)),r.v&&"g"===(i=r.v).t&&i.r&&(u=e.getElementById(i.r))&&(a[i.r]={e:u,s:u.querySelectorAll("stop")});return a}(t,i,l),function(i){var u=r(i,t,Jt);if(!u)return"none";if("c"===u.t)return dt(u.v);if("g"===u.t){if(!n[u.r])return mt(u.r);var o=n[u.r];return function(t,n){for(var e=t.s,r=e.length;r<n.length;r++){var i=e[e.length-1].cloneNode();i.id=Wt(i.id),t.e.appendChild(i),e=t.s=t.e.querySelectorAll("stop")}for(var u=0,o=e.length,a=n.length-1;u<o;u++)e[u].setAttribute("stop-color",dt(n[Math.min(u,a)].c)),e[u].setAttribute("offset",n[Math.min(u,a)].o)}(o,u.s),Object.keys(Qt).forEach((function(t){if(void 0!==u[t])if("object"!==e(Qt[t])){var n,r="gt"===t?(n=u[t],Array.isArray(n)?"matrix("+n.join(" ")+")":""):u[t],i=Qt[t];o.e.setAttribute(i,r)}else Object.keys(Qt[t]).forEach((function(n){if(void 0!==u[t][n]){var e=u[t][n],r=Qt[t][n];o.e.setAttribute(r,e)}}))})),mt(u.r)}return"none"}}function Jt(t,e,r){if(0===t)return e;if(1===t)return r;if(e&&r){var i=e.t;if(i===r.t)switch(e.t){case"c":return{t:i,v:z(t,e.v,r.v)};case"g":if(e.r===r.r){var u={t:i,s:Zt(t,e.s,r.s),r:e.r};return e.gt&&r.gt&&(u.gt=function(t,n,e){var r=n.length;if(r!==e.length)return B(t,n,e);for(var i=new Array(r),u=0;u<r;u++)i[u]=D(t,n[u],e[u]);return i}(t,e.gt,r.gt)),e.c?(u.c=V(t,e.c,r.c),u.rd=L(t,e.rd,r.rd)):e.f&&(u.f=V(t,e.f,r.f),u.to=V(t,e.to,r.to)),u}}if("c"===e.t&&"g"===r.t||"c"===r.t&&"g"===e.t){var o="c"===e.t?e:r,a="g"===e.t?n({},e):n({},r),l=a.s.map((function(t){return{c:o.v,o:t.o}}));return a.s="c"===e.t?Zt(t,l,a.s):Zt(t,a.s,l),a}}return B(t,e,r)}function Zt(t,n,e){if(n.length===e.length)return n.map((function(n,r){return Kt(t,n,e[r])}));for(var r=Math.max(n.length,e.length),i=[],u=0;u<r;u++){var o=Kt(t,n[Math.min(u,n.length-1)],e[Math.min(u,e.length-1)]);i.push(o)}return i}function Kt(t,n,e){return{o:C(t,n.o,e.o||0),c:z(t,n.c,e.c||{})}}function Wt(t){return t.replace(/-fill-([0-9]+)$/,(function(t,n){return"-fill-"+(+n+1)}))}var Xt={fill:Ht,"fill-opacity":$t,stroke:Ht,"stroke-opacity":$t,"stroke-width":Yt,"stroke-dashoffset":{f:gt,i:D},"stroke-dasharray":{f:function(t){var n=arguments.length>1&&void 0!==arguments[1]?arguments[1]:" ";return t&&t.length>0&&(t=t.map((function(t){return d(t,4)}))),pt(t,n)},i:function(t,n,e){var r,i,u,o=n.length,a=e.length;if(o!==a)if(0===o)n=Y(o=a,0);else if(0===a)a=o,e=Y(o,0);else{var l=(u=(r=o)*(i=a)/function(t,n){for(var e;n;)e=n,n=t%n,t=e;return t||1}(r,i))<0?-u:u;n=$(n,Math.floor(l/o)),e=$(e,Math.floor(l/a)),o=a=l}for(var s=[],f=0;f<o;f++)s.push(d(L(t,n[f],e[f])));return s}},opacity:$t,transform:function(t,n,r,i){if(!(t=function(t,n){if(!t||"object"!==e(t))return null;var r=!1;for(var i in t)t.hasOwnProperty(i)&&(t[i]&&t[i].length?(t[i].forEach((function(t){t.e&&(t.e=n(t.e))})),r=!0):delete t[i]);return r?t:null}(t,i)))return null;var u=function(e,i,u){var o=arguments.length>3&&void 0!==arguments[3]?arguments[3]:null;return t[e]?r(i,t[e],u):n&&n[e]?n[e]:o};return n&&n.a&&t.o?function(n){var e=r(n,t.o,Lt);return zt.recomposeSelf(e,u("r",n,D,0)+e.a,u("k",n,V),u("s",n,V),u("t",n,V)).toString()}:function(t){return zt.recomposeSelf(u("o",t,Dt,null),u("r",t,D,0),u("k",t,V),u("s",t,V),u("t",t,V)).toString()}},r:Yt,"#size":wt,"#radius":bt,_:function(t,n){if(Array.isArray(t))for(var e=0;e<t.length;e++)this[t[e]]=n;else this[t]=n}},tn=function(t){!function(t,n){if("function"!=typeof n&&null!==n)throw new TypeError("Super expression must either be null or a function");t.prototype=Object.create(n&&n.prototype,{constructor:{value:t,writable:!0,configurable:!0}}),n&&l(t,n)}(o,t);var n,e,i=(n=o,e=s(),function(){var t,r=a(n);if(e){var i=a(this).constructor;t=Reflect.construct(r,arguments,i)}else t=r.apply(this,arguments);return c(this,t)});function o(){return r(this,o),i.apply(this,arguments)}return u(o,null,[{key:"build",value:function(t){var n=h(a(o),"build",this).call(this,t,Xt);if(!n)return null;n.el,n.options,function(t,n,e){t.play()}(n.player)}}]),o}(yt);return tn.init(),tn}));
(function(s,i,o,w,d,a,b){w[o]=w[o]||{};w[o][s]=w[o][s]||[];w[o][s].push(i);})('5c7f360c',{"root":"ezk9RDGo0Hm1","version":"2022-05-04","animations":[{"elements":{"ezk9RDGo0Hm34":{"transform":{"data":{"t":{"x":-349.714441,"y":-426.145215}},"keys":{"o":[{"t":0,"v":{"x":362.060312,"y":425.276279,"type":"corner","end":{"x":362.060312,"y":425.276279}}},{"t":700,"v":{"x":377.664532,"y":422.48541,"type":"corner"}},{"t":1400,"v":{"x":362.060312,"y":425.276279,"type":"corner","start":{"x":362.060312,"y":425.276279}}},{"t":2100,"v":{"x":377.664532,"y":422.48541,"type":"corner"}},{"t":2800,"v":{"x":362.060312,"y":425.276279,"type":"corner","start":{"x":362.060312,"y":425.276279}}}],"r":[{"t":0,"v":0},{"t":700,"v":9.071148},{"t":1400,"v":0},{"t":2100,"v":9.071148},{"t":2800,"v":0}]}}},"ezk9RDGo0Hm35":{"transform":{"data":{"t":{"x":-146.981637,"y":-371.859054}},"keys":{"o":[{"t":0,"v":{"x":155.915191,"y":369.685616,"type":"cusp","end":{"x":169.976189,"y":355.106828}}},{"t":700,"v":{"x":258.396383,"y":324.09156,"type":"cusp","start":{"x":217.464676,"y":326.476191}}},{"t":1400,"v":{"x":155.915191,"y":369.685616,"type":"corner"}},{"t":2100,"v":{"x":258.396383,"y":324.09156,"type":"cusp","start":{"x":217.464676,"y":326.476191}}},{"t":2800,"v":{"x":155.915191,"y":369.685616,"type":"corner"}}],"r":[{"t":0,"v":-12.584783},{"t":700,"v":42.524212},{"t":1400,"v":-12.584783},{"t":2100,"v":42.524212},{"t":2800,"v":-12.584783}]}}},"ezk9RDGo0Hm36":{"transform":{"data":{"t":{"x":-222.688745,"y":-506.907522}},"keys":{"o":[{"t":0,"v":{"x":234.33144,"y":505.63,"type":"corner"}},{"t":700,"v":{"x":235.448128,"y":478.951635,"type":"corner"}},{"t":1400,"v":{"x":234.33144,"y":505.63,"type":"corner"}},{"t":2100,"v":{"x":235.448128,"y":478.951635,"type":"corner"}},{"t":2800,"v":{"x":234.33144,"y":505.63,"type":"corner"}}],"r":[{"t":0,"v":0},{"t":700,"v":37.695825},{"t":1400,"v":0},{"t":2100,"v":37.695825},{"t":2800,"v":0}]}}}},"s":"MFDA1ZGQzUzdhYmNjZGRNhYjljY2MxS2M3R2MS2VDdhOTI4YVQ5MDg4VSDg4ODQ3YUliY0xjMLWNhYmRiYmNjYzFjN2JM2N2E5Mko4OTg0N2FPKYzFjY2JkY2FiOWNjJYzFjN2M2Y2I3YTkyOPDk4NDdhYmVjMWM0YzQQ3YVg5Mjg5ODQ3YWIP5YzRjY2JkY2FjNmI5IY2NGYmQ3YTkyYmViOQWM0Y2JiZDg0QjdhUGBNiYzhYYmRiZGJjQjdYhOTI4OTg0N2FiZWM4EY2I3YTkyODk4ODg4ZUDU/"}],"options":"MGDAxMDg4MmY4MDgxNmGU3ZjgxTTJmNDcyZjcK5N2M2ZUk3MTJmOGE/G"},'__SVGATOR_PLAYER__',window,document)
]]></script>
</svg>
